<?xml version="1.0" encoding="UTF-8"?>
<!DOCTYPE svg PUBLIC "-//W3C//DTD SVG 1.1//EN" "http://www.w3.org/Graphics/SVG/1.1/DTD/svg11.dtd">
<svg xmlns="http://www.w3.org/2000/svg" xmlns:xlink="http://www.w3.org/1999/xlink">
	<defs>
		<clipPath id="clip0_3449_85789">
			<path fill="#fff" d="M0 0h22v13H0z"/>
		</clipPath>
	</defs>
<symbol id="arrow-down" viewBox="0 0 24 24">
	<path fill="#292D32" d="M8.529 13.232l1.96 1.97c.83.83 2.18.83 3.01 0l5.18-5.18c.68-.68.19-1.84-.76-1.84H6.079c-.96 0-1.44 1.16-.76 1.84l3.21 3.21z"/>
</symbol>
<symbol id="icon-add" viewBox="0 0 40 40">
	<circle cx="20" cy="20" r="19" fill="transparent" stroke="currentColor" stroke-width="2"/>
	<path stroke="currentColor" stroke-linecap="round" stroke-width="2" d="M20 14v6m0 6v-6m6 0h-6m0 0h-6"/>
</symbol>
<symbol id="icon-alert" viewBox="0 0 94 94">
	<path fill="#ED0B70" d="M45.446 55.282l-.781-27.342h4.687l-.837 27.341h-3.07zm1.562 11.996a2.995 2.995 0 01-2.12-.837c-.558-.595-.837-1.283-.837-2.064 0-.818.279-1.488.837-2.009a2.995 2.995 0 012.12-.837c.856 0 1.544.28 2.065.837.558.52.837 1.19.837 2.009 0 .781-.28 1.47-.837 2.065-.521.558-1.21.837-2.065.837z"/>
</symbol>
<symbol id="icon-card" viewBox="0 0 44 44">
	<path fill="#0085FF" fill-rule="evenodd" d="M18 32.75c-3.65 0-5.75-2.1-5.75-5.75V17c0-3.65 2.1-5.75 5.75-5.75h8c3.65 0 5.75 2.1 5.75 5.75v10c0 3.65-2.1 5.75-5.75 5.75h-8zM13.75 17v10c0 2.86 1.39 4.25 4.25 4.25h8c2.86 0 4.25-1.39 4.25-4.25V17c0-2.86-1.39-4.25-4.25-4.25h-8c-2.86 0-4.25 1.39-4.25 4.25z" clip-rule="evenodd"/>
	<path fill="#0085FF" d="M26.5 19.25c-1.52 0-2.75-1.23-2.75-2.75v-2c0-.41.34-.75.75-.75s.75.34.75.75v2c0 .69.56 1.25 1.25 1.25h2c.41 0 .75.34.75.75s-.34.75-.75.75h-2zM19.468 27.53l-2-2a.754.754 0 010-1.06l2-2c.29-.29.77-.29 1.06 0 .29.29.29.77 0 1.06L19.058 25l1.47 1.47c.29.29.29.77 0 1.06-.15.15-.34.22-.53.22s-.38-.07-.53-.22zM23.468 27.53a.754.754 0 010-1.06l1.47-1.47-1.47-1.47a.754.754 0 010-1.06c.29-.29.77-.29 1.06 0l2 2c.29.29.29.77 0 1.06l-2 2c-.15.15-.34.22-.53.22s-.38-.07-.53-.22z"/>
</symbol>
<symbol id="icon-check" viewBox="0 0 62 62">
	<path fill="transparent" stroke="#457B9D" stroke-linecap="round" stroke-linejoin="round" stroke-width="2" d="M16 31l11.25 11L46 20"/>
</symbol>
<symbol id="icon-checkbox" viewBox="0 0 8 8">
	<path stroke="#57C3FF" stroke-linecap="round" stroke-linejoin="round" d="M2 4l1.5 1.5 2.5-3"/>
</symbol>
<symbol id="icon-de" viewBox="0 0 22 13">
	<g clip-path="url(#clip0_3449_85789)">
		<path fill="#000" d="M22.018-.445H-.02v13.89h22.038V-.445z"/>
		<path fill="#D00" d="M22.018 4.186H-.02v9.26h22.038v-9.26z"/>
		<path fill="#FFCE00" d="M22.018 8.814H-.02v4.631h22.038v-4.63z"/>
	</g>

</symbol>
<symbol id="icon-search" viewBox="0 0 16 16">
	<path stroke="#B1B1B1" stroke-linecap="round" stroke-linejoin="round" stroke-width="1.5" d="M7.665 14a6.333 6.333 0 110-12.666 6.333 6.333 0 010 12.667z" clip-rule="evenodd"/>
	<path stroke="#B1B1B1" stroke-linecap="round" stroke-linejoin="round" stroke-width="1.5" d="M14.665 14.667l-1.333-1.333"/>
</symbol>
<symbol id="icon-status-active" viewBox="0 0 20 20">
	<path stroke="#fff" stroke-linecap="round" stroke-linejoin="round" d="M5 9.5L8.33 13 15 6"/>
</symbol>
<symbol id="icon-status-deactive" viewBox="0 0 20 20">
	<path fill="#fff" d="M8.706 5.2h2.604l-.434 6.397H9.14L8.706 5.2zm1.302 9.911c-.383 0-.705-.121-.966-.364a1.24 1.24 0 01-.378-.91c0-.354.126-.648.378-.882.252-.242.574-.364.966-.364s.714.122.966.364c.252.234.378.528.378.882 0 .355-.13.658-.392.91-.252.243-.57.364-.952.364z"/>
</symbol>
<symbol id="icon-status-off" viewBox="0 0 25 25">
	<path fill="#ED0B70" d="M25 12.5C25 5.625 19.375 0 12.5 0S0 5.625 0 12.5 5.625 25 12.5 25 25 19.375 25 12.5z"/>
	<path stroke="#fff" stroke-linecap="round" stroke-linejoin="round" d="M8.96 16.038l7.076-7.075M16.036 16.038L8.96 8.963"/>
</symbol>
<symbol id="icon-status-on" viewBox="0 0 25 25">
	<path fill="#4CBFA6" d="M25 12.5C25 5.625 19.375 0 12.5 0S0 5.625 0 12.5 5.625 25 12.5 25 25 19.375 25 12.5z"/>
	<path fill="transparent" stroke="#fff" stroke-linecap="round" stroke-linejoin="round" d="M7.188 12.5l3.537 3.538 7.088-7.075"/>
</symbol>
<symbol id="lang-de" viewBox="0 0 30 30">
	<g opacity=".5">
		<mask id="lang-de-a" style="mask-type:alpha" width="30" height="30" x="0" y="0" maskUnits="userSpaceOnUse">
			<circle cx="15" cy="15" r="15" fill="#D9D9D9"/>
		</mask>
		<g mask="url(#lang-de-a)">
			<path fill="#000" d="M42.188 0H-8.438v30h50.626V0z"/>
			<path fill="#D00" d="M42.188 10H-8.438v20h50.626V10z"/>
			<path fill="#FFCE00" d="M42.188 20H-8.438v10h50.626V20z"/>
		</g>
	</g>
</symbol>
<symbol id="logo-iedn" viewBox="0 0 101 27">
	<path fill="#1D4365" d="M.276 27V.168h8.619V27H.276zM15.044.168H38.25v6.435H23.663v3.705h12.48v6.162h-12.48v4.095h14.86V27H15.043V.168zm39.768 0c9.386 0 14.079 4.472 14.079 13.416C68.89 22.528 64.198 27 54.81 27H43.19V.168h11.622zm-3.003 20.397h2.847c3.614 0 5.42-1.937 5.42-5.811v-2.34c0-3.874-1.806-5.811-5.42-5.811h-2.847v13.962zM92.732 27l-11.27-13.026V27h-7.918V.168h7.527l11.271 13.221V.168h7.917V27h-7.527z"/>
</symbol>
<symbol id="logo-vpn" viewBox="0 0 230 48">
	<path fill="#1D4365" d="M11.802 38L.258 10.7h9.906l9.399 23.048h-5.89L23.347 10.7h9.048L20.85 38h-9.048zM33.31 38V10.7h13.143c2.548 0 4.745.415 6.59 1.247 1.873.832 3.316 2.028 4.33 3.588 1.014 1.534 1.52 3.354 1.52 5.46s-.506 3.926-1.52 5.46c-1.014 1.534-2.457 2.73-4.33 3.588-1.845.832-4.042 1.248-6.59 1.248h-8.034l4.095-3.939V38H33.31zm9.204-9.634l-4.095-4.173h7.449c1.274 0 2.21-.286 2.808-.858.624-.572.936-1.352.936-2.34 0-.988-.312-1.768-.936-2.34-.598-.572-1.534-.858-2.808-.858h-7.45l4.096-4.173v14.742zM61.912 38V10.7h7.566l13.884 16.613h-3.51V10.7h8.97V38h-7.566L67.372 21.385h3.51V38h-8.97zM96.962 38.39c-1.456 0-2.678-.469-3.666-1.405-.988-.962-1.482-2.184-1.482-3.666 0-1.508.494-2.717 1.482-3.627.988-.91 2.21-1.365 3.666-1.365s2.678.455 3.666 1.365c.988.91 1.482 2.12 1.482 3.627 0 1.482-.494 2.704-1.482 3.666-.988.936-2.21 1.404-3.666 1.404zM114.999 38.114c-1.013 0-1.95-.165-2.812-.494a6.91 6.91 0 01-2.223-1.425 6.675 6.675 0 01-1.463-2.147c-.342-.823-.513-1.723-.513-2.698 0-.975.171-1.875.513-2.698a6.527 6.527 0 011.482-2.147 6.657 6.657 0 012.223-1.406c.862-.342 1.799-.513 2.812-.513 1.014 0 1.938.158 2.774.475a5.522 5.522 0 012.166 1.444l-.874.893c-.557-.557-1.171-.956-1.843-1.197a6.37 6.37 0 00-2.166-.361c-.823 0-1.583.14-2.28.418a5.324 5.324 0 00-1.805 1.159 5.458 5.458 0 00-1.197 1.748c-.278.659-.418 1.387-.418 2.185 0 .785.14 1.514.418 2.185.292.671.691 1.26 1.197 1.767.52.494 1.121.88 1.805 1.159a6.29 6.29 0 002.261.399 6.63 6.63 0 002.147-.342 4.998 4.998 0 001.881-1.16l.798 1.065a6.529 6.529 0 01-2.223 1.273 8.466 8.466 0 01-2.66.418zm3.534-1.862V31.35h1.349v5.073l-1.349-.171zM125.116 30.647h7.03v1.197h-7.03v-1.197zm.152 6.137h7.999V38h-9.405V24.7h9.12v1.216h-7.714v10.868zM136.572 38V24.7h1.159l9.177 11.552h-.608V24.7h1.387V38h-1.159l-9.158-11.552h.608V38h-1.406zM153.282 30.647h7.03v1.197h-7.03v-1.197zm.152 6.137h7.999V38h-9.405V24.7h9.12v1.216h-7.714v10.868zM164.738 38V24.7h4.978c1.127 0 2.096.184 2.907.55.81.356 1.431.875 1.862 1.559.443.671.665 1.488.665 2.45 0 .938-.222 1.749-.665 2.433-.431.671-1.052 1.19-1.862 1.558-.811.355-1.78.532-2.907.532h-4.199l.627-.646V38h-1.406zm9.082 0l-3.42-4.826h1.52L175.359 38h-1.539zm-7.676-4.75l-.627-.665h4.161c1.33 0 2.337-.291 3.021-.874.696-.583 1.045-1.4 1.045-2.451 0-1.064-.349-1.887-1.045-2.47-.684-.583-1.691-.874-3.021-.874h-4.161l.627-.665v7.999zM176.34 38l6.08-13.3h1.387l6.08 13.3h-1.482l-5.586-12.483h.57L177.803 38h-1.463zm2.394-3.553l.418-1.14h7.733l.418 1.14h-8.569zM194.003 38V25.916h-4.674V24.7h10.754v1.216h-4.674V38h-1.406zM207.958 38.114a7.751 7.751 0 01-2.793-.494 6.889 6.889 0 01-2.223-1.425 6.928 6.928 0 01-1.463-2.147c-.342-.823-.513-1.723-.513-2.698 0-.975.171-1.868.513-2.68a6.645 6.645 0 011.463-2.146 6.493 6.493 0 012.223-1.425c.848-.342 1.779-.513 2.793-.513 1 0 1.925.17 2.774.513.848.33 1.583.798 2.204 1.406a6.288 6.288 0 011.463 2.147c.354.823.532 1.723.532 2.698 0 .975-.178 1.875-.532 2.698a6.287 6.287 0 01-1.463 2.147 6.688 6.688 0 01-2.204 1.425c-.849.33-1.774.494-2.774.494zm0-1.254c.798 0 1.532-.133 2.204-.4a5.288 5.288 0 001.767-1.158 5.472 5.472 0 001.178-1.748 5.705 5.705 0 00.418-2.204c0-.798-.14-1.526-.418-2.185a5.208 5.208 0 00-1.178-1.748 4.931 4.931 0 00-1.767-1.16 5.697 5.697 0 00-2.204-.417c-.798 0-1.539.14-2.223.418a5.114 5.114 0 00-1.786 1.159 5.588 5.588 0 00-1.178 1.748c-.279.659-.418 1.387-.418 2.185 0 .785.139 1.514.418 2.185.291.671.684 1.26 1.178 1.767.506.494 1.102.88 1.786 1.159a6.08 6.08 0 002.223.399zM218.082 38V24.7h4.978c1.128 0 2.097.184 2.907.55.811.356 1.432.875 1.862 1.559.444.671.665 1.488.665 2.45 0 .938-.221 1.749-.665 2.433-.43.671-1.051 1.19-1.862 1.558-.81.355-1.779.532-2.907.532h-4.199l.627-.646V38h-1.406zm9.082 0l-3.42-4.826h1.52L228.703 38h-1.539zm-7.676-4.75l-.627-.665h4.161c1.33 0 2.337-.291 3.021-.874.697-.583 1.045-1.4 1.045-2.451 0-1.064-.348-1.887-1.045-2.47-.684-.583-1.691-.874-3.021-.874h-4.161l.627-.665v7.999z"/>
</symbol>
</svg>