<svg xmlns="http://www.w3.org/2000/svg" width="327" height="86" fill="none" viewBox="0 0 327 86">
  <path stroke="#323232" stroke-width="6.815"
        d="M8.521 42.57v19.846c0 .089.087.153.172.132 11.259-2.699 14.594-.277 16.185 9.485.01.066.068.117.135.117h143.138"/>
  <path stroke="#FFF293"
        d="M15.2 42v11.936c0 .661.632 1.138 1.282 1.02 7.105-1.285 12.177 3.557 13.95 9.531.13.442.528.757.988.757h136.587"/>
  <ellipse cx="15.12" cy="70.127" fill="#FFF293" rx="2.892" ry="2.924"/>
  <path fill="#FFF293"
        d="M5.673 66.766c.715 1.96 4.66.901 6.542.127-1.135 2.037-4.49 5.8-8.832 4.548-5.427-1.564 1.396-7.125 2.29-4.675ZM22.198 76.512c-2.054.224-2.87-3.819-3.02-5.868-1.3 1.933-3.142 6.645-.103 10.021 3.798 4.22 5.691-4.432 3.123-4.153ZM9.716 77.015l.253.098c.485.185.924.33 1.32.437.602.104.687-.212-.533-1.624-2.498-2.89-3.731-.84-2.005 1.189 1.727 2.028 8.882 5.695 5.803-3.651 2.317 4.17 2.764 14.536-6.225 8.498-9.524-6.397-.946-10.595 1.102-9.743 4.858 2.02 6.987 6.728 1.859 5.331-.33-.057-.813-.24-1.321-.437a19.22 19.22 0 0 1-.253-.098Z"/>
  <path stroke="#FFF293" d="M2.887 64.644V42M24.69 78.89h144.132"/>
  <path stroke="#323232" stroke-width="6.815"
        d="M8.525 43.43V23.584c0-.089.086-.153.172-.132 11.259 2.699 14.594.277 16.185-9.485a.139.139 0 0 1 .135-.117h143.138"/>
  <path stroke="#FFF293"
        d="M15.201 44V32.064c0-.661.633-1.138 1.283-1.02 7.104 1.285 12.177-3.557 13.95-9.531.13-.442.528-.757.988-.757h136.586"/>
  <ellipse cx="2.892" cy="2.924" fill="#FFF293" rx="2.892" ry="2.924" transform="matrix(1 0 0 -1 12.234 18.8)"/>
  <path fill="#FFF293"
        d="M5.677 19.234c.715-1.96 4.66-.901 6.542-.127-1.135-2.037-4.49-5.8-8.832-4.548-5.427 1.564 1.396 7.125 2.29 4.675ZM22.204 9.492c-2.054-.224-2.87 3.819-3.02 5.868-1.3-1.934-3.142-6.645-.103-10.021 3.798-4.22 5.691 4.432 3.123 4.153ZM9.718 8.985l.252-.098c.486-.185.925-.33 1.321-.437.602-.104.687.212-.533 1.624-2.498 2.89-3.732.84-2.005-1.189 1.726-2.028 8.882-5.695 5.803 3.651C16.873 8.366 17.32-2 8.33 4.038c-9.524 6.397-.946 10.595 1.102 9.743 4.858-2.02 6.987-6.728 1.858-5.331-.329.057-.812.24-1.32.437a19.38 19.38 0 0 0-.253.098Z"/>
  <path stroke="#FFF293" d="M2.892 21.356V44M24.693 7.113h144.131"/>
  <path stroke="#323232" stroke-width="6.815"
        d="M319.129 42.57v19.846a.139.139 0 0 1-.172.132c-11.259-2.699-14.594-.277-16.185 9.485a.139.139 0 0 1-.135.117H159.5"/>
  <path stroke="#FFF293"
        d="M312.451 42v11.936c0 .661-.632 1.138-1.282 1.02-7.105-1.285-12.177 3.557-13.95 9.531a1.042 1.042 0 0 1-.989.757H159.644"/>
  <ellipse cx="2.892" cy="2.924" fill="#FFF293" rx="2.892" ry="2.924" transform="matrix(-1 0 0 1 315.422 67.203)"/>
  <path fill="#FFF293"
        d="M321.977 66.766c-.715 1.96-4.659.901-6.541.127 1.135 2.037 4.49 5.8 8.831 4.548 5.428-1.564-1.396-7.125-2.29-4.675ZM305.452 76.512c2.054.224 2.87-3.819 3.021-5.868 1.3 1.933 3.141 6.645.103 10.021-3.799 4.22-5.692-4.432-3.124-4.153ZM317.934 77.015l-.252.098c-.485.185-.925.33-1.321.437-.601.104-.687-.212.533-1.624 2.499-2.89 3.732-.84 2.005 1.189-1.726 2.028-8.881 5.695-5.802-3.651-2.318 4.17-2.765 14.536 6.225 8.498 9.523-6.397.945-10.595-1.103-9.743-4.857 2.02-6.986 6.728-1.858 5.331.329-.057.813-.24 1.321-.437.083-.031.167-.064.252-.098Z"/>
  <path stroke="#FFF293" d="M324.764 64.644V42M302.958 78.89H158.826"/>
  <path stroke="#323232" stroke-width="6.815"
        d="M319.125 43.43V23.584a.139.139 0 0 0-.172-.132c-11.258 2.699-14.594.277-16.185-9.485a.138.138 0 0 0-.135-.117H159.496"/>
  <path stroke="#FFF293"
        d="M312.449 44V32.064c0-.661-.632-1.138-1.282-1.02-7.105 1.285-12.177-3.557-13.95-9.531a1.042 1.042 0 0 0-.989-.757H159.642"/>
  <ellipse cx="312.524" cy="15.877" fill="#FFF293" rx="2.892" ry="2.924" transform="rotate(180 312.524 15.877)"/>
  <path fill="#FFF293"
        d="M321.973 19.234c-.715-1.96-4.659-.901-6.541-.127 1.135-2.037 4.49-5.8 8.832-4.548 5.427 1.564-1.397 7.125-2.291 4.675ZM305.446 9.492c2.054-.224 2.87 3.819 3.021 5.868 1.3-1.934 3.141-6.645.103-10.021-3.799-4.22-5.692 4.432-3.124 4.153ZM317.932 8.985l-.252-.098c-.485-.185-.925-.33-1.321-.437-.601-.104-.687.212.533 1.624 2.499 2.89 3.732.84 2.005-1.189-1.726-2.028-8.881-5.695-5.802 3.651-2.318-4.17-2.765-14.536 6.225-8.498 9.523 6.397.945 10.595-1.103 9.743-4.857-2.02-6.986-6.728-1.858-5.331.329.057.813.24 1.321.437.083.031.167.064.252.098Z"/>
  <path stroke="#FFF293" d="M324.758 21.356V44M302.956 7.113H158.824"/>
</svg>
