<svg xmlns="http://www.w3.org/2000/svg" width="325" height="289" fill="none" viewBox="0 0 325 289">
  <g fill="#FFF293" clip-path="url(#a)">
    <path fill-rule="evenodd"
          d="M.357 1.224C-.069 2.4.688 5.287 1.62 6.033c.84.673.907 1.03.479 2.581-.574 2.08.048 2.957 1.64 2.314 1.902-.767 5.04-.513 6.263.506l1.17.975-3.065.017c-3.533.02-5.333.574-5.797 1.786-.515 1.34-.023 1.398 2.304.271 3.327-1.612 7.103-1.14 9.26 1.16l1.142 1.217-2.488-.946c-2.822-1.074-5.213-.905-8.169.577-1.831.918-2.23 1.84-1.557 3.598.417 1.088.778 1 2.92-.703 1.577-1.255 2.305-1.487 4.65-1.486 1.929.001 3.291.314 4.447 1.019 2.191 1.337 1.712 1.682-1.409 1.012-1.394-.3-3.065-.545-3.711-.545-1.182 0-4.225 2.175-4.225 3.02 0 .863 1.54.445 2.625-.713.6-.641 1.748-1.288 2.551-1.438 1.394-.26 1.351-.177-.932 1.806-2.515 2.183-2.742 3.337-.951 4.825.652.541.89.493 1.47-.301.38-.521.57-1.327.423-1.791-.676-2.134 4.643-3.856 6.965-2.255.538.37 1.829.95 2.869 1.29 1.04.339 2.6 1.27 3.468 2.07l2.938 2.708c1.358 1.252 2.354 1.238 2.354-.03 0-.37-.669-1.235-1.486-1.924-.818-.688-1.486-1.392-1.486-1.563 0-.172-.67-.876-1.487-1.564-1.18-.995-1.486-1.648-1.486-3.175 0-1.414-.262-2.062-.99-2.453-2.237-1.198-.165-6.444 2.743-6.945 2.014-.347 2.358-2.297.489-2.767-1.455-.366-2.78.566-4.293 3.017l-.918 1.488-.002-1.347c0-.791.612-2.046 1.485-3.041 2.043-2.33 2.03-3.395-.027-2.293-1.845.988-2.603 3.344-2.262 7.024.346 3.718-.206 4.449-1.1 1.459-.95-3.172-.713-5.943.716-8.384 1.144-1.954 1.207-2.29.553-2.944-1.682-1.684-4.816 2.557-4.816 6.516 0 .925.422 3.04.939 4.701.79 2.542.825 3.02.218 3.02-.396 0-.597-.2-.447-.443.15-.244-.307-1.715-1.018-3.27-1.615-3.531-1.713-6.952-.27-9.402.62-1.05.829-1.856.531-2.04-1.543-.955-3.21 3.554-2.71 7.331.173 1.303.213 2.369.09 2.369-.124 0-.69-.752-1.256-1.67-1.134-1.838-1.35-4.775-.458-6.207.845-1.355.225-2.52-1.162-2.182-.63.154-1.518.602-1.974.996-.74.64-.906.569-1.546-.654C5.213 1.065 4.763.845 2.832.763 1.519.708.474.903.357 1.223Zm36.832.908c-.532.875-1.103 2.212-1.27 2.97-.365 1.664-1.032 2.16-1.918 1.423-.362-.3-.967-.429-1.344-.284-.401.154-.89-.203-1.178-.859-.594-1.356-3.712-1.937-3.712-.692 0 .408.468.891 1.04 1.073.887.282.994.594.734 2.14-.168.997-.44 3.776-.606 6.176-.292 4.232-.252 4.461 1.336 7.592 2.577 5.083 6.568 7.634 11.943 7.634 3.639 0 6.347-1.286 8.078-3.836.69-1.017 1.255-2.506 1.255-3.309V20.7l1.115 1.012c2.032 1.842 2.94 2.115 4.443 1.338.944-.489 1.378-1.1 1.378-1.941 0-1.405-.789-1.562-2.35-.467-1.293.907-1.715.558-4.745-3.926-3.407-5.04-8.623-6.406-10.51-2.75-1.688 3.266-.258 6.412 2.913 6.412 2.299 0 3.665-1.525 2.891-3.226-.709-1.558-2.566-1.706-2.566-.205 0 1.167-.901 1.067-1.692-.188-.856-1.357 1.148-3.027 3.114-2.594 2.426.533 3.532 2.362 3.532 5.843 0 2.785-.118 3.084-1.923 4.892-1.786 1.788-2.127 1.925-4.756 1.925-3.514 0-5.59-.957-7.193-3.315-1.018-1.499-1.238-2.416-1.236-5.155.002-3.687.955-5.416 2.986-5.416 1.562 0 2.528-1.255 1.718-2.232-.34-.41-.897-.744-1.238-.744-.342 0-.878-.309-1.191-.686-.73-.881.214-1.298 3.91-1.726 2.042-.238 2.76-.532 2.885-1.185.227-1.188-1.224-1.644-3.044-.957-1.92.727-2.251.381-.985-1.028 1.438-1.599 1.687-2.163 1.346-3.053-.503-1.31-2.126-.898-3.16.804Zm7.217-1.075c-1.316.394-2.245 1.225-2.265 2.025-.003.172.96.202 2.14.07 1.45-.164 2.673.03 3.766.595 1.644.851 1.777 1.5.786 3.86-.289.687-.116.868.828.868.656 0 1.46-.268 1.787-.595.724-.725.776-3.098.095-4.373-.462-.864-.386-.895.991-.415 1.565.546 3.472 2.774 3.472 4.055 0 .413-.39 1.45-.867 2.305-.839 1.501-.835 1.576.124 2.295.958.719 1.508.712 3.344-.045 1.334-.55 1.172 2.584-.21 4.057l-1.078 1.147h1.785c2.017 0 3.541-1.487 4.09-3.99.177-.806.645-1.465 1.041-1.465 1.427 0 1.31-1.536-.263-3.497-.865-1.077-1.389-1.959-1.164-1.959.578 0 2.746 1.545 3.45 2.457.852 1.106 1.388 5.927.732 6.584-.723.724.147 2.3 1.557 2.823 2.43.9 4.3-1.543 3.53-4.614-.531-2.122.943-1.119 2.324 1.58.851 1.663 1.448 2.285 2.09 2.175.675-.117.869.128.784.991-.15 1.527.473 2.883 1.325 2.883.459 0 .69-.583.69-1.736 0-1.99.265-2.089 1.982-.744.697.546 2.02.975 3.024.981 3.488.021 5.806-4.025 3.501-6.111-1.414-1.282-2.066-.993-2.066.915 0 1.688-.052 1.735-1.943 1.735-1.496 0-2.72-.53-5.326-2.304C64.512 4.108 60.302 1.804 55.51 1.052c-3.826-.6-9.09-.598-11.104.005Zm32.903.627c0 .416.279.858.62.982.465.17.484.456.072 1.157-.401.685-1.233.972-3.13 1.084-2.19.128-3.07-.117-5.787-1.612-3.266-1.798-4.89-2.221-4.546-1.186.263.79 8.509 5.725 10.73 6.422.986.31 4.272.67 7.303.801 5.334.23 5.535.201 6.316-.916.444-.634.808-1.875.808-2.756 0-1.747-.904-4.128-1.567-4.128-.228 0-.557-.056-.732-.124-.174-.068-.387.541-.473 1.355-.087.812-.558 1.773-1.046 2.133-.803.592-.905.497-1.053-.98-.186-1.845-.864-2.88-1.888-2.88-.494 0-.601.36-.376 1.26.215.857.035 1.57-.562 2.231-1.223 1.353-1.736 1.213-1.443-.392.312-1.711-.163-2.432-1.889-2.866-1.035-.26-1.357-.161-1.357.415Zm26.877 2.213-10.528.134v1.131c0 .622.267 1.399.594 1.726.774.774 135.911.874 136.389.101.622-1.007.678-2.538.101-2.741-.692-.244-110.93-.55-126.556-.35ZM59.206 6.74c.182.818.707 2.715 1.166 4.216l.836 2.727.15-2.342c.121-1.887-.106-2.708-1.166-4.216-1.31-1.864-1.315-1.865-.986-.385Zm-28.302 3.594c-1.028 2.462-.674 7.972.635 9.905l.934 1.38.272-3.968c.149-2.182.526-4.431.839-4.999.458-.831.383-1.334-.388-2.603-.526-.865-1.082-1.573-1.236-1.573-.154 0-.63.836-1.056 1.858Zm61.943 1.364c-.157.41-.157 1.081 0 1.491.253.66 8.316.732 69.783.62l69.498-.126v-2.48l-69.498-.125c-61.467-.111-69.53-.04-69.783.62Zm-72.979 8.628c-.438.819-.359 1.098.429 1.52.53.284 1.09.517 1.244.517.581 0 .252-1.887-.428-2.451-.566-.47-.816-.388-1.245.414Zm-16.542 8.32c-.74.74-.236 2.045 1.404 3.636 2.532 2.457 2.331 3.627-.757 4.42-3.876.994-5.187 2.972-2.716 4.1 1.084.494 1.388.395 2.505-.81 1.478-1.597 1.945-1.447 1.243.4-.571 1.505-.224 2.801.751 2.801 1.004 0 1.698-1.65 1.706-4.059.004-1.177.202-2.448.44-2.824.548-.866 1.534-.288 1.534.9 0 1.165 1.261 2.208 2.223 1.838.412-.158.75-.751.75-1.317 0-.567.547-1.578 1.216-2.248 1.028-1.03 1.687-1.217 4.276-1.217 3.754 0 5.873 1.158 7.64 4.178 1.495 2.553 1.56 4.564.238 7.379-1.26 2.684-3.145 3.817-6.35 3.817-3.245 0-5.534-1.736-5.534-4.198 0-1.796 1.057-3.016 2.223-2.568.968.372.973 1.311.006 1.311-1.053 0-.922 1.668.212 2.696 1.207 1.093 2.673.668 3.429-.993.821-1.804.708-2.856-.44-4.09-1.55-1.666-4.602-1.494-6.459.365-2.756 2.76-1.665 5.538 3.828 9.75 3.99 3.06 4.476 3.83 3.424 5.439-.654.999-.651 1.157.024 1.416.948.364 2.454-.408 2.86-1.467.56-1.46.318-2.386-.978-3.74l-1.284-1.342 1.569-.345c2.098-.461 4.91-3.009 6.02-5.453 1.327-2.924 1.17-5.929-.493-9.449-3.03-6.41-8.817-8.922-17.664-7.665-3.763.535-4.354.513-5.134-.194-.977-.885-1.227-.953-1.712-.468Zm26.422 2.119c0 .802.237 1.605.526 1.783.334.207.214.553-.329.95-.507.371-.727.952-.543 1.434.278.725.5.698 2.12-.26 2.613-1.543 4.762-5.366 3.017-5.366-.363 0-.958.558-1.323 1.24-.364.682-.96 1.24-1.322 1.24-.373 0-.66-.539-.66-1.24 0-.772-.28-1.24-.742-1.24-.492 0-.744.493-.744 1.459Zm-18.64.08c-2.315.66-3.013 1.715-1.928 2.916.81.896.976.91 2.344.202.81-.42 3.29-.918 5.513-1.108l4.042-.346-2.23-.823c-2.912-1.075-5.815-1.39-7.74-.841Zm22.728 3.724c-3.05 3.103-3.718 4.449-2.455 4.934.414.159.57.86.441 1.969-.152 1.31-.017 1.721.568 1.721.978 0 1.155-.311 1.533-2.699.38-2.398.45-2.472 1.696-1.805 1.484.796 2.02.664 2.613-.641.385-.844.384-1.461-.001-2.182-.62-1.16.051-1.6 2.44-1.6 1.746 0 3.035-1.792 1.667-2.318-.457-.175-1.195-.09-1.64.188-.582.364-.987.316-1.44-.17-1.101-1.18-2.244-.63-5.422 2.603Zm1.475.817c-.85.905-.964 1.302-.506 1.76.325.325.993.591 1.483.591.926 0 1.107-1.012.47-2.628-.324-.822-.436-.801-1.447.277Zm-34.287 8.78C-1.008 48.15.116 56.825 3.53 63.525c1.748 3.43 4.923 8.508 10.24 16.38 2.907 4.303 2.755 6.122-.545 6.515l-1.412.167 1.076 1.364c1.37 1.735 3.157 1.767 4.714.085 2.216-2.394 2.085-4.806-.411-7.547l-1.037-1.14 2.09.335c1.906.305 2.09.242 2.09-.72 0-.802-.305-1.056-1.271-1.056-.803 0-1.73-.547-2.521-1.488-.688-.818-1.53-1.488-1.873-1.488-.342 0-1.026-.446-1.52-.992-.88-.974-.865-.991.915-.991 3.33 0 5.145-3.554 2.65-5.19-.93-.61-1.426-.641-2.68-.168-2.791 1.056-7.476-1.252-8.205-4.041-.207-.793.068-.714 1.754.509 2.339 1.696 3.615 1.843 3.977.458.157-.602.675-.992 1.318-.992 1.452 0 3.492-2.16 3.492-3.697 0-1.389-1.013-1.687-1.939-.57-.54.652-2.459.555-2.571-.13-.029-.173-.105-1.16-.17-2.194-.165-2.673-.825-3.106-2.443-1.605-.743.689-1.807 1.253-2.365 1.253-1.332 0-4.384-3.08-4.384-4.425 0-1.009.053-1.02 1.235-.244 1.663 1.091 3.608.575 4.02-1.065.37-1.483-.077-2.127-.903-1.3-.918.919-2.096.695-3.346-.637-1.006-1.073-1.113-1.562-.865-3.968.157-1.52.083-2.744-.166-2.744-.248 0-.9.884-1.451 1.964Zm5.44 16.138c.933.994 1.642 1.24 3.583 1.24 1.487 0 2.302-.191 2.114-.496-.168-.273-.823-.496-1.455-.496-.632 0-1.949-.335-2.927-.744-2.446-1.023-2.663-.941-1.315.496Zm-5.155 4.635c-.492.797.223 3.074 1.306 4.159 3.165 3.168 3.066 11.012-.117 9.307-1.28-.686-1.484-.629-1.484.42 0 1.2 1.532 2.557 2.888 2.557 1.244 0 1.39.609.353 1.47-.442.368-1.309.473-2.23.27-.829-.182-1.506-.135-1.506.105 0 .86 1.213 1.627 2.576 1.627.848 0 1.387.265 1.387.683 0 1.038-1.358 1.946-2.475 1.653-1.438-.376-1.254.858.312 2.091 2.312 1.82 5.693 1.003 6.597-1.594.829-2.38.606-6.911-.52-10.593-1.72-5.625-6.285-13.455-7.087-12.155Zm9.613 79.464v51.614l1.115-.158 1.115-.159.126-51.455.126-51.456h-2.482v51.614Zm300.843-.158.126 51.455 1.115.159 1.114.158V91.788h-2.481l.126 52.456Zm-308.274-.186v49.905h3.376l.217-2.851c.323-4.24.17-95.715-.161-96.046-.156-.156-.992-.426-1.858-.6l-1.574-.314v49.906Zm315.537-50.46c-.667.183-.84 1.541-1.113 8.75-.413 10.908-.428 88.009-.017 90.066.273 1.368.505 1.549 1.984 1.549h1.675l-.127-49.712c-.135-53.301.009-51.316-2.402-50.653ZM3.987 198.338c-1.433.65-3.468 2.191-3.468 2.626 0 .241.641.439 1.425.439s1.685.312 2.001.694c.464.56.22.871-1.257 1.612-2.33 1.167-2.398 1.851-.188 1.884 1.385.021 1.734.222 1.734 1 0 .745-.345.978-1.472.991-1.148.014-1.577.316-1.95 1.372-.583 1.652-.21 2.125 1.115 1.416 1.48-.793 2.488-.161 2.853 1.79.412 2.195-.372 4.836-2.266 7.634-1.472 2.174-1.931 3.925-1.03 3.925 1.264 0 5.709-7.992 7.154-12.862.439-1.481.798-4.448.798-6.593 0-3.48-.131-4.032-1.216-5.117-1.188-1.19-2.742-1.488-4.233-.811Zm313.244.325c-3.129 2.253-2.216 11.108 1.962 19.031 1.754 3.326 3.711 6.027 4.366 6.027.917 0 .45-1.815-.963-3.746-3.446-4.707-3.127-11.557.448-9.642 1.215.651 1.621-.062.987-1.732-.4-1.055-.772-1.285-1.861-1.158-1.084.127-1.361-.043-1.361-.833 0-.789.328-.991 1.61-.987 2.173.007 2.083-1.097-.165-2.037-1.467-.614-1.671-.868-1.178-1.463.329-.396 1.232-.72 2.007-.72 1.649 0 1.529-.782-.327-2.141-1.763-1.291-4.198-1.555-5.525-.599Zm-304.203 1.313c-.34.349-.62 1.059-.62 1.58 0 .753.245.885 1.201.645 1.033-.26 1.278-.065 1.76 1.399.547 1.658.45 1.873-3.816 8.308-5.438 8.206-8.66 13.728-10.074 17.268-1.49 3.732-1.7 13.911-.33 16.013 1.328 2.034 1.805 1.63 1.505-1.275-.241-2.339-.125-2.793 1.086-4.233 1.288-1.534 1.414-1.576 2.518-.852 1.5.984 1.692.961 1.692-.201 0-1.026-1.726-2.508-2.92-2.508-.395 0-1.125.369-1.624.821-1.796 1.627-.754-1.498 1.224-3.673 1.261-1.386 3.366-1.443 4.558-.124 1.547 1.71 2.23 1.254 2.23-1.488 0-1.622.214-2.499.62-2.537 1.235-.114 2.61.153 3.07.596.957.921 1.386.405 1.105-1.327-.403-2.485-1.145-3.179-3.403-3.179-1.729 0-1.918-.115-1.64-.992.481-1.517-1.167-1.266-3.64.555-1.157.852-2.206 1.446-2.331 1.32-.344-.345 2.59-4.234 3.603-4.776 1.168-.626 4.024-.803 5.666-.352 1.891.519 3.39-.436 3.39-2.159 0-2.346-2.37-3.381-5.357-2.34-1.046.365-1.092.315-.536-.578.336-.538 1.23-1.345 1.989-1.793.757-.448 2.016-1.454 2.797-2.235.78-.782 1.832-1.501 2.336-1.599.505-.098 1.016-.472 1.136-.83.165-.498-.208-.572-1.57-.317-2.1.395-2.156.134-.534-2.503 1.515-2.462 1.542-3.795.11-5.444-1.29-1.486-4.249-2.163-5.201-1.19Zm295.324-.065c-1.333.539-2.656 2.391-2.648 3.71.004.553.561 1.977 1.239 3.164.677 1.187 1.232 2.272 1.232 2.411 0 .139-.803.101-1.786-.083-1.345-.252-1.733-.178-1.573.303.117.351.642.757 1.167.902.524.145 1.696.932 2.604 1.749 5.546 4.995 5.365 4.798 4.047 4.386-3.17-.991-5.45-.008-5.45 2.352 0 1.723 1.5 2.678 3.391 2.159 3.446-.947 6.792.481 8.652 3.691 1.113 1.923.645 1.935-1.851.044-2.317-1.755-3.979-1.984-3.503-.482.279.879.089.992-1.673.992-2.273 0-3.529 1.275-3.529 3.582 0 1.411.43 1.726 1.263.924.828-.797 3.95-.863 3.462-.073-.48.777.313 4.494.959 4.494.331 0 1.006-.446 1.499-.992 1.193-1.319 3.298-1.262 4.559.124 1.978 2.175 3.02 5.3 1.223 3.673-1.074-.973-1.6-1.013-3.281-.245-.829.378-1.262.973-1.262 1.736 0 1.367.157 1.404 1.692.397 1.104-.724 1.229-.682 2.518.852 1.214 1.445 1.328 1.89 1.082 4.264-.306 2.976.367 3.311 1.644.817 1.207-2.358.912-12.096-.472-15.586-1.415-3.565-4.661-9.113-10.103-17.271-4.112-6.163-4.378-6.716-3.948-8.184.389-1.323.675-1.551 1.795-1.431 1.016.108 1.333-.075 1.333-.769 0-1.88-1.872-2.584-4.282-1.61Zm-20.984 23.81c-1.877 1.878-.942 4.96 1.503 4.96 1.632 0 1.947-.939.726-2.161-1.328-1.33-.916-2.303.973-2.303 1.427 0 1.928.312 2.973 1.851 1.005 1.481 1.256 2.455 1.256 4.877 0 1.664-.133 3.158-.294 3.321-.162.162-.999-.135-1.858-.66-.86-.525-1.842-.955-2.183-.956-1.159-.003-.624 1.458.804 2.197 2.023 1.048 2.235 2.523.755 5.248-1.359 2.498-3.335 3.96-5.352 3.96-.97 0-1.709-.588-3.004-2.393-2.24-3.121-3.684-3.798-6.017-2.822l-1.751.732.34-1.551c.329-1.501.294-1.542-1.101-1.263-1.985.397-3.052-.28-2.151-1.365.503-.608.526-.942.092-1.377-.435-.435-.574-.434-.574.006 0 .318-.334.45-.743.294-.523-.202-.743.04-.743.817 0 1.132 3.395 4.955 4.4 4.955.305 0 .554.223.554.496a.497.497 0 0 1-.495.495c-.653 0-.633 1.646.038 3.077.293.626 1.762 2 3.265 3.053 1.976 1.383 2.583 2.063 2.192 2.455-.298.298-.541 1.029-.541 1.624 0 .635-.822 1.826-1.983 2.877-3.077 2.782-6.444 2.409-7.599-.842-.176-.495-.544-.761-.819-.59-.835.516-.557 2.522.48 3.463 1.451 1.314.801 1.746-2.618 1.744-3.482-.002-5.933-1.156-6.882-3.241-.49-1.078-.423-1.413.455-2.293l1.03-1.031.85 1.3c1.024 1.564 1.553 1.64 1.983.283.44-1.388-.984-3.447-2.386-3.447-2.053 0-3.319 1.344-3.319 3.524 0 4.683 2.798 6.647 8.962 6.29 5.212-.302 9.242-2.274 13.039-6.38 1.524-1.647 2.77-3.262 2.77-3.587 0-.326-1.025-1.137-2.279-1.803-4.42-2.348-6.278-5.15-4.558-6.872 1.584-1.586 3.903-.269 6.099 3.463 2.356 4.004 2.739 4.061 5.981.893 1.53-1.496 3.299-3.522 3.93-4.504 2.515-3.909 3.539-11.304 1.984-14.315-1.722-3.334-6.035-4.651-8.184-2.499ZM6.959 227.798c-1.605 1.015-1.65 1.11-.617 1.272 1.205.19 5.076-1.315 5.076-1.973 0-.803-2.77-.368-4.459.701Zm306.666-.701c0 .658 3.871 2.163 5.076 1.973 1.033-.162.987-.257-.617-1.272-1.689-1.069-4.459-1.504-4.459-.701Zm-294.033 3.071c-.168.273-.07.496.219.496.288 0 .524.66.524 1.465 0 1.028-.39 1.73-1.309 2.356-.72.49-2.727 2.246-4.459 3.903-2.728 2.61-3.15 3.251-3.15 4.798 0 2.572 2.008 4.837 4.289 4.837 2.463 0 3.524-.74 4.173-2.911.92-3.072-.537-4.762-3.219-3.731-.917.352-1.053 2.702-.205 3.551.837.838-.863 1.404-1.823.606-.85-.707-.97-3.094-.227-4.486.696-1.302 3.062-2.452 5.039-2.451 3.71.001 7.332 3.39 7.332 6.859 0 2.363-1.73 5.792-3.669 7.272-3.201 2.445-10.203 1.965-10.203-.699 0-.509-.42-1.444-.934-2.079-.8-.99-1.048-1.06-1.734-.49-.44.365-.8.927-.8 1.248 0 .32-.9 1.576-1.999 2.791-3.97 4.385-4.441 4.986-4.441 5.67 0 1.231 1.034 1.381 2.167.315.941-.885 1.354-.965 2.809-.548 3.01.864 9.077.594 12.103-.54 3.498-1.31 7.244-4.884 8.08-7.707.97-3.282.774-7.979-.413-9.902-1.16-1.879-3.44-3.414-5.82-3.918l-1.635-.346 1.243-1.154c1.864-1.729 2.19-3.671.807-4.792-1.245-1.009-2.28-1.165-2.745-.413Zm283.244.277c-1.521 1.066-1.379 2.841.369 4.59l1.469 1.471-2.307.582c-4.341 1.095-7.038 5.52-6.338 10.404 1.052 7.355 7.007 11.938 15.512 11.938 2.104 0 4.592-.22 5.53-.49 1.455-.417 1.868-.337 2.809.548 1.133 1.066 2.167.916 2.167-.315 0-.679-.558-1.396-4.24-5.447-.992-1.091-2.122-2.597-2.51-3.347-.389-.75-.911-1.364-1.161-1.364-.66 0-1.997 2.058-1.997 3.073 0 1.473-2.791 2.54-5.824 2.227-4.56-.472-8.009-4.258-8.037-8.822-.022-3.495 3.585-6.891 7.321-6.892 1.977-.001 4.343 1.149 5.039 2.451.867 1.622.617 3.902-.491 4.497-1.451.777-1.969.214-1.339-1.456.651-1.727-.131-3.014-1.833-3.014-2.226 0-2.928 2.242-1.543 4.924 1.314 2.543 4.505 2.812 6.745.57 2.562-2.565 1.676-5.522-2.761-9.213-4.506-3.749-5.164-4.51-4.87-5.637.152-.582.487-1.059.744-1.059s.329-.223.161-.496c-.438-.709-1.347-.613-2.615.277Zm-24.054 11.011c-.617 1.049 2.442 5.079 3.855 5.079.965 0 .975-.709.032-2.15-.919-1.404-3.597-3.422-3.887-2.929Zm13.182 4.002c-.308.19-.632 1.222-.72 2.294-.151 1.825-.27 1.958-1.895 2.12-2.904.291-3.093.462-2.887 2.619l.189 1.979h-2.09c-2.302 0-3.058.638-2.111 1.78.417.504 1.072.644 2.024.435.868-.191 1.407-.104 1.407.226 0 1.351 2.041.38 3.422-1.63.819-1.19 2.278-2.54 3.244-2.999 1.713-.813 2.259-1.906 1.261-2.523-.272-.169-.495-1.173-.495-2.232 0-2.017-.412-2.648-1.349-2.069Zm-287.383.68c-.816.817-.746 1.858.149 2.201.756.291 1.056 1.668.362 1.668-.209 0-1.19-.551-2.18-1.225-1.478-1.005-1.9-1.105-2.354-.559-.871 1.051-.153 2.084 2.095 3.016 2.954 1.223 4.319 1.743 4.577 1.743.336 0 .27-5.75-.076-6.654-.356-.929-1.734-1.03-2.573-.19Zm313.318.163c-.354.923-.428 6.681-.086 6.681.258 0 1.623-.52 4.576-1.743 2.249-.932 2.967-1.965 2.096-3.016-.453-.546-.876-.446-2.354.559-.99.674-1.971 1.225-2.18 1.225-.699 0-.392-1.123.486-1.776.684-.51.752-.835.321-1.543-.721-1.185-2.463-1.421-2.859-.387Zm-29.767 4.869c-.568.415-.804.992-.613 1.493.385 1.002.863 1.025 2.107.102.868-.645.888-.789.196-1.493-.654-.666-.9-.681-1.69-.102Zm-258.384 2.751c0 .517.351 1.074.78 1.239.705.271.706.374.011 1.069-.422.424-.94 1.06-1.151 1.416-.21.354-1.53 1.464-2.934 2.465-1.403 1.001-2.9 2.355-3.327 3.007-.427.653-1.508 1.344-2.403 1.538-.895.193-2.454.771-3.465 1.283-1.011.512-2.263.931-2.782.931-1.456 0-3.498-1.873-3.951-3.627-.524-2.022-2.1-2.17-2.614-.244-.297 1.112-.046 1.673 1.498 3.348 1.438 1.558 1.658 2.011.977 2.011-.483 0-1.555-.822-2.382-1.825-1.243-1.511-1.559-1.682-1.823-.992-.448 1.169.018 2.125 1.513 3.106 1.132.743 1.699.774 4.8.261 1.933-.32 3.616-.48 3.74-.357.593.594-2.629 1.911-5.259 2.15-2.765.251-3.075.169-4.837-1.285-2.026-1.672-3.143-1.974-3.143-.851 0 .386-.279.812-.62.945-.903.354 1.986 2.684 4.088 3.297 2.391.697 3.974.638 6.461-.241 2.12-.749 2.125-.747 1.227.245-1.928 2.133-8.42 2.75-10.199.97-.823-.824-1.165-.908-1.746-.426-.63.523-.615.72.112 1.524 1.395 1.543 4.14 2.014 6.895 1.183 1.323-.398 2.492-.637 2.598-.531.106.105-.713.792-1.82 1.525-1.644 1.09-2.354 1.275-3.885 1.015-4.06-.692-4.338-.641-4.506.826-.087.751.08 1.364.371 1.364 1.093 0 .516 2.013-.71 2.48-1.301.495-1.595 1.209-.72 1.751.359.221.348.529-.034.989-.408.493-.408.942.003 1.709.915 1.712 4.817.639 5.563-1.53.078-.226 1.118-.074 2.31.338 1.193.412 2.278.641 2.41.509.132-.133-.031-1.372-.363-2.756-.665-2.779-.457-4.152.893-5.885.892-1.143.9-1.119.869 2.59-.03 3.434.08 3.857 1.316 5.097 1.835 1.841 2.3 1.097.887-1.42-1.429-2.546-1.463-5.898-.09-9.003.963-2.18 2.628-3.981 1.866-2.018-.83 2.134-1.389 6.197-1.08 7.845.18.965.897 2.431 1.592 3.258 2.201 2.619 4.83 1.421 2.733-1.246-1.821-2.318-1.98-8.293-.279-10.474.631-.807.678-.424.406 3.303-.297 4.065-.262 4.265.993 5.614 1.286 1.382 3.019 1.643 3.019.454 0-.337-.189-.591-.418-.564-.508.058-3.298-2.561-3.298-3.097 0-.21 1.095.299 2.434 1.132 2.774 1.726 4.672 1.627 4.407-.231-.107-.747-.596-1.147-1.62-1.323-.95-.164-1.868-.847-2.601-1.936-1.31-1.945-1.411-3.092-.437-4.933.383-.724 1.055-2.337 1.494-3.584.465-1.325 1.415-2.725 2.281-3.366.816-.605 2.069-1.983 2.783-3.064.743-1.123 1.695-1.965 2.224-1.965.71 0 .93-.377.947-1.612l.022-1.612.98 1.86c1.162 2.202 1.949 2.397 1.949.483 0-1.732-1.128-3.372-2.978-4.33-1.832-.948-1.977-.933-1.977.198Zm263.215-.055c-1.801.866-3.559 4.329-2.657 5.233.598.598.588.607 1.979-1.653l1.068-1.736-.144 1.488c-.113 1.165.071 1.523.847 1.649.545.088 1.77 1.25 2.722 2.58s2.21 2.636 2.794 2.903c.625.285 1.417 1.471 1.921 2.876.472 1.315 1.185 3.136 1.584 4.045.399.91.6 2.157.446 2.771-.461 1.837-2.215 3.684-3.657 3.851-1.743.201-2.189 2.133-.608 2.635 1.297.412 6.451-2.559 6.418-3.7-.011-.42-.206-1.721-.432-2.892-.502-2.599.395-2.646 1.293-.066 1.107 3.18.562 7.43-1.217 9.492-.403.467-.601 1.192-.441 1.611.51 1.329 2.2.836 3.643-1.062 1.208-1.589 1.382-2.245 1.347-5.083-.026-2.072-.357-3.867-.908-4.926-.608-1.168-.677-1.604-.23-1.454.351.117 1.144 1.202 1.761 2.41 1.506 2.947 1.536 6.835.072 9.441-1.342 2.391-.823 3.071.97 1.272 1.241-1.246 1.343-1.647 1.286-5.07l-.062-3.716 1.177 1.596c1.323 1.795 1.438 3.274.468 5.996-.366 1.026-.499 1.969-.296 2.094.347.215 2.287-.245 4.012-.951.526-.215.956.07 1.324.878.532 1.17 3.027 1.997 4.424 1.466.934-.355 1.222-1.695.542-2.52-.501-.607-.502-.804-.009-.97 1.006-.339.711-1.108-.619-1.614-1.227-.467-1.803-2.48-.71-2.48.29 0 .457-.613.371-1.364-.168-1.462-.468-1.519-4.426-.836-1.925.332-4.166-.524-5.427-2.075-.626-.771-.612-.834.129-.557 3.051 1.144 4.83 1.344 6.617.746 2.21-.741 3.23-2.032 2.323-2.94-.477-.478-.82-.375-1.618.483-1.695 1.82-8.178 1.273-10.1-.853-.832-.919-.806-.925 1.04-.266 2.292.818 4.29.881 6.599.208 2.102-.613 4.991-2.943 4.087-3.297-.34-.133-.619-.559-.619-.945 0-1.114-1.134-.824-2.991.765-2.029 1.737-5.168 2.002-8.394.71-2.302-.922-2.688-1.945-.574-1.522 4.829.967 6.244.939 7.624-.149 1.306-1.03 1.801-2.657.966-3.174-.219-.134-1.008.522-1.756 1.459-.747.937-1.768 1.704-2.271 1.704-.746 0-.603-.338.787-1.857 2.045-2.235 2.191-4.727.292-4.997-.897-.127-1.114.08-1.114 1.064 0 1.538-2.528 4.302-3.934 4.302-.583 0-1.887-.419-2.898-.931-1.011-.512-2.559-1.087-3.441-1.278-.932-.201-2.026-.939-2.61-1.761-.554-.778-1.839-1.922-2.856-2.541-1.766-1.075-2.222-1.494-4.208-3.875-.759-.909-.775-1.085-.124-1.335.782-.3 1.02-1.452.378-1.829-.205-.119-1.087.127-1.96.547ZM9.416 255.5c-.87 1.625.492 2.442 4.068 2.442 2.751 0 6.851-1.182 6.851-1.975 0-.209-1.838-.501-4.087-.648-2.248-.147-4.57-.42-5.16-.605-.81-.255-1.218-.063-1.672.786Zm302.97-.534c-.545.235-2.496.442-4.335.462-1.839.018-3.344.233-3.344.476 0 .847 4.004 2.038 6.852 2.038 3.531 0 4.934-.821 4.093-2.395-.601-1.124-1.592-1.301-3.266-.581Zm-275.138 5.143c-6.198 2.246-9.696 10.435-8.118 19.01.403 2.193.338 2.785-.441 3.967-1.175 1.784-1.156 2.134.118 2.134.571 0 1.664-.67 2.428-1.488.763-.818 1.626-1.488 1.918-1.488.29 0 1.024-.67 1.628-1.488.604-.818 1.352-1.488 1.663-1.488.724 0 2.717-2.114 2.717-2.883 0-.324-.572-.588-1.27-.588-3.025 0-4.502-2.406-4.013-6.536.377-3.188 1.981-5.596 4.573-6.863 6.13-2.996 12.123 1.49 10.665 7.984-.589 2.621-1.926 3.991-3.999 4.094-1.806.091-2.846-.996-2.305-2.408.326-.85.368-.849.998.013.823 1.127 2.1.701 2.852-.95.93-2.042.27-2.774-2.503-2.774-1.985 0-2.614.214-3.235 1.103-1.26 1.799-.98 4.22.676 5.879 2.79 2.793 5.59 1.685 10.281-4.072 3-3.68 3.252-3.819 5.735-3.162 1.732.458 1.791-.355.146-2.002-1.595-1.597-2.998-1.538-4.735.2l-1.417 1.418-.341-2.026c-.427-2.527-2.75-4.967-5.443-5.715-2.517-.7-6.453-.641-8.578.129Zm241.638-.127c-2.567.727-4.911 3.328-5.245 5.82l-.271 2.029-1.375-1.473c-1.619-1.735-2.838-1.852-4.625-.444-1.795 1.413-1.762 2.671.057 2.191 2.482-.657 2.735-.518 5.734 3.162 4.532 5.559 7.488 6.837 9.998 4.324 1.685-1.687 2.031-3.52 1.051-5.576-.792-1.663-.884-1.705-3.411-1.56-2.29.132-2.616.287-2.76 1.307-.175 1.235 1.135 3.059 2.197 3.059.353 0 .861-.391 1.129-.868.449-.801.511-.804.806-.039.502 1.304-.619 2.891-2.042 2.891-1.726 0-4.005-2.41-4.432-4.685-.995-5.315 3.432-9.527 8.931-8.494 4.668.877 7.823 6.837 6.156 11.627-.612 1.756-1.736 2.544-3.631 2.544-.785 0-1.272.277-1.272.724 0 .77 1.874 2.747 2.603 2.747.239 0 .997.67 1.684 1.488.688.818 1.476 1.488 1.752 1.488.275 0 1.125.67 1.888 1.488.764.818 1.856 1.488 2.428 1.488 1.281 0 1.289-.19.075-1.88-.814-1.133-.895-1.695-.517-3.576 1.651-8.222-.916-15.754-6.405-18.793-2.441-1.352-7.531-1.831-10.503-.989Zm-258.179 6.447c-1.06.598-1.14 2.213-.129 2.602.493.189.838-.116 1.04-.918.43-1.717.13-2.272-.911-1.684Zm282.522.812c.004.477.191 1.158.415 1.511.556.878 1.787-.572 1.382-1.628-.398-1.038-1.806-.946-1.797.117Zm-271.607 1.08c-1.442 2.04-2.058 5.927-1.294 8.171 1.265 3.717 3.794 3.552 3.07-.199-.184-.955-.468-3.41-.63-5.456-.292-3.681-.304-3.707-1.146-2.516Zm260.518 2.898c-.17 2.108-.445 4.668-.612 5.689-.39 2.377.932 3.159 2.357 1.396 1.591-1.966.887-9.482-.997-10.647-.242-.15-.579 1.453-.748 3.562Zm-214.738-1.942c.093.555-.483 1.456-1.456 2.276-.885.746-1.61 1.615-1.612 1.932-.002.317-.568 1.245-1.26 2.064l-1.258 1.487.316-2.124c.578-3.892-2.107-5.92-4.672-3.528-.741.691-.996 1.317-.756 1.859.199.45.46 1.647.58 2.661.265 2.243-1.263 4.995-3.547 6.389-2.186 1.335-2.52 1.171-1.2-.589 1.701-2.269 2.876-4.123 2.88-4.544 0-.204-.555-.371-1.237-.371-1.076 0-1.238-.219-1.238-1.676 0-1.982-.764-2.733-3.176-3.125-1.575-.256-1.779-.168-1.779.768 0 .581.223 1.057.496 1.057.272 0 .495.532.495 1.183 0 1.025-.303 1.23-2.258 1.523-2.648.397-3.434 1.559-1.792 2.65 1.497.995 1.347 2.734-.41 4.736-1.66 1.893-3.803 2.835-3.188 1.403 1.186-2.764.7-4.676-1.323-5.205-.928-.244-.985-.106-.686 1.664.304 1.8.214 1.998-1.325 2.937-1.99 1.215-4.467 1.299-6.127.211-1.997-1.31-1.387-.034.781 1.633 2.618 2.014 5.128 2.345 10.631 1.401 5.595-.96 11.728-3.82 19.482-9.086 10.21-6.933 9.899-6.763 11.383-6.244 1.023.358 1.374.845 1.492 2.071.18 1.852.686 2.001 2.075.611 1.97-1.973.848-5.189-2.087-5.98-2.33-.628-3.526-.304-4.784 1.297-1.274 1.623-1.551 1.529-1.551-.525 0-1.423-.185-1.736-1.022-1.736-.72 0-.976.271-.867.92Zm168.298-.584c-.029.225-.012 1.022.037 1.772.116 1.762-.394 1.721-2.18-.173-1.303-1.382-1.653-1.505-3.466-1.217-2.497.396-3.207 1.073-3.587 3.419-.223 1.373-.074 2.085.588 2.818 1.295 1.432 2.135 1.206 2.312-.622.12-1.234.469-1.713 1.517-2.079 1.188-.416 1.756-.203 4.459 1.667 15.641 10.829 20.438 13.154 29.107 14.11 3.494.385 5.881-.199 8.12-1.988 2.017-1.611 2.438-2.712.567-1.485-1.708 1.12-4.527 1.009-6.291-.249-1.333-.949-1.442-1.234-1.148-2.976.372-2.206-.035-2.386-1.962-.868-1.33 1.047-1.403 1.679-.474 4.104.895 2.335-2.858-.409-4.246-3.104-.527-1.025-.438-1.336.737-2.564.735-.768 1.204-1.612 1.041-1.876-.163-.264-1.282-.627-2.487-.808-2.441-.366-3.233-1.432-2.044-2.748 1.348-1.491.946-2.157-1.102-1.829-2.094.335-3.592 1.84-3.592 3.607 0 .854-.277 1.185-.991 1.185-1.493 0-1.205 1.127 1.002 3.923 1.097 1.388 1.866 2.524 1.71 2.524-.916 0-3.335-1.722-4.42-3.146-1.4-1.837-1.76-5.575-.645-6.709.497-.505.344-.867-.771-1.835-1.778-1.542-3.082-1.528-4.11.043-.599.914-.73 1.795-.489 3.299.295 1.847.248 1.986-.47 1.389-.438-.364-1.23-1.511-1.758-2.548-.529-1.037-1.519-2.252-2.201-2.699-.682-.447-1.18-1.168-1.108-1.601.072-.433-.259-.868-.736-.966-.476-.098-.891.005-.919.23Zm-153.033 7.352v1.239h139.709v-2.479H92.667v1.24Zm-32.69 2.365c-.61 1.699-1.306 3.302-1.55 3.561-1.048 1.123-.32 1.325.846.235 1.628-1.522 2.678-3.528 2.678-5.115 0-2.343-.868-1.763-1.974 1.319Zm203.115-1.606c0 2.18 1.155 4.612 2.657 5.598 1.559 1.022 1.596.894.358-1.246-.522-.902-1.226-2.588-1.565-3.748-.718-2.457-1.45-2.761-1.45-.604Zm40.891 2.936c-.807.846-1.754 1.427-2.105 1.292-.75-.287-.872 1.009-.139 1.463 1.269.785 4.205-1.891 3.869-3.525-.119-.578-.519-.389-1.625.77Zm-225.623-.433c-3.968.696-13.437 5.554-13.437 6.894 0 .821 1.754.581 3.03-.415 3.078-2.402 6.674-3.226 8.893-2.037 1.014.544 1.296 2.195.463 2.711-.903.558-.514 1.24.708 1.24 1.704 0 2.76-1.27 2.76-3.32 0-1.514.105-1.674.748-1.141.41.342.886 1.494 1.057 2.561.4 2.504 1.214 2.208 2.177-.794.68-2.121.834-2.286 1.445-1.549.376.453.683 1.482.683 2.285 0 1.969 1.022 1.854 2.008-.225 1.099-2.318 1.013-4.414-.227-5.537-1.212-1.099-6.077-1.416-10.308-.673Zm158.984-.017c-1.582.677-1.979 1.346-1.988 3.351-.008 1.772 1.207 4.563 1.987 4.563.265 0 .482-.635.482-1.411 0-.777.416-1.788.924-2.248.882-.8.936-.757 1.215.959.465 2.871 2.32 4.46 2.32 1.988 0-1.735.903-3.865 1.486-3.505.273.169.496 1.068.496 1.997 0 1.778 1 2.716 2.897 2.716.889 0 .927-.142.404-1.528-.505-1.34-.453-1.62.415-2.271 1.551-1.164 5.181-.604 8.055 1.242 2.252 1.447 4.082 2.006 4.082 1.247 0-.893-6.829-4.971-10.397-6.207-3.213-1.114-10.615-1.648-12.378-.893Zm-201.65 2.052c0 .654.426 2.401.948 3.883.781 2.222 1.151 2.695 2.105 2.697 1.754.002 1.817-1.97.12-3.742-1.594-1.667-1.283-2.435.51-1.259 1.568 1.029 3.06 1.039 3.449.022.473-1.234.023-1.529-2.783-1.827-1.438-.153-3.005-.432-3.483-.62-.679-.268-.867-.085-.867.846Zm251.674-.586c-.682.218-2.202.419-3.379.447-1.924.044-2.124.162-1.982 1.165.201 1.411 1.897 1.709 3.551.623 1.663-1.09 2.071-.174.556 1.251-.728.684-1.223 1.705-1.223 2.518 0 1.197.17 1.35 1.362 1.223.884-.094 1.416-.473 1.516-1.082.085-.516.475-1.779.867-2.807.772-2.023.938-3.864.342-3.784-.205.027-.929.228-1.61.446Zm-193.378.868c-.121.205-.19.93-.153 1.612l.069 1.24 68.435.126 68.436.125.219-1.492c.12-.821.108-1.603-.027-1.738-.402-.403-136.738-.277-136.979.127Z"
          clip-rule="evenodd"/>
    <path
        d="M1.62 6.033C.687 5.287-.07 2.4.356 1.223.474.904 1.52.709 2.832.764c1.932.082 2.38.302 2.99 1.467.64 1.223.807 1.293 1.547.654.456-.394 1.344-.842 1.974-.996 1.387-.339 2.008.827 1.162 2.182-.893 1.432-.676 4.369.458 6.206.567.919 1.132 1.67 1.256 1.67.123 0 .083-1.065-.09-2.368-.5-3.777 1.167-8.286 2.71-7.331.298.184.088.99-.53 2.04-1.444 2.45-1.346 5.87.269 9.402.71 1.555 1.169 3.026 1.018 3.27-.15.244.447.443.447.443.607 0 .572-.478-.218-3.02-.517-1.66-.94-3.776-.94-4.701 0-3.959 3.135-8.2 4.817-6.516.654.654.59.99-.553 2.944-1.429 2.441-1.666 5.212-.717 8.384.895 2.99 1.447 2.259 1.101-1.459-.341-3.68.418-6.036 2.261-7.024 2.058-1.102 2.07-.037.028 2.293-.873.995-1.485 2.25-1.485 3.041l.002 1.347.919-1.488c1.512-2.45 2.837-3.383 4.292-3.017 1.87.47 1.525 2.42-.49 2.767-2.907.501-4.98 5.747-2.743 6.945.73.391.991 1.039.991 2.453 0 1.527.306 2.18 1.486 3.175.818.688 1.486 1.392 1.486 1.564 0 .171.67.875 1.487 1.563.817.69 1.486 1.554 1.486 1.923 0 1.27-.996 1.283-2.354.031L23.96 25.9c-.867-.8-2.428-1.731-3.468-2.07-1.04-.34-2.331-.92-2.869-1.29-2.322-1.6-7.64.12-6.965 2.255.147.464-.043 1.27-.424 1.79-.58.795-.817.843-1.47.302-1.79-1.488-1.563-2.642.952-4.825 2.283-1.983 2.326-2.066.932-1.806-.803.15-1.951.797-2.551 1.438-1.085 1.158-2.625 1.576-2.625.713 0-.845 3.043-3.02 4.225-3.02.646 0 2.317.245 3.711.545 3.121.67 3.6.325 1.409-1.012-1.156-.705-2.518-1.018-4.446-1.019-2.346-.001-3.074.231-4.651 1.486-2.142 1.704-2.503 1.79-2.92.703-.674-1.757-.274-2.68 1.557-3.598 2.956-1.482 5.347-1.65 8.17-.577l2.487.946-1.142-1.217c-2.157-2.3-5.933-2.772-9.26-1.16-2.327 1.127-2.819 1.07-2.304-.271.464-1.212 2.264-1.767 5.797-1.786l3.064-.017-1.17-.975c-1.222-1.02-4.36-1.273-6.261-.505-1.593.642-2.215-.234-1.641-2.315.428-1.55.362-1.908-.479-2.581ZM35.92 5.101c.166-.757.737-2.094 1.27-2.97C38.222.43 39.845.018 40.348 1.329c.34.89.092 1.454-1.346 3.053-1.266 1.41-.936 1.755.985 1.028 1.82-.687 3.271-.231 3.044.957-.126.653-.843.947-2.886 1.185-3.695.428-4.64.845-3.909 1.726.313.377.849.686 1.19.686.342 0 .9.335 1.24.744.81.977-.157 2.232-1.719 2.232-2.03 0-2.984 1.729-2.986 5.416-.002 2.739.218 3.656 1.236 5.155 1.602 2.358 3.679 3.315 7.193 3.315 2.63 0 2.97-.137 4.756-1.925 1.805-1.808 1.923-2.107 1.923-4.892 0-3.48-1.106-5.31-3.532-5.843-1.966-.433-3.97 1.237-3.114 2.595.79 1.254 1.692 1.354 1.692.187 0-1.5 1.857-1.352 2.566.205.774 1.7-.593 3.226-2.89 3.226-3.172 0-4.602-3.146-2.915-6.412 1.888-3.655 7.104-2.29 10.511 2.75 3.03 4.484 3.452 4.833 4.745 3.926 1.561-1.095 2.35-.938 2.35.467 0 .84-.434 1.452-1.378 1.94-1.502.778-2.411.505-4.443-1.337L51.547 20.7v1.46c0 .802-.565 2.29-1.255 3.308-1.731 2.55-4.44 3.836-8.078 3.836-5.375 0-9.366-2.551-11.943-7.634-1.588-3.131-1.628-3.36-1.336-7.592.166-2.4.438-5.179.606-6.175.26-1.547.153-1.86-.735-2.141-.572-.182-1.04-.665-1.04-1.073 0-1.245 3.119-.664 3.713.692.288.656.777 1.013 1.178.86.377-.146.982-.018 1.344.283.886.736 1.553.241 1.918-1.424Z"/>
    <path
        d="M42.141 3.082c.02-.8.95-1.631 2.265-2.025C46.42.454 51.684.452 55.51 1.052c4.792.752 9.001 3.056 22.952 12.558 2.605 1.774 3.83 2.304 5.326 2.304 1.89 0 1.943-.047 1.943-1.736 0-1.907.652-2.196 2.067-.915 2.304 2.087-.014 6.133-3.502 6.112-1.004-.006-2.327-.435-3.024-.98-1.717-1.346-1.981-1.247-1.981.743 0 1.153-.232 1.736-.69 1.736-.853 0-1.477-1.356-1.326-2.883.085-.863-.109-1.108-.785-.991-.64.11-1.238-.512-2.09-2.175-1.38-2.699-2.854-3.702-2.323-1.58.77 3.07-1.1 5.514-3.53 4.614-1.41-.522-2.28-2.1-1.557-2.823.656-.657.12-5.478-.732-6.584-.704-.912-2.872-2.457-3.45-2.457-.224 0 .3.881 1.164 1.959 1.574 1.96 1.69 3.497.263 3.497-.396 0-.864.659-1.04 1.464-.55 2.504-2.075 3.991-4.091 3.991h-1.785l1.078-1.147c1.382-1.473 1.544-4.607.21-4.057-1.836.757-2.386.764-3.344.045-.959-.719-.963-.794-.124-2.295.477-.855.867-1.892.867-2.305 0-1.28-1.907-3.509-3.472-4.055-1.377-.48-1.453-.449-.991.415.68 1.275.63 3.648-.095 4.373-.327.327-1.131.595-1.787.595-.944 0-1.117-.18-.828-.868.99-2.36.858-3.009-.786-3.86-1.093-.566-2.315-.76-3.766-.596-1.18.133-2.143.103-2.14-.069Z"/>
    <path
        d="M77.928 2.666c-.34-.124-.62-.566-.62-.982 0-.576.323-.675 1.358-.415 1.726.434 2.201 1.155 1.889 2.866-.293 1.605.22 1.745 1.443.392.597-.661.777-1.374.562-2.232-.225-.898-.118-1.26.376-1.26 1.023 0 1.702 1.036 1.887 2.88.15 1.478.251 1.573 1.054.981.488-.36.959-1.32 1.046-2.133.086-.814.3-1.423.473-1.355.175.068.504.124.732.124.663 0 1.567 2.38 1.567 4.128 0 .881-.364 2.122-.808 2.756-.781 1.117-.982 1.146-6.316.916-3.03-.13-6.317-.491-7.303-.801-2.221-.697-10.468-5.633-10.73-6.422-.345-1.035 1.28-.612 4.546 1.186C71.8 4.79 72.68 5.035 74.87 4.907c1.897-.112 2.729-.4 3.13-1.084.412-.7.393-.987-.073-1.157ZM4.73 32.281c-1.64-1.591-2.144-2.896-1.404-3.637.485-.485.735-.417 1.712.468.78.707 1.37.729 5.134.194 8.847-1.257 14.634 1.255 17.664 7.665 1.663 3.52 1.82 6.525.493 9.45-1.11 2.443-3.922 4.99-6.02 5.452l-1.569.345 1.284 1.342c1.296 1.354 1.538 2.28.978 3.74-.406 1.059-1.912 1.831-2.86 1.467-.675-.26-.678-.417-.024-1.416 1.052-1.608.567-2.379-3.424-5.439-5.493-4.212-6.584-6.99-3.828-9.75 1.857-1.859 4.908-2.031 6.46-.364 1.147 1.233 1.26 2.285.439 4.09-.756 1.66-2.222 2.085-3.429.992-1.134-1.028-1.265-2.696-.212-2.696.966 0 .962-.94-.006-1.31-1.166-.45-2.223.771-2.223 2.567 0 2.462 2.29 4.198 5.535 4.198 3.204 0 5.089-1.133 6.35-3.817 1.32-2.815 1.256-4.826-.238-7.379-1.768-3.02-3.887-4.178-7.64-4.178-2.59 0-3.249.187-4.277 1.217-.669.67-1.216 1.681-1.216 2.248 0 .566-.338 1.16-.75 1.317-.962.37-2.223-.673-2.223-1.838 0-1.188-.986-1.766-1.534-.9-.238.376-.436 1.647-.44 2.824-.008 2.408-.702 4.06-1.706 4.06-.975 0-1.322-1.297-.75-2.802.7-1.847.234-1.997-1.244-.4-1.117 1.205-1.42 1.304-2.505.81-2.47-1.128-1.16-3.106 2.716-4.1 3.088-.793 3.289-1.963.757-4.42ZM30.274 32.547c-.29-.178-.526-.98-.526-1.783 0-.966.252-1.459.744-1.459.462 0 .743.468.743 1.24 0 .701.286 1.24.66 1.24.362 0 .957-.558 1.321-1.24.365-.682.96-1.24 1.323-1.24 1.745 0-.404 3.823-3.017 5.367-1.62.957-1.842.984-2.12.259-.184-.482.036-1.063.543-1.434.543-.397.663-.743.329-.95ZM31.381 39.502c-1.263-.485-.594-1.83 2.455-4.934 3.178-3.234 4.32-3.783 5.422-2.603.453.486.858.534 1.44.17.445-.279 1.183-.363 1.64-.188 1.367.526.079 2.318-1.667 2.318-2.389 0-3.06.44-2.44 1.6.385.72.386 1.338.001 2.182-.594 1.305-1.129 1.437-2.613.641-1.247-.667-1.317-.593-1.696 1.805-.378 2.388-.555 2.7-1.533 2.7-.585 0-.72-.412-.568-1.722.13-1.11-.027-1.81-.44-1.969Z"/>
    <path
        d="M3.531 63.526c-3.415-6.7-4.539-15.375-2.507-19.362.55-1.08 1.203-1.964 1.45-1.964.25 0 .324 1.224.167 2.744-.248 2.406-.141 2.895.865 3.968 1.25 1.332 2.428 1.556 3.346.637.826-.828 1.274-.183.902 1.3-.41 1.64-2.356 2.156-4.019 1.066-1.182-.776-1.235-.766-1.235.242 0 1.346 3.052 4.426 4.384 4.426.558 0 1.622-.564 2.365-1.253 1.618-1.5 2.278-1.068 2.444 1.605.064 1.034.14 2.021.169 2.194.112.685 2.031.782 2.571.13.926-1.117 1.94-.819 1.94.57 0 1.538-2.041 3.697-3.493 3.697-.643 0-1.161.39-1.318.992-.362 1.385-1.638 1.238-3.977-.458-1.686-1.223-1.961-1.302-1.754-.51.729 2.79 5.413 5.098 8.206 4.042 1.253-.473 1.75-.442 2.68.168 2.494 1.636.68 5.19-2.651 5.19-1.78 0-1.796.017-.914.992.493.545 1.177.991 1.519.991.342 0 1.185.67 1.873 1.488.79.941 1.718 1.488 2.52 1.488.967 0 1.271.254 1.271 1.056 0 .962-.183 1.025-2.09.72l-2.089-.334 1.037 1.139c2.495 2.74 2.627 5.153.41 7.547-1.556 1.682-3.343 1.65-4.713-.085l-1.076-1.364 1.412-.167c3.3-.393 3.452-2.212.545-6.516-5.317-7.87-8.492-12.95-10.24-16.379Z"/>
    <path
        d="M2.615 69.097c-1.083-1.085-1.798-3.362-1.306-4.16.802-1.298 5.367 6.53 7.087 12.156 1.126 3.682 1.349 8.214.52 10.593-.904 2.597-4.285 3.415-6.597 1.594-1.566-1.233-1.75-2.467-.312-2.09 1.117.292 2.475-.616 2.475-1.654 0-.418-.539-.683-1.387-.683-1.363 0-2.576-.767-2.576-1.627 0-.24.677-.287 1.506-.105.921.203 1.788.098 2.23-.27 1.037-.861.89-1.47-.353-1.47-1.356 0-2.888-1.357-2.888-2.557 0-1.049.203-1.106 1.484-.42 3.183 1.705 3.282-6.139.117-9.307ZM321.076 6.033c.931-.746 1.688-3.633 1.262-4.81-.116-.32-1.162-.515-2.474-.46-1.933.082-2.381.302-2.991 1.467-.64 1.223-.806 1.293-1.546.654-.456-.394-1.345-.842-1.974-.996-1.387-.339-2.008.827-1.163 2.182.893 1.432.677 4.369-.458 6.206-.567.919-1.132 1.67-1.255 1.67-.124 0-.083-1.065.089-2.368.501-3.777-1.166-8.286-2.71-7.331-.298.184-.088.99.531 2.04 1.444 2.45 1.346 5.87-.269 9.402-.711 1.555-1.17 3.026-1.019 3.27.15.244-.447.443-.447.443-.606 0-.572-.478.219-3.02.516-1.66.938-3.776.938-4.701 0-3.959-3.134-8.2-4.816-6.516-.654.654-.591.99.553 2.944 1.429 2.441 1.666 5.212.717 8.384-.894 2.99-1.446 2.259-1.101-1.459.341-3.68-.417-6.036-2.261-7.024-2.058-1.102-2.071-.037-.027 2.293.873.995 1.485 2.25 1.484 3.041l-.002 1.347-.918-1.488c-1.512-2.45-2.838-3.383-4.292-3.017-1.87.47-1.526 2.42.489 2.767 2.907.501 4.979 5.747 2.743 6.945-.729.391-.991 1.039-.991 2.453 0 1.527-.305 2.18-1.486 3.175-.817.688-1.486 1.392-1.486 1.564 0 .171-.669.875-1.486 1.563-.818.69-1.487 1.554-1.487 1.923 0 1.27.996 1.283 2.354.031l2.938-2.708c.868-.8 2.428-1.731 3.468-2.07 1.041-.34 2.332-.92 2.869-1.29 2.323-1.6 7.641.12 6.965 2.255-.147.464.044 1.27.424 1.79.58.795.817.843 1.469.302 1.791-1.488 1.564-2.642-.95-4.825-2.284-1.983-2.327-2.066-.933-1.806.803.15 1.952.797 2.552 1.438 1.085 1.158 2.624 1.576 2.624.713 0-.845-3.043-3.02-4.224-3.02-.647 0-2.318.245-3.712.545-3.121.67-3.6.325-1.409-1.012 1.156-.705 2.519-1.018 4.447-1.019 2.345-.001 3.073.231 4.651 1.486 2.141 1.704 2.503 1.79 2.919.703.674-1.757.275-2.68-1.557-3.598-2.956-1.482-5.347-1.65-8.169-.577l-2.488.946 1.143-1.217c2.157-2.3 5.933-2.772 9.26-1.16 2.326 1.127 2.818 1.07 2.304-.271-.465-1.212-2.265-1.767-5.798-1.786l-3.064-.017 1.17-.975c1.223-1.02 4.36-1.273 6.261-.505 1.594.642 2.215-.234 1.641-2.315-.427-1.55-.361-1.908.479-2.581ZM286.776 5.101c-.167-.757-.738-2.094-1.27-2.97-1.033-1.701-2.657-2.114-3.159-.803-.342.89-.093 1.454 1.345 3.053 1.267 1.41.936 1.755-.985 1.028-1.819-.687-3.271-.231-3.043.957.125.653.842.947 2.885 1.185 3.695.428 4.64.845 3.909 1.726-.312.377-.848.686-1.19.686-.342 0-.899.335-1.239.744-.81.977.156 2.232 1.718 2.232 2.031 0 2.985 1.729 2.987 5.416.001 2.739-.219 3.656-1.237 5.155-1.602 2.358-3.678 3.315-7.193 3.315-2.629 0-2.969-.137-4.755-1.925-1.806-1.808-1.924-2.107-1.924-4.892 0-3.48 1.106-5.31 3.532-5.843 1.967-.433 3.97 1.237 3.114 2.595-.79 1.254-1.691 1.354-1.691.187 0-1.5-1.858-1.352-2.567.205-.774 1.7.593 3.226 2.891 3.226 3.171 0 4.601-3.146 2.914-6.412-1.888-3.655-7.104-2.29-10.511 2.75-3.03 4.484-3.452 4.833-4.744 3.926-1.562-1.095-2.351-.938-2.351.467 0 .84.434 1.452 1.378 1.94 1.503.778 2.411.505 4.444-1.337l1.114-1.011v1.46c0 .802.565 2.29 1.256 3.308 1.731 2.55 4.439 3.836 8.077 3.836 5.375 0 9.366-2.551 11.944-7.634 1.587-3.131 1.627-3.36 1.335-7.592-.165-2.4-.438-5.179-.606-6.175-.26-1.547-.153-1.86.735-2.141.572-.182 1.04-.665 1.04-1.073 0-1.245-3.119-.664-3.713.692-.288.656-.776 1.013-1.177.86-.377-.146-.982-.018-1.344.283-.887.736-1.554.241-1.919-1.424Z"/>
    <path
        d="M280.554 3.082c-.02-.8-.949-1.631-2.264-2.025-2.015-.603-7.278-.605-11.105-.005-4.791.752-9.001 3.056-22.952 12.558-2.605 1.774-3.83 2.304-5.326 2.304-1.89 0-1.943-.047-1.943-1.736 0-1.907-.652-2.196-2.066-.915-2.304 2.087.014 6.133 3.501 6.112 1.005-.006 2.327-.435 3.024-.98 1.718-1.346 1.982-1.247 1.982.743 0 1.153.232 1.736.69 1.736.852 0 1.476-1.356 1.326-2.883-.086-.863.108-1.108.784-.991.641.11 1.238-.512 2.089-2.175 1.382-2.699 2.856-3.702 2.324-1.58-.77 3.07 1.099 5.514 3.53 4.614 1.41-.522 2.28-2.1 1.558-2.823-.657-.657-.121-5.478.732-6.584.703-.912 2.872-2.457 3.449-2.457.225 0-.299.881-1.163 1.959-1.574 1.96-1.69 3.497-.264 3.497.396 0 .864.659 1.041 1.464.549 2.504 2.074 3.991 4.091 3.991h1.784l-1.077-1.147c-1.383-1.473-1.545-4.607-.21-4.057 1.836.757 2.385.764 3.344.045.958-.719.962-.794.123-2.295-.477-.855-.867-1.892-.867-2.305 0-1.28 1.907-3.509 3.472-4.055 1.378-.48 1.453-.449.992.415-.681 1.275-.63 3.648.094 4.373.327.327 1.131.595 1.787.595.945 0 1.117-.18.828-.868-.99-2.36-.858-3.009.786-3.86 1.093-.566 2.316-.76 3.766-.596 1.181.133 2.144.103 2.14-.069Z"/>
    <path
        d="M244.767 2.666c.34-.124.619-.566.619-.982 0-.576-.322-.675-1.357-.415-1.726.434-2.201 1.155-1.889 2.866.293 1.605-.22 1.745-1.442.392-.598-.661-.778-1.374-.563-2.232.225-.898.118-1.26-.376-1.26-1.023 0-1.702 1.036-1.887 2.88-.149 1.478-.251 1.573-1.053.981-.489-.36-.96-1.32-1.046-2.133-.087-.814-.3-1.423-.474-1.355a2.427 2.427 0 0 1-.732.124c-.663 0-1.566 2.38-1.566 4.128 0 .881.363 2.122.807 2.756.782 1.117.982 1.146 6.317.916 3.03-.13 6.316-.491 7.303-.801 2.22-.697 10.467-5.633 10.729-6.422.345-1.035-1.279-.612-4.546 1.186-2.716 1.495-3.596 1.74-5.787 1.612-1.897-.112-2.728-.4-3.13-1.084-.411-.7-.393-.987.073-1.157ZM317.966 32.281c1.639-1.591 2.143-2.896 1.403-3.637-.484-.485-.735-.417-1.712.468-.78.707-1.37.729-5.134.194-8.847-1.257-14.634 1.255-17.664 7.665-1.663 3.52-1.82 6.525-.493 9.45 1.109 2.443 3.922 4.99 6.021 5.452l1.568.345-1.284 1.342c-1.296 1.354-1.538 2.28-.978 3.74.406 1.059 1.912 1.831 2.86 1.467.676-.26.678-.417.025-1.416-1.052-1.608-.567-2.379 3.423-5.439 5.493-4.212 6.584-6.99 3.828-9.75-1.857-1.859-4.908-2.031-6.459-.364-1.148 1.233-1.261 2.285-.439 4.09.756 1.66 2.222 2.085 3.428.992 1.134-1.028 1.265-2.696.212-2.696-.966 0-.962-.94.006-1.31 1.167-.45 2.223.771 2.223 2.567 0 2.462-2.289 4.198-5.535 4.198-3.203 0-5.088-1.133-6.349-3.817-1.322-2.815-1.257-4.826.237-7.379 1.768-3.02 3.887-4.178 7.641-4.178 2.589 0 3.248.187 4.276 1.217.669.67 1.217 1.681 1.217 2.248 0 .566.337 1.16.749 1.317.962.37 2.223-.673 2.223-1.838 0-1.188.986-1.766 1.534-.9.238.376.436 1.647.44 2.824.009 2.408.702 4.06 1.706 4.06.975 0 1.322-1.297.751-2.802-.701-1.847-.235-1.997 1.244-.4 1.116 1.205 1.42 1.304 2.504.81 2.471-1.128 1.161-3.106-2.715-4.1-3.089-.793-3.289-1.963-.757-4.42ZM292.422 32.547c.289-.178.525-.98.525-1.783 0-.966-.251-1.459-.743-1.459-.463 0-.743.468-.743 1.24 0 .701-.287 1.24-.66 1.24-.362 0-.957-.558-1.322-1.24-.365-.682-.96-1.24-1.322-1.24-1.746 0 .403 3.823 3.016 5.367 1.621.957 1.842.984 2.12.259.184-.482-.036-1.063-.543-1.434-.542-.397-.662-.743-.328-.95ZM291.314 39.502c1.264-.485.594-1.83-2.454-4.934-3.179-3.234-4.321-3.783-5.422-2.603-.454.486-.858.534-1.44.17-.446-.279-1.184-.363-1.64-.188-1.368.526-.08 2.318 1.666 2.318 2.389 0 3.06.44 2.441 1.6-.386.72-.386 1.338-.002 2.182.594 1.305 1.129 1.437 2.614.641 1.246-.667 1.316-.593 1.695 1.805.378 2.388.555 2.7 1.533 2.7.585 0 .721-.412.568-1.722-.129-1.11.028-1.81.441-1.969Z"/>
    <path
        d="M319.164 63.526c3.415-6.7 4.539-15.375 2.507-19.362-.551-1.08-1.203-1.964-1.45-1.964-.249 0-.324 1.224-.167 2.744.248 2.406.142 2.895-.865 3.968-1.25 1.332-2.427 1.556-3.345.637-.827-.828-1.274-.183-.903 1.3.411 1.64 2.356 2.156 4.019 1.066 1.182-.776 1.235-.766 1.235.242 0 1.346-3.051 4.426-4.383 4.426-.559 0-1.623-.564-2.366-1.253-1.618-1.5-2.278-1.068-2.444 1.605-.064 1.034-.14 2.021-.168 2.194-.113.685-2.032.782-2.572.13-.926-1.117-1.939-.819-1.939.57 0 1.538 2.04 3.697 3.492 3.697.643 0 1.162.39 1.319.992.361 1.385 1.638 1.238 3.976-.458 1.686-1.223 1.961-1.302 1.754-.51-.728 2.79-5.413 5.098-8.205 4.042-1.254-.473-1.75-.442-2.68.168-2.495 1.636-.68 5.19 2.65 5.19 1.78 0 1.796.017.914.992-.492.545-1.176.991-1.519.991-.342 0-1.185.67-1.873 1.488-.79.941-1.717 1.488-2.52 1.488-.966 0-1.271.254-1.271 1.056 0 .962.184 1.025 2.09.72l2.089-.334-1.037 1.139c-2.495 2.74-2.626 5.153-.41 7.547 1.557 1.682 3.344 1.65 4.713-.085l1.077-1.364-1.412-.167c-3.301-.393-3.453-2.212-.546-6.516 5.317-7.87 8.492-12.95 10.24-16.379Z"/>
    <path
        d="M320.08 69.097c1.084-1.085 1.798-3.362 1.307-4.16-.803-1.298-5.368 6.53-7.088 12.156-1.126 3.682-1.349 8.214-.52 10.593.904 2.597 4.285 3.415 6.597 1.594 1.566-1.233 1.751-2.467.312-2.09-1.116.292-2.475-.616-2.475-1.654 0-.418.539-.683 1.388-.683 1.362 0 2.576-.767 2.576-1.627 0-.24-.678-.287-1.507-.105-.921.203-1.787.098-2.229-.27-1.038-.861-.892-1.47.352-1.47 1.356 0 2.888-1.357 2.888-2.557 0-1.049-.203-1.106-1.484-.42-3.183 1.705-3.282-6.139-.117-9.307Z"/>
  </g>
  <defs>
    <clipPath id="a">
      <path fill="#fff" d="M0 .5h325v288H0z"/>
    </clipPath>
  </defs>
</svg>
