<svg width="387" height="258" viewBox="0 0 387 258" fill="none" xmlns="http://www.w3.org/2000/svg">
<path d="M386 0.5L376.234 6.66075L386.452 12.0381L386 0.5ZM218.5 170L218.04 169.112L218.5 170ZM1 257C1.2675 257.964 1.26751 257.964 1.26753 257.964C1.26753 257.964 1.26755 257.964 1.26757 257.964C1.2676 257.964 1.26764 257.964 1.26769 257.964C1.26779 257.963 1.26793 257.963 1.26811 257.963C1.26846 257.963 1.26898 257.963 1.26965 257.963C1.27098 257.963 1.27295 257.962 1.27553 257.961C1.2807 257.96 1.28836 257.958 1.2985 257.955C1.31877 257.949 1.34896 257.941 1.38897 257.93C1.46897 257.907 1.58826 257.874 1.74606 257.829C2.06167 257.74 2.53137 257.607 3.14918 257.429L2.59636 255.507C1.98162 255.684 1.51494 255.816 1.2023 255.904C1.04598 255.949 0.928171 255.982 0.849621 256.004C0.810346 256.015 0.780886 256.023 0.761334 256.028C0.751558 256.031 0.744259 256.033 0.739449 256.035C0.737044 256.035 0.735262 256.036 0.734103 256.036C0.733523 256.036 0.733099 256.036 0.732832 256.036C0.732698 256.036 0.732603 256.036 0.732548 256.036C0.73252 256.036 0.732502 256.036 0.732493 256.036C0.732489 256.036 0.73249 256.036 0.732488 256.036C0.732492 256.036 0.732498 256.036 1 257ZM7.04672 256.29C8.18616 255.953 9.48582 255.565 10.9383 255.127L10.3602 253.212C8.91135 253.65 7.61524 254.037 6.47929 254.373L7.04672 256.29ZM14.8262 253.943C16.0397 253.57 17.3281 253.172 18.6886 252.747L18.0933 250.838C16.7355 251.261 15.4499 251.659 14.2391 252.031L14.8262 253.943ZM22.5402 251.538C23.7788 251.147 25.0656 250.737 26.3992 250.31L25.7892 248.406C24.4581 248.832 23.1736 249.24 21.9374 249.631L22.5402 251.538ZM30.2798 249.06C31.5275 248.655 32.8102 248.237 34.1267 247.805L33.5034 245.905C32.189 246.336 30.9086 246.753 29.663 247.157L30.2798 249.06ZM37.9478 246.545C39.2103 246.126 40.5003 245.696 41.817 245.254L41.1811 243.358C39.8665 243.799 38.5785 244.228 37.3181 244.647L37.9478 246.545ZM45.637 243.966C46.8916 243.541 48.1681 243.106 49.4658 242.662L48.8179 240.77C47.5221 241.214 46.2477 241.648 44.995 242.072L45.637 243.966ZM53.3158 241.337C54.5639 240.905 55.8299 240.465 57.1134 240.017L56.4538 238.129C55.1722 238.576 53.9081 239.016 52.6619 239.447L53.3158 241.337ZM60.972 238.662C62.2161 238.223 63.4753 237.777 64.7491 237.323L64.0781 235.439C62.8061 235.892 61.5488 236.338 60.3065 236.776L60.972 238.662ZM68.6026 235.944C69.8453 235.497 71.1009 235.043 72.3692 234.583L71.6868 232.703C70.4205 233.163 69.1667 233.616 67.9258 234.062L68.6026 235.944ZM76.2091 233.183C77.4526 232.727 78.7074 232.266 79.9731 231.798L79.2796 229.922C78.0157 230.389 76.7627 230.85 75.5211 231.305L76.2091 233.183ZM83.7942 230.378C85.0402 229.914 86.2962 229.443 87.5619 228.966L86.8572 227.095C85.5934 227.57 84.3393 228.04 83.0951 228.505L83.7942 230.378ZM91.3612 227.53C92.6109 227.055 93.8696 226.575 95.1368 226.089L94.421 224.221C93.1556 224.706 91.8989 225.186 90.6509 225.66L91.3612 227.53ZM98.9128 224.635C100.167 224.15 101.429 223.66 102.699 223.165L101.972 221.301C100.704 221.796 99.4438 222.285 98.1914 222.77L98.9128 224.635ZM106.451 221.694C107.709 221.199 108.974 220.699 110.246 220.194L109.508 218.335C108.238 218.839 106.975 219.339 105.719 219.833L106.451 221.694ZM113.978 218.706C115.227 218.205 116.483 217.7 117.744 217.19L116.995 215.336C115.735 215.845 114.482 216.349 113.234 216.849L113.978 218.706ZM121.494 215.669C122.734 215.163 123.981 214.652 125.232 214.138L124.472 212.288C123.222 212.802 121.977 213.311 120.739 213.816L121.494 215.669ZM128.998 212.582C130.231 212.071 131.469 211.555 132.711 211.035L131.939 209.19C130.698 209.709 129.463 210.224 128.232 210.735L128.998 212.582ZM136.452 209.463C137.69 208.94 138.933 208.413 140.18 207.882L139.396 206.042C138.151 206.572 136.911 207.098 135.674 207.62L136.452 209.463ZM143.893 206.294C145.135 205.76 146.381 205.222 147.63 204.681L146.835 202.846C145.587 203.387 144.343 203.923 143.104 204.456L143.893 206.294ZM151.325 203.072C152.557 202.533 153.794 201.99 155.033 201.444L154.226 199.614C152.988 200.16 151.754 200.702 150.523 201.24L151.325 203.072ZM158.745 199.799C159.969 199.254 161.197 198.705 162.427 198.152L161.608 196.328C160.38 196.88 159.154 197.427 157.932 197.972L158.745 199.799ZM166.127 196.484C167.352 195.929 168.58 195.37 169.81 194.807L168.978 192.988C167.75 193.55 166.524 194.108 165.301 194.662L166.127 196.484ZM173.483 193.121C174.709 192.555 175.938 191.985 177.169 191.412L176.325 189.599C175.096 190.171 173.869 190.74 172.645 191.305L173.483 193.121ZM180.827 189.702C182.045 189.13 183.265 188.554 184.487 187.975L183.63 186.167C182.411 186.746 181.193 187.32 179.977 187.892L180.827 189.702ZM188.156 186.227C189.367 185.648 190.578 185.066 191.792 184.48L190.922 182.679C189.711 183.263 188.501 183.845 187.293 184.423L188.156 186.227ZM195.436 182.712C196.65 182.12 197.864 181.525 199.08 180.927L198.197 179.133C196.984 179.73 195.771 180.323 194.56 180.914L195.436 182.712ZM202.701 179.138C203.909 178.538 205.117 177.935 206.327 177.328L205.431 175.54C204.223 176.146 203.017 176.748 201.811 177.347L202.701 179.138ZM209.947 175.505C211.147 174.898 212.348 174.287 213.549 173.673L212.639 171.892C211.44 172.505 210.241 173.114 209.043 173.721L209.947 175.505ZM217.156 171.821C217.757 171.511 218.359 171.2 218.96 170.888L218.04 169.112C217.439 169.424 216.839 169.734 216.239 170.044L217.156 171.821ZM218.96 170.888C219.561 170.576 220.161 170.263 220.759 169.948L219.827 168.178C219.233 168.491 218.637 168.803 218.04 169.112L218.96 170.888ZM224.327 168.04C225.51 167.398 226.687 166.75 227.857 166.095L226.881 164.35C225.718 165 224.548 165.644 223.373 166.282L224.327 168.04ZM231.373 164.101C232.544 163.427 233.708 162.748 234.866 162.063L233.848 160.342C232.697 161.023 231.54 161.698 230.376 162.367L231.373 164.101ZM238.32 159.991C239.475 159.289 240.624 158.581 241.765 157.868L240.706 156.171C239.571 156.88 238.429 157.584 237.281 158.282L238.32 159.991ZM245.18 155.707C246.312 154.982 247.437 154.251 248.555 153.516L247.456 151.845C246.344 152.576 245.226 153.302 244.101 154.023L245.18 155.707ZM251.928 151.27C253.047 150.516 254.158 149.757 255.263 148.994L254.126 147.348C253.027 148.107 251.922 148.862 250.81 149.611L251.928 151.27ZM258.563 146.686C259.668 145.904 260.766 145.118 261.857 144.327L260.684 142.707C259.599 143.494 258.507 144.276 257.408 145.053L258.563 146.686ZM265.109 141.944C266.193 141.14 267.269 140.333 268.338 139.523L267.13 137.929C266.066 138.735 264.996 139.538 263.918 140.337L265.109 141.944ZM271.549 137.06C272.612 136.236 273.668 135.408 274.717 134.577L273.475 133.009C272.432 133.836 271.381 134.66 270.324 135.48L271.549 137.06ZM277.875 132.047C278.924 131.197 279.967 130.344 281.001 129.489L279.727 127.948C278.697 128.799 277.66 129.647 276.616 130.493L277.875 132.047ZM284.085 126.912C285.122 126.037 286.151 125.159 287.172 124.279L285.866 122.764C284.85 123.639 283.826 124.513 282.795 125.383L284.085 126.912ZM290.212 121.632C291.225 120.741 292.23 119.848 293.228 118.953L291.892 117.465C290.9 118.355 289.899 119.244 288.891 120.13L290.212 121.632ZM296.227 116.236C297.219 115.329 298.203 114.42 299.179 113.51L297.815 112.047C296.844 112.953 295.864 113.857 294.877 114.76L296.227 116.236ZM302.13 110.731C303.108 109.8 304.078 108.869 305.04 107.937L303.648 106.501C302.691 107.428 301.726 108.355 300.752 109.281L302.13 110.731ZM307.919 105.121C308.885 104.168 309.841 103.215 310.789 102.261L309.371 100.851C308.428 101.8 307.475 102.749 306.514 103.698L307.919 105.121ZM313.607 99.4018C314.556 98.4296 315.496 97.4578 316.427 96.4868L314.984 95.1026C314.057 96.0694 313.121 97.0368 312.176 98.0046L313.607 99.4018ZM319.204 93.5649C320.13 92.5811 321.047 91.5983 321.955 90.6171L320.487 89.259C319.583 90.2359 318.67 91.2143 317.748 92.1938L319.204 93.5649ZM324.69 87.6335C325.594 86.6389 326.488 85.6462 327.373 84.6558L325.881 83.3237C325.001 84.3097 324.11 85.2981 323.21 86.2885L324.69 87.6335ZM330.068 81.6109C330.956 80.5987 331.834 79.5894 332.702 78.5834L331.187 77.2772C330.323 78.279 329.449 79.284 328.565 80.2919L330.068 81.6109ZM335.338 75.4996C336.212 74.4682 337.075 73.4409 337.927 72.418L336.39 71.138C335.542 72.1565 334.682 73.1796 333.812 74.2065L335.338 75.4996ZM340.501 69.3012C341.36 68.2512 342.208 67.2066 343.044 66.1678L341.486 64.9139C340.653 65.9484 339.809 66.9887 338.953 68.0342L340.501 69.3012ZM345.558 63.0165C346.403 61.9489 347.234 60.8881 348.053 59.8348L346.474 58.6072C345.659 59.6561 344.831 60.7125 343.99 61.7758L345.558 63.0165ZM350.511 56.6459C351.34 55.5619 352.154 54.4867 352.954 53.421L351.355 52.22C350.558 53.2813 349.747 54.352 348.922 55.4315L350.511 56.6459ZM355.36 50.1892C356.171 49.0912 356.965 48.0044 357.745 46.9296L356.126 45.7556C355.35 46.8259 354.558 47.9081 353.751 49.0016L355.36 50.1892ZM360.103 43.6476C360.893 42.5394 361.665 41.4455 362.42 40.3668L360.781 39.2203C360.029 40.2944 359.261 41.3837 358.475 42.4873L360.103 43.6476ZM364.736 37.0261C365.505 35.9066 366.254 34.8057 366.983 33.7244L365.325 32.6062C364.599 33.6828 363.853 34.779 363.087 35.8937L364.736 37.0261ZM369.244 30.3392C370.007 29.1853 370.746 28.0572 371.46 26.9563L369.782 25.868C369.071 26.9639 368.336 28.087 367.576 29.2357L369.244 30.3392ZM373.619 23.5933C374.371 22.4117 375.09 21.2672 375.778 20.162L374.08 19.1054C373.395 20.2052 372.679 21.3443 371.932 22.5204L373.619 23.5933ZM377.906 16.7028C378.647 15.4857 379.341 14.3284 379.991 13.2349L378.271 12.2139C377.625 13.3014 376.934 14.4525 376.197 15.6634L377.906 16.7028ZM382.032 9.7495C382.779 8.45746 383.44 7.29314 384.015 6.26645L382.27 5.2893C381.699 6.30833 381.043 7.46481 380.301 8.74887L382.032 9.7495Z" fill="white"/>
</svg>
