<svg width="24" height="16" viewBox="0 0 24 16" fill="none" xmlns="http://www.w3.org/2000/svg">
<path d="M5.33203 1.33398V3.33398" stroke="#1D4365" stroke-linecap="round" stroke-linejoin="round"/>
<path d="M10.668 1.33398V3.33398" stroke="#1D4365" stroke-linecap="round" stroke-linejoin="round"/>
<path d="M2.33203 6.06055H13.6654" stroke="#1D4365" stroke-linecap="round" stroke-linejoin="round"/>
<path d="M14 11.334C14 13.334 13 14.6673 10.6667 14.6673H5.33333C3 14.6673 2 13.334 2 11.334V5.66732C2 3.66732 3 2.33398 5.33333 2.33398H10.6667C13 2.33398 14 3.66732 14 5.66732V11.334Z" stroke="#1D4365" stroke-linecap="round" stroke-linejoin="round"/>
<path d="M10.4625 9.13411H10.4685" stroke="#1D4365" stroke-linecap="round" stroke-linejoin="round"/>
<path d="M10.4625 11.1341H10.4685" stroke="#1D4365" stroke-linecap="round" stroke-linejoin="round"/>
<path d="M7.99764 9.13411H8.00363" stroke="#1D4365" stroke-linecap="round" stroke-linejoin="round"/>
<path d="M7.99764 11.1341H8.00363" stroke="#1D4365" stroke-linecap="round" stroke-linejoin="round"/>
<path d="M5.52889 9.13411H5.53488" stroke="#1D4365" stroke-linecap="round" stroke-linejoin="round"/>
<path d="M5.52889 11.1341H5.53488" stroke="#1D4365" stroke-linecap="round" stroke-linejoin="round"/>
<path fill-rule="evenodd" clip-rule="evenodd" d="M23.3867 10.5L20.5 15.5L17.6132 10.5L20 10.5L20 1C20 0.723857 20.2238 0.5 20.5 0.5C20.7761 0.5 21 0.723858 21 1L21 10.5L23.3867 10.5Z" fill="#1D4365"/>
</svg>
