<svg width="94" height="94" viewBox="0 0 94 94" fill="none" xmlns="http://www.w3.org/2000/svg">
<path d="M47.0002 30.9021L42.8094 38.1871C41.8694 39.7929 42.6527 41.1246 44.4936 41.1246H49.4677C51.3477 41.1246 52.0919 42.4563 51.1519 44.0621L47.0002 51.3471" stroke="#0085FF" stroke-width="1.5" stroke-linecap="round" stroke-linejoin="round"/>
<path d="M32.5087 66.1131C23.5004 60.6689 16.0979 50.0547 16.0979 38.7747C16.0979 19.3872 33.9187 4.19056 54.0504 8.57723C62.9021 10.5356 70.6571 16.4106 74.6912 24.5181C82.8771 40.9681 74.2604 58.4364 61.6096 66.0739V70.6172C61.6096 71.7531 62.0404 74.3772 57.8496 74.3772H36.2687C31.9604 74.4164 32.5087 72.7322 32.5087 70.6564V66.1131Z" stroke="#0085FF" stroke-width="1.5" stroke-linecap="round" stroke-linejoin="round"/>
<path d="M33.2917 86.1665C42.2609 83.6206 51.7392 83.6206 60.7084 86.1665" stroke="#0085FF" stroke-width="1.5" stroke-linecap="round" stroke-linejoin="round"/>
</svg>
