<svg width="94" height="94" viewBox="0 0 94 94" fill="none" xmlns="http://www.w3.org/2000/svg">
<path d="M69.8338 50.4859C65.6038 56.7525 58.9063 61.1783 51.1122 62.3142C49.7805 62.5492 48.4097 62.6666 46.9997 62.6666C45.5897 62.6666 44.2188 62.5492 42.8872 62.3142C35.093 61.1783 28.3955 56.7525 24.1655 50.4859C21.2672 46.1384 19.583 40.9291 19.583 35.25C19.583 20.0925 31.8422 7.83331 46.9997 7.83331C62.1572 7.83331 74.4163 20.0925 74.4163 35.25C74.4163 40.9291 72.7322 46.1384 69.8338 50.4859Z" stroke="#0085FF" stroke-width="1.5" stroke-linecap="round" stroke-linejoin="round"/>
<path d="M76.7669 73.8684C75.3177 74.2209 74.1819 75.3176 73.8686 76.7668L72.4977 82.5243C71.7536 85.6576 67.7586 86.5977 65.6827 84.1302L47.0002 62.6668L28.3177 84.1692C26.2419 86.6367 22.2469 85.6967 21.5027 82.5634L20.1319 76.8059C19.7794 75.3567 18.6436 74.2209 17.2336 73.9076L10.7711 72.3802C7.79439 71.6752 6.73689 67.9542 8.89106 65.8001L24.1661 50.5251C28.3961 56.7918 35.0936 61.2177 42.8877 62.3535C44.2194 62.5885 45.5902 62.706 47.0002 62.706C48.4102 62.706 49.7811 62.5885 51.1127 62.3535C58.9069 61.2177 65.6044 56.7918 69.8344 50.5251L85.1094 65.8001C87.2636 67.9151 86.2061 71.6359 83.2294 72.3409L76.7669 73.8684Z" stroke="#0085FF" stroke-width="1.5" stroke-linecap="round" stroke-linejoin="round"/>
<path d="M51.5826 28.0433C51.8959 28.67 52.7184 29.2967 53.4626 29.4142L57.6534 30.1192C60.3167 30.55 60.9434 32.5083 59.0242 34.4275L55.7734 37.6783C55.2251 38.2266 54.9117 39.2842 55.1076 40.0675L56.0476 44.1017C56.7917 47.2742 55.1076 48.5274 52.2876 46.8433L48.3709 44.5325C47.6659 44.1016 46.4909 44.1016 45.7859 44.5325L41.8692 46.8433C39.0492 48.4883 37.3651 47.2742 38.1092 44.1017L39.0492 40.0675C39.2059 39.3234 38.9317 38.2266 38.3834 37.6783L35.1326 34.4275C33.2134 32.5083 33.8401 30.5892 36.5034 30.1192L40.6942 29.4142C41.3992 29.2967 42.2217 28.67 42.5351 28.0433L44.8459 23.4217C45.9817 20.915 48.0184 20.915 49.2717 23.4217L51.5826 28.0433Z" stroke="#0085FF" stroke-width="1.5" stroke-linecap="round" stroke-linejoin="round"/>
</svg>
