<svg width="20" height="20" viewBox="0 0 20 20" fill="none" xmlns="http://www.w3.org/2000/svg">
<path d="M8.70606 5.19922H11.3101L10.8761 11.5972H9.14006L8.70606 5.19922ZM10.0081 15.1112C9.6254 15.1112 9.3034 14.9899 9.04206 14.7472C8.79006 14.4952 8.66406 14.1919 8.66406 13.8372C8.66406 13.4826 8.79006 13.1886 9.04206 12.9552C9.29406 12.7126 9.61606 12.5912 10.0081 12.5912C10.4001 12.5912 10.7221 12.7126 10.9741 12.9552C11.2261 13.1886 11.3521 13.4826 11.3521 13.8372C11.3521 14.1919 11.2214 14.4952 10.9601 14.7472C10.7081 14.9899 10.3907 15.1112 10.0081 15.1112Z" fill="white"/>
</svg>
