<svg width="100" height="100" viewBox="0 0 100 100" fill="none" xmlns="http://www.w3.org/2000/svg">
<path d="M62.5002 91.6673C83.3335 91.6673 91.6668 83.334 91.6668 62.5006V37.5006C91.6668 16.6673 83.3335 8.33398 62.5002 8.33398H37.5002C16.6668 8.33398 8.3335 16.6673 8.3335 37.5006V62.5006C8.3335 83.334 16.6668 91.6673 37.5002 91.6673H62.5002Z" stroke="#292D32" stroke-width="1.5" stroke-linecap="round" stroke-linejoin="round"/>
<path d="M29.1665 36.459C33.3332 32.2923 40.1248 32.2923 44.3332 36.459" stroke="#292D32" stroke-width="1.5" stroke-linecap="round" stroke-linejoin="round"/>
<path d="M55.6665 36.459C59.8332 32.2923 66.6248 32.2923 70.8332 36.459" stroke="#292D32" stroke-width="1.5" stroke-linecap="round" stroke-linejoin="round"/>
<path d="M62.9846 72.4064C64.2987 73.2825 65.9969 73.9497 67.2595 73.0007C68.167 72.3187 68.75 71.2322 68.75 70C68.75 59.625 60.375 51.25 50 51.25C39.625 51.25 31.25 59.625 31.25 70C31.25 71.2322 31.833 72.3187 32.7405 73.0007C34.0031 73.9497 35.7013 73.2825 37.0154 72.4064L45.5624 66.7084C48.2496 64.9169 51.7504 64.9169 54.4376 66.7084L62.9846 72.4064Z" stroke="#292D32" stroke-width="1.5" stroke-linecap="round" stroke-linejoin="round"/>
</svg>
