<svg width="84" height="24" viewBox="0 0 84 24" fill="none" xmlns="http://www.w3.org/2000/svg">
<path d="M26.76 0.599998L17.288 23H9.864L0.392 0.599998H8.52L13.864 13.688L19.336 0.599998H26.76ZM38.2955 0.599998C40.3648 0.599998 42.1675 0.941332 43.7035 1.624C45.2395 2.30667 46.4235 3.288 47.2555 4.568C48.0875 5.848 48.5035 7.34133 48.5035 9.048C48.5035 10.7547 48.0875 12.248 47.2555 13.528C46.4235 14.808 45.2395 15.7893 43.7035 16.472C42.1675 17.1547 40.3648 17.496 38.2955 17.496H35.0635V23H27.5115V0.599998H38.2955ZM37.8155 11.672C38.8395 11.672 39.6075 11.448 40.1195 11C40.6315 10.5307 40.8875 9.88 40.8875 9.048C40.8875 8.216 40.6315 7.576 40.1195 7.128C39.6075 6.65867 38.8395 6.424 37.8155 6.424H35.0635V11.672H37.8155ZM73.0603 0.599998V23H66.8523L58.3403 12.824V23H50.9803V0.599998H57.1883L65.7003 10.776V0.599998H73.0603ZM79.739 23.32C78.523 23.32 77.5097 22.936 76.699 22.168C75.9097 21.3787 75.515 20.376 75.515 19.16C75.515 17.944 75.9097 16.9627 76.699 16.216C77.5097 15.448 78.523 15.064 79.739 15.064C80.955 15.064 81.9577 15.448 82.747 16.216C83.5577 16.9627 83.963 17.944 83.963 19.16C83.963 20.376 83.5577 21.3787 82.747 22.168C81.9577 22.936 80.955 23.32 79.739 23.32Z" fill="#1D4365"/>
</svg>
