<svg xmlns="http://www.w3.org/2000/svg" width="65" height="64" fill="none" viewBox="0 0 65 64">
  <rect width="64" height="64" x=".824" fill="url(#a)" rx="32"/>
  <g fill="#242424" clip-path="url(#b)">
    <path
        d="M20.847 25.281a1.089 1.089 0 1 0 0 2.178 1.089 1.089 0 0 0 0-2.178ZM45.136 27.451a1.081 1.081 0 1 0 0-2.162 1.081 1.081 0 0 0 0 2.162ZM32.995 20.967a1.082 1.082 0 1 0 .016-2.164 1.082 1.082 0 0 0-.016 2.164Zm10.43 7.552c-.971.223-1.918.547-2.823.965a16.798 16.798 0 0 0-3.111 1.936 14.93 14.93 0 0 1-1.758-2.714 38.118 38.118 0 0 1-1.96-5.118.777.777 0 0 0-.778-.552.778.778 0 0 0-.777.552 37.644 37.644 0 0 1-1.96 5.118 14.545 14.545 0 0 1-1.758 2.706 17.744 17.744 0 0 0-3.111-1.928 14.78 14.78 0 0 0-2.754-.965.777.777 0 0 0-.777.257.778.778 0 0 0-.102.832 43.551 43.551 0 0 1 3.112 10.5.778.778 0 0 0 .777.646h14.778a.777.777 0 0 0 .778-.646 43.551 43.551 0 0 1 3.111-10.5.778.778 0 0 0-.457-1.073.777.777 0 0 0-.43-.016Zm-15.983 9.683a.862.862 0 1 1-.016-1.724.862.862 0 0 1 .016 1.724Zm5.561 0a.863.863 0 0 1 0-1.718.864.864 0 0 1 0 1.718Zm5.57 0a.862.862 0 1 1-.017-1.724.862.862 0 0 1 .016 1.724Z"/>
  </g>
  <defs>
    <linearGradient id="a" x1="18.236" x2="53.059" y1="11.294" y2="60" gradientUnits="userSpaceOnUse">
      <stop stop-color="#FFF293"/>
      <stop offset=".135" stop-color="#fff"/>
    </linearGradient>
    <clipPath id="b">
      <path fill="#fff" d="M18.824 16h28v28h-28z"/>
    </clipPath>
  </defs>
</svg>
