<svg viewBox="0 0 22 22" fill="none" xmlns="http://www.w3.org/2000/svg">
<path d="M14.3334 15.25C14.3334 18.1666 13.1667 19.3333 10.25 19.3333H6.75002C3.83335 19.3333 2.66669 18.1666 2.66669 15.25V11.75C2.66669 8.83329 3.83335 7.66663 6.75002 7.66663H10.25C13.1667 7.66663 14.3334 8.83329 14.3334 11.75V15.25Z" stroke="#0085FF" stroke-linecap="round" stroke-linejoin="round"/>
<path d="M19.3334 10.25C19.3334 13.1666 18.1667 14.3333 15.25 14.3333H14.3334V11.75C14.3334 8.83329 13.1667 7.66663 10.25 7.66663H7.66669V6.74996C7.66669 3.83329 8.83335 2.66663 11.75 2.66663H15.25C18.1667 2.66663 19.3334 3.83329 19.3334 6.74996V10.25Z" stroke="#0085FF" stroke-linecap="round" stroke-linejoin="round"/>
<path opacity="0.01" fill-rule="evenodd" clip-rule="evenodd" d="M21 1V21H1V1H21Z" stroke="black"/>
</svg>
