<svg xmlns="http://www.w3.org/2000/svg" width="71" height="71" fill="none"><path fill="#1D4365" d="M14.536 46.2h.568v2.136c-.262.23-.571.405-.928.528a3.449 3.449 0 0 1-1.128.184c-.56 0-1.064-.123-1.512-.368a2.724 2.724 0 0 1-1.056-1.016 2.844 2.844 0 0 1-.384-1.464c0-.539.128-1.024.384-1.456a2.707 2.707 0 0 1 1.056-1.024 3.112 3.112 0 0 1 1.52-.368c.426 0 .818.07 1.176.208a2.3 2.3 0 0 1 .904.6l-.368.376c-.443-.437-1.006-.656-1.688-.656a2.51 2.51 0 0 0-1.232.304 2.176 2.176 0 0 0-.856.832 2.283 2.283 0 0 0-.312 1.184 2.25 2.25 0 0 0 1.168 2.016c.362.203.77.304 1.224.304.576 0 1.064-.144 1.464-.432V46.2Zm6.203 2.288V49h-3.96v-5.6h3.84v.512h-3.248v1.992h2.896v.504h-2.896v2.08h3.368Zm6.072-5.088V49h-.488l-3.6-4.544V49h-.592v-5.6h.488l3.608 4.544V43.4h.584Zm5.788 5.088V49h-3.96v-5.6h3.84v.512H29.23v1.992h2.896v.504H29.23v2.08h3.368Zm5.215.512-1.28-1.8a4.056 4.056 0 0 1-.448.024h-1.504V49h-.592v-5.6h2.096c.715 0 1.275.17 1.68.512.406.341.608.81.608 1.408 0 .437-.112.808-.336 1.112-.218.299-.533.515-.944.648L38.462 49h-.648Zm-1.744-2.28c.555 0 .979-.123 1.272-.368.294-.245.44-.59.44-1.032 0-.453-.146-.8-.44-1.04-.293-.245-.717-.368-1.272-.368h-1.488v2.808h1.488Zm7.213.784h-3.12L39.491 49h-.616l2.56-5.6h.584l2.56 5.6h-.624l-.672-1.496Zm-.216-.48-1.344-3.008-1.344 3.008h2.688Zm3.245-3.112h-1.968V43.4h4.529v.512h-1.968V49h-.593v-5.088Zm5.876 5.136a3.126 3.126 0 0 1-1.512-.368c-.448-.25-.8-.592-1.056-1.024a2.848 2.848 0 0 1-.376-1.456c0-.539.126-1.024.376-1.456.256-.432.608-.77 1.056-1.016.453-.25.957-.376 1.512-.376s1.053.123 1.496.368c.448.245.8.587 1.056 1.024.256.432.384.917.384 1.456 0 .539-.128 1.027-.384 1.464-.256.432-.608.77-1.056 1.016a3.034 3.034 0 0 1-1.496.368Zm0-.528a2.44 2.44 0 0 0 1.2-.296c.358-.203.638-.48.84-.832.203-.357.304-.755.304-1.192a2.33 2.33 0 0 0-.304-1.184 2.135 2.135 0 0 0-.84-.832 2.389 2.389 0 0 0-1.2-.304c-.443 0-.845.101-1.208.304-.357.197-.64.475-.848.832a2.33 2.33 0 0 0-.304 1.184c0 .437.101.835.304 1.192.208.352.49.63.848.832.363.197.766.296 1.208.296Zm8.087.48-1.28-1.8a4.057 4.057 0 0 1-.448.024h-1.504V49h-.592v-5.6h2.096c.715 0 1.275.17 1.68.512.405.341.608.81.608 1.408 0 .437-.112.808-.336 1.112-.219.299-.533.515-.944.648L60.923 49h-.648Zm-1.744-2.28c.555 0 .979-.123 1.272-.368.293-.245.44-.59.44-1.032 0-.453-.147-.8-.44-1.04-.293-.245-.717-.368-1.272-.368h-1.488v2.808h1.488ZM27.49 23.4 22.162 36h-4.176l-5.328-12.6h4.572l3.006 7.362 3.078-7.362h4.176Zm6.489 0c1.164 0 2.178.192 3.042.576.864.384 1.53.936 1.998 1.656.468.72.702 1.56.702 2.52s-.234 1.8-.702 2.52c-.468.72-1.134 1.272-1.998 1.656-.864.384-1.878.576-3.042.576H32.16V36h-4.248V23.4h6.066Zm-.27 6.228c.576 0 1.008-.126 1.296-.378.288-.264.432-.63.432-1.098 0-.468-.144-.828-.432-1.08-.288-.264-.72-.396-1.296-.396H32.16v2.952h1.548ZM53.534 23.4V36h-3.492l-4.788-5.724V36h-4.14V23.4h3.492l4.788 5.724V23.4h4.14Z"/></svg>