<svg xmlns="http://www.w3.org/2000/svg" width="70" height="70" fill="none"><path fill="currentColor" fill-rule="evenodd" d="M21.789 10.972a.398.398 0 0 1 .543.144l2.46 4.248c2.132-1.894 4.996-3.167 8.197-3.474h3.02c3.201.308 6.065 1.58 8.197 3.474l2.46-4.248a.398.398 0 1 1 .689.399l-2.556 4.411c1.997 2.02 3.216 4.635 3.256 7.495H20.943c.04-2.86 1.26-5.475 3.256-7.495l-2.555-4.411a.398.398 0 0 1 .145-.543ZM38.275 48.3h-7.551v7.704A3.001 3.001 0 0 1 27.718 59a3.001 3.001 0 0 1-3.007-2.996V48.3h-.147c-2.064 0-3.728-1.688-3.728-3.782V25.047c0-.116.009-.231.019-.345h27.293c.01.113.014.229.014.345v19.472c0 2.094-1.663 3.782-3.728 3.782h-.147V56a3.001 3.001 0 0 1-3.006 2.996A3 3 0 0 1 38.275 56v-7.7ZM19.012 29.43a3.001 3.001 0 0 0-3.006-2.997A3.001 3.001 0 0 0 13 29.43v12.852a3.001 3.001 0 0 0 3.006 2.996 3.001 3.001 0 0 0 3.006-2.996V29.43Zm36.987 0a3.001 3.001 0 0 0-3.007-2.997 3.001 3.001 0 0 0-3.006 2.997v12.852a3.001 3.001 0 0 0 3.007 2.996 3.001 3.001 0 0 0 3.006-2.996V29.43ZM28.91 19.583c.86-.002 1.554-.682 1.551-1.518v-.008c-.002-.837-.7-1.512-1.56-1.51-.858.002-1.553.682-1.55 1.518v.008c.002.837.7 1.512 1.56 1.51Zm11.61 0c.859-.002 1.553-.682 1.55-1.518v-.008c-.002-.837-.7-1.512-1.559-1.51-.859.002-1.553.682-1.55 1.518v.008c.002.837.7 1.512 1.559 1.51Z" clip-rule="evenodd"/></svg>