<svg xmlns="http://www.w3.org/2000/svg" width="32" height="32" fill="none"><path stroke="currentColor" stroke-linecap="round" stroke-width="1.5" d="M8.025 11.879v3.853c0 .814-.347 2.054-.76 2.747L5.73 21.026c-.946 1.573-.293 3.32 1.44 3.906a27.895 27.895 0 0 0 17.694 0c1.613-.533 2.32-2.44 1.44-3.906l-1.534-2.547c-.4-.693-.746-1.933-.746-2.747V11.88c0-4.4-3.6-8-8-8-4.413 0-8 3.587-8 8Z"/><path stroke="currentColor" stroke-linecap="round" stroke-linejoin="round" stroke-width="1.5" d="M17.212 4c-1.28-.16-2.507-.067-3.653.266a2.647 2.647 0 0 1 2.466-1.68c1.12 0 2.08.693 2.467 1.68a8.071 8.071 0 0 0-1.28-.267Z"/><path stroke="currentColor" stroke-width="1.5" d="M20.027 25.414c0 2.2-1.8 4-4 4a4.014 4.014 0 0 1-2.826-1.173 4.014 4.014 0 0 1-1.174-2.827"/></svg>