<svg xmlns="http://www.w3.org/2000/svg" width="70" height="70" fill="none"><path fill="currentColor" d="M33.306 40.139c0 4.037-2.104 6.579-5.464 6.579-3.36 0-5.463-2.556-5.463-6.58 0-4.05 2.103-6.592 5.463-6.592s5.464 2.541 5.464 6.593Zm4.687-14.245-1.468.099c-.833.056-1.2.353-1.2.89 0 .564.466.875 1.115.875.89 0 1.553-.58 1.553-1.356v-.508ZM59 35c0 13.398-10.602 24-24 24S11 48.398 11 35s10.602-24 24-24 24 10.602 24 24Zm-18.438-9.402c0 1.948 1.073 3.134 2.824 3.134 1.482 0 2.414-.833 2.57-2.02h-1.158c-.156.65-.664 1.003-1.412 1.003-.988 0-1.595-.804-1.595-2.117 0-1.3.607-2.076 1.595-2.076.79 0 1.285.452 1.412 1.03h1.157c-.155-1.157-1.058-2.032-2.57-2.032-1.75-.014-2.823 1.172-2.823 3.078Zm-16.136-2.965v5.986h1.186v-3.67c0-.777.55-1.398 1.27-1.398.706 0 1.158.423 1.158 1.1v3.968h1.158v-3.784c0-.72.494-1.284 1.27-1.284.777 0 1.158.395 1.158 1.228v3.84h1.186v-4.137c0-1.242-.706-1.976-1.92-1.976-.833 0-1.525.423-1.821 1.073h-.1c-.268-.65-.832-1.073-1.651-1.073-.805 0-1.412.395-1.666 1.073h-.085v-.96l-1.143.014Zm10.983 17.506c0-5.21-2.908-8.485-7.567-8.485-4.659 0-7.567 3.275-7.567 8.485 0 5.21 2.909 8.47 7.567 8.47 4.66 0 7.567-3.275 7.567-8.47Zm.735-11.421c.79 0 1.44-.34 1.807-.946h.098v.847h1.144v-4.094c0-1.257-.847-2.005-2.358-2.005-1.37 0-2.33.663-2.456 1.666h1.143c.127-.438.593-.678 1.257-.678.804 0 1.228.367 1.228 1.03v.523l-1.623.099c-1.426.085-2.231.706-2.231 1.793-.014 1.073.833 1.765 1.99 1.765Zm12.945 14.95c0-2.33-1.355-3.684-4.771-4.433l-1.822-.395c-2.244-.494-3.12-1.384-3.12-2.668 0-1.666 1.582-2.668 3.629-2.668 2.146 0 3.557 1.1 3.74 2.908h2.048c-.099-2.781-2.456-4.744-5.732-4.744-3.402 0-5.788 1.906-5.788 4.603 0 2.329 1.426 3.825 4.715 4.545l1.821.396c2.273.494 3.191 1.411 3.191 2.78 0 1.61-1.623 2.782-3.84 2.782-2.358 0-3.995-1.073-4.235-2.837h-2.047c.197 2.837 2.583 4.672 6.17 4.672 3.655 0 6.041-1.906 6.041-4.94Z"/></svg>