<svg xmlns="http://www.w3.org/2000/svg" width="71" height="71" fill="none"><g clip-path="url(#a)"><path fill="red" d="M-16 7h99.728v13.064H-16z"/><path fill="#fff" d="M15.807 17v-5.6h2.72c.672 0 1.192.128 1.56.384.373.25.56.608.56 1.072 0 .453-.173.81-.52 1.072-.347.256-.81.384-1.392.384l.16-.376c.63 0 1.12.125 1.472.376.357.245.536.608.536 1.088 0 .49-.192.88-.576 1.168-.379.288-.928.432-1.648.432h-2.872Zm1.56-1.136h1.248c.23 0 .4-.048.512-.144.117-.101.176-.248.176-.44s-.059-.333-.176-.424c-.112-.096-.283-.144-.512-.144h-1.248v1.152Zm0-2.224h1.008c.224 0 .392-.045.504-.136.112-.096.168-.235.168-.416s-.056-.317-.168-.408c-.112-.096-.28-.144-.504-.144h-1.008v1.104ZM21.2 17l2.472-5.6h1.56l2.48 5.6h-1.648l-1.936-4.824h.624L22.816 17H21.2Zm1.352-1.088.408-1.168h2.736l.408 1.168h-3.552ZM34.417 17l-1.352-2.664 1.328-.752L36.241 17h-1.824Zm-2.216-2.144v-1.28h1.808v1.28h-1.808Zm2.28-.488-1.464-.16L34.49 11.4h1.656l-1.664 2.968ZM29.353 17h-1.832l1.856-3.416 1.336.752L29.353 17Zm3.312 0h-1.552v-5.6h1.552V17Zm-1.088-2.144h-1.816v-1.28h1.816v1.28Zm-2.288-.488L27.617 11.4h1.664l1.448 2.808-1.44.16ZM40.496 11.4h1.584V17h-1.584v-5.6Zm-2.16 5.6h-1.584v-5.6h1.584V17Zm2.272-2.184h-2.384v-1.312h2.384v1.312Zm5.428 2.296c-.448 0-.862-.072-1.24-.216a3.032 3.032 0 0 1-.992-.608 2.887 2.887 0 0 1-.648-.928 2.852 2.852 0 0 1-.232-1.16c0-.421.077-.808.232-1.16.154-.352.37-.659.648-.92.282-.267.613-.472.992-.616a3.461 3.461 0 0 1 1.24-.216c.453 0 .866.072 1.24.216.378.144.706.35.984.616.277.261.493.568.648.92.16.352.24.739.24 1.16a2.825 2.825 0 0 1-.888 2.088 2.941 2.941 0 0 1-.984.608 3.42 3.42 0 0 1-1.24.216Zm0-1.312c.213 0 .41-.037.592-.112.186-.075.346-.181.48-.32.138-.144.245-.315.32-.512.08-.197.12-.416.12-.656 0-.245-.04-.464-.12-.656a1.406 1.406 0 0 0-.32-.504 1.306 1.306 0 0 0-.48-.328 1.54 1.54 0 0 0-.592-.112 1.6 1.6 0 0 0-.6.112 1.402 1.402 0 0 0-.48.328c-.134.139-.24.307-.32.504a1.8 1.8 0 0 0-.112.656c0 .24.037.459.112.656.08.197.186.368.32.512.138.139.298.245.48.32a1.6 1.6 0 0 0 .6.112Zm5.414-2.232h2.6v1.184h-2.6v-1.184Zm.112 2.208h2.928V17h-4.495v-5.6h4.392v1.224h-2.825v3.152Z"/><path fill="#1D4365" d="M14.536 47.2h.568v2.136c-.262.23-.571.405-.928.528a3.449 3.449 0 0 1-1.128.184c-.56 0-1.064-.123-1.512-.368a2.724 2.724 0 0 1-1.056-1.016 2.844 2.844 0 0 1-.384-1.464c0-.539.128-1.024.384-1.456a2.707 2.707 0 0 1 1.056-1.024 3.112 3.112 0 0 1 1.52-.368c.426 0 .818.07 1.176.208a2.3 2.3 0 0 1 .904.6l-.368.376c-.443-.437-1.006-.656-1.688-.656a2.51 2.51 0 0 0-1.232.304 2.176 2.176 0 0 0-.856.832 2.283 2.283 0 0 0-.312 1.184 2.25 2.25 0 0 0 1.168 2.016c.362.203.77.304 1.224.304.576 0 1.064-.144 1.464-.432V47.2Zm6.203 2.288V50h-3.96v-5.6h3.84v.512h-3.248v1.992h2.896v.504h-2.896v2.08h3.368Zm6.072-5.088V50h-.488l-3.6-4.544V50h-.592v-5.6h.488l3.608 4.544V44.4h.584Zm5.788 5.088V50h-3.96v-5.6h3.84v.512H29.23v1.992h2.896v.504H29.23v2.08h3.368Zm5.215.512-1.28-1.8a4.056 4.056 0 0 1-.448.024h-1.504V50h-.592v-5.6h2.096c.715 0 1.275.17 1.68.512.406.341.608.81.608 1.408 0 .437-.112.808-.336 1.112-.218.299-.533.515-.944.648L38.462 50h-.648Zm-1.744-2.28c.555 0 .979-.123 1.272-.368.294-.245.44-.59.44-1.032 0-.453-.146-.8-.44-1.04-.293-.245-.717-.368-1.272-.368h-1.488v2.808h1.488Zm7.213.784h-3.12L39.491 50h-.616l2.56-5.6h.584l2.56 5.6h-.624l-.672-1.496Zm-.216-.48-1.344-3.008-1.344 3.008h2.688Zm3.245-3.112h-1.968V44.4h4.529v.512h-1.968V50h-.593v-5.088Zm5.876 5.136a3.126 3.126 0 0 1-1.512-.368c-.448-.25-.8-.592-1.056-1.024a2.848 2.848 0 0 1-.376-1.456c0-.539.126-1.024.376-1.456.256-.432.608-.77 1.056-1.016.453-.25.957-.376 1.512-.376s1.053.123 1.496.368c.448.245.8.587 1.056 1.024.256.432.384.917.384 1.456 0 .539-.128 1.027-.384 1.464-.256.432-.608.77-1.056 1.016a3.034 3.034 0 0 1-1.496.368Zm0-.528a2.44 2.44 0 0 0 1.2-.296c.358-.203.638-.48.84-.832.203-.357.304-.755.304-1.192a2.33 2.33 0 0 0-.304-1.184 2.135 2.135 0 0 0-.84-.832 2.389 2.389 0 0 0-1.2-.304c-.443 0-.845.101-1.208.304-.357.197-.64.475-.848.832a2.33 2.33 0 0 0-.304 1.184c0 .437.101.835.304 1.192.208.352.49.63.848.832.363.197.766.296 1.208.296Zm8.087.48-1.28-1.8a4.057 4.057 0 0 1-.448.024h-1.504V50h-.592v-5.6h2.096c.715 0 1.275.17 1.68.512.405.341.608.81.608 1.408 0 .437-.112.808-.336 1.112-.219.299-.533.515-.944.648L60.923 50h-.648Zm-1.744-2.28c.555 0 .979-.123 1.272-.368.293-.245.44-.59.44-1.032 0-.453-.147-.8-.44-1.04-.293-.245-.717-.368-1.272-.368h-1.488v2.808h1.488ZM17.986 39l-5.328-12.6h4.572l4.338 10.638H18.85L23.314 26.4h4.176L22.162 39h-4.176Zm9.927 0V26.4h6.066c1.176 0 2.19.192 3.042.576.864.384 1.53.936 1.998 1.656.468.708.702 1.548.702 2.52s-.234 1.812-.702 2.52c-.468.708-1.134 1.26-1.998 1.656-.852.384-1.866.576-3.042.576H30.27l1.89-1.818V39h-4.248Zm4.248-4.446-1.89-1.926h3.438c.588 0 1.02-.132 1.296-.396.288-.264.432-.624.432-1.08 0-.456-.144-.816-.432-1.08-.276-.264-.708-.396-1.296-.396H30.27l1.89-1.926v6.804ZM41.114 39V26.4h3.492l6.408 7.668h-1.62V26.4h4.14V39h-3.492l-6.408-7.668h1.62V39h-4.14Z"/></g><defs><clipPath id="a"><path fill="#fff" d="M0 0h71v71H0z"/></clipPath></defs></svg>