<svg width="44" height="44" viewBox="0 0 44 44" fill="none" xmlns="http://www.w3.org/2000/svg">
<path fill-rule="evenodd" clip-rule="evenodd" d="M18 32.75C14.35 32.75 12.25 30.65 12.25 27V17C12.25 13.35 14.35 11.25 18 11.25H26C29.65 11.25 31.75 13.35 31.75 17V27C31.75 30.65 29.65 32.75 26 32.75H18ZM13.75 17V27C13.75 29.86 15.14 31.25 18 31.25H26C28.86 31.25 30.25 29.86 30.25 27V17C30.25 14.14 28.86 12.75 26 12.75H18C15.14 12.75 13.75 14.14 13.75 17Z" fill="#0085FF"/>
<path d="M26.5 19.25C24.98 19.25 23.75 18.02 23.75 16.5V14.5C23.75 14.09 24.09 13.75 24.5 13.75C24.91 13.75 25.25 14.09 25.25 14.5V16.5C25.25 17.19 25.81 17.75 26.5 17.75H28.5C28.91 17.75 29.25 18.09 29.25 18.5C29.25 18.91 28.91 19.25 28.5 19.25H26.5Z" fill="#0085FF"/>
<path d="M19.4675 27.5295L17.4675 25.5295C17.1775 25.2395 17.1775 24.7595 17.4675 24.4695L19.4675 22.4695C19.7575 22.1795 20.2375 22.1795 20.5275 22.4695C20.8175 22.7595 20.8175 23.2395 20.5275 23.5295L19.0575 24.9995L20.5275 26.4695C20.8175 26.7595 20.8175 27.2395 20.5275 27.5295C20.3775 27.6795 20.1875 27.7495 19.9975 27.7495C19.8075 27.7495 19.6175 27.6795 19.4675 27.5295Z" fill="#0085FF"/>
<path d="M23.4675 27.5295C23.1775 27.2395 23.1775 26.7595 23.4675 26.4695L24.9375 24.9995L23.4675 23.5295C23.1775 23.2395 23.1775 22.7595 23.4675 22.4695C23.7575 22.1795 24.2375 22.1795 24.5275 22.4695L26.5275 24.4695C26.8175 24.7595 26.8175 25.2395 26.5275 25.5295L24.5275 27.5295C24.3775 27.6795 24.1875 27.7495 23.9975 27.7495C23.8075 27.7495 23.6175 27.6795 23.4675 27.5295Z" fill="#0085FF"/>
</svg>
