<svg xmlns="http://www.w3.org/2000/svg" width="70" height="70" fill="none"><path stroke="currentColor" stroke-linecap="round" stroke-linejoin="round" d="M35 41.25a6.25 6.25 0 1 1 0-12.5 6.25 6.25 0 0 1 0 12.5Z" clip-rule="evenodd"/><path stroke="currentColor" stroke-linecap="round" stroke-linejoin="round" d="M14.168 33.167a3.97 3.97 0 0 1 3.958-3.958c3.771 0 5.313-2.667 3.417-5.938a3.956 3.956 0 0 1 1.458-5.396l3.604-2.062c1.646-.98 3.771-.396 4.75 1.25l.23.396c1.875 3.27 4.958 3.27 6.854 0l.229-.396c.98-1.646 3.104-2.23 4.75-1.25l3.604 2.062a3.956 3.956 0 0 1 1.459 5.396c-1.896 3.271-.355 5.938 3.416 5.938a3.97 3.97 0 0 1 3.959 3.958v3.667a3.97 3.97 0 0 1-3.959 3.958c-3.77 0-5.312 2.667-3.416 5.938 1.083 1.895.437 4.312-1.459 5.395l-3.604 2.063c-1.646.979-3.77.396-4.75-1.25l-.23-.396c-1.874-3.27-4.958-3.27-6.853 0l-.23.396c-.979 1.646-3.104 2.229-4.75 1.25l-3.604-2.063a3.956 3.956 0 0 1-1.458-5.395c1.896-3.271.354-5.938-3.417-5.938a3.97 3.97 0 0 1-3.958-3.958v-3.667Z"/></svg>