<svg width="100" height="100" viewBox="0 0 100 100" fill="none" xmlns="http://www.w3.org/2000/svg"><path fill-rule="evenodd" clip-rule="evenodd" d="M50 62.5C43.0964 62.5 37.5 56.9036 37.5 50C37.5 43.0964 43.0964 37.5 50 37.5C56.9036 37.5 62.5 43.0964 62.5 50C62.5 56.9036 56.9036 62.5 50 62.5Z" stroke="#292D32" stroke-width="1.5" stroke-linecap="round" stroke-linejoin="round"/><path d="M8.3335 46.334C8.3335 42.0006 11.8752 38.4173 16.2502 38.4173C23.7918 38.4173 26.8752 33.084 23.0835 26.5423C20.9168 22.7923 22.2085 17.9173 26.0002 15.7506L33.2085 11.6256C36.5002 9.6673 40.7502 10.834 42.7085 14.1256L43.1668 14.9173C46.9168 21.459 53.0835 21.459 56.8752 14.9173L57.3335 14.1256C59.2918 10.834 63.5418 9.6673 66.8335 11.6256L74.0418 15.7506C77.8335 17.9173 79.1252 22.7923 76.9585 26.5423C73.1668 33.084 76.2502 38.4173 83.7918 38.4173C88.1252 38.4173 91.7085 41.959 91.7085 46.334V53.6673C91.7085 58.0006 88.1668 61.584 83.7918 61.584C76.2502 61.584 73.1668 66.9173 76.9585 73.459C79.1252 77.2506 77.8335 82.084 74.0418 84.2506L66.8335 88.3756C63.5418 90.334 59.2918 89.1673 57.3335 85.8756L56.8752 85.084C53.1252 78.5423 46.9585 78.5423 43.1668 85.084L42.7085 85.8756C40.7502 89.1673 36.5002 90.334 33.2085 88.3756L26.0002 84.2506C22.2085 82.084 20.9168 77.209 23.0835 73.459C26.8752 66.9173 23.7918 61.584 16.2502 61.584C11.8752 61.584 8.3335 58.0006 8.3335 53.6673V46.334Z" stroke="#292D32" stroke-width="1.5" stroke-linecap="round" stroke-linejoin="round"/></svg>