<svg width="158" height="158" viewBox="0 0 158 158" fill="none" xmlns="http://www.w3.org/2000/svg">
<path d="M56.8801 4.1475C56.8801 4.74834 56.668 5.26052 56.2443 5.68427C55.8206 6.10796 55.3084 6.32 54.7076 6.32H52.7326C52.1319 6.32 51.6196 6.10796 51.1959 5.68427C50.772 5.26052 50.5601 4.74834 50.5601 4.1475V2.1725C50.5601 1.57185 50.772 1.05955 51.1958 0.635792C51.6197 0.211973 52.1319 0 52.7326 0H54.7076C55.3085 0 55.8207 0.21191 56.2443 0.635729C56.6681 1.05961 56.8801 1.57185 56.8801 2.1725V4.1475Z" fill="#1D4365"/>
<path d="M69.52 2.1725V0H65.3725C64.7717 0 64.2594 0.21191 63.8357 0.635729C63.4119 1.05955 63.2 1.57178 63.2 2.1725V6.32H69.52V2.1725Z" fill="#1D4365"/>
<path d="M75.84 0H69.52V6.32H75.84V0Z" fill="#1D4365"/>
<path d="M79.9876 0H75.8401V6.32H79.9876C80.5883 6.32 81.1006 6.10803 81.5244 5.68427C81.9481 5.26052 82.1601 4.74822 82.1601 4.1475V2.1725C82.1601 1.57178 81.9481 1.05948 81.5244 0.635729C81.1006 0.211973 80.5883 0 79.9876 0Z" fill="#1D4365"/>
<path d="M94.8 2.1725V0H90.6525C90.0518 0 89.5395 0.21191 89.1157 0.635729C88.692 1.05955 88.48 1.57178 88.48 2.1725V6.32H94.8V2.1725Z" fill="#1D4365"/>
<path d="M101.12 0H94.8V6.32H101.12V0Z" fill="#1D4365"/>
<path d="M107.44 2.1725C107.44 1.57178 107.228 1.05948 106.804 0.635729C106.381 0.211973 105.868 0 105.268 0H101.12V6.32H107.44V2.1725Z" fill="#1D4365"/>
<path d="M69.52 6.32001H63.2V12.64H69.52V6.32001Z" fill="#1D4365"/>
<path d="M75.84 6.32001H69.52V12.64H75.84V6.32001Z" fill="#1D4365"/>
<path d="M88.4799 8.49251V6.32001H84.3324C83.7317 6.32001 83.2194 6.53192 82.7956 6.95574C82.3719 7.37956 82.1599 7.89179 82.1599 8.49251V10.4675C82.1599 11.0682 82.3718 11.5805 82.7956 12.0043C83.2195 12.428 83.7317 12.64 84.3324 12.64H88.4799V8.49251Z" fill="#1D4365"/>
<path d="M94.8 6.32001H88.48V12.64H94.8V6.32001Z" fill="#1D4365"/>
<path d="M107.428 8.34437H107.44V6.32001H101.12V8.34437H101.132C101.124 8.41022 101.12 8.45958 101.12 8.49251V10.4675C101.12 11.0682 101.332 11.5805 101.756 12.0043C102.18 12.428 102.692 12.64 103.293 12.64H105.268C105.868 12.64 106.381 12.428 106.804 12.0043C107.228 11.5805 107.44 11.0682 107.44 10.4675V8.49251C107.44 8.45958 107.436 8.41022 107.428 8.34437Z" fill="#1D4365"/>
<path d="M56.8801 14.8125V12.64H52.7326C52.1318 12.64 51.6195 12.8519 51.1958 13.2757C50.772 13.6996 50.5601 14.2118 50.5601 14.8125V16.7875C50.5601 17.3882 50.772 17.9005 51.1958 18.3243C51.6196 18.748 52.1318 18.96 52.7326 18.96H56.8801V14.8125Z" fill="#1D4365"/>
<path d="M63.1999 12.64H56.8799V18.96H63.1999V12.64Z" fill="#1D4365"/>
<path d="M69.52 12.64H63.2V18.96H69.52V12.64Z" fill="#1D4365"/>
<path d="M75.84 12.64H69.52V18.96H75.84V12.64Z" fill="#1D4365"/>
<path d="M82.1601 14.8125C82.1601 14.2118 81.9481 13.6995 81.5244 13.2757C81.1006 12.852 80.5883 12.64 79.9876 12.64H75.8401V18.96H82.1601V14.8125Z" fill="#1D4365"/>
<path d="M94.8 12.64H88.48V18.96H94.8V12.64Z" fill="#1D4365"/>
<path d="M101.12 14.8125C101.12 14.2118 100.908 13.6995 100.484 13.2757C100.061 12.852 99.5483 12.64 98.9475 12.64H94.8V18.96H101.12V14.8125Z" fill="#1D4365"/>
<path d="M63.1999 18.96H56.8799V25.28H63.1999V18.96Z" fill="#1D4365"/>
<path d="M69.52 18.96H63.2V25.28H67.3475C67.9482 25.28 68.4605 25.068 68.8842 24.6443C69.308 24.2205 69.52 23.7082 69.52 23.1075V18.96Z" fill="#1D4365"/>
<path d="M82.1478 20.9844H82.1601V18.96H75.8401V20.9844H75.8524C75.8442 21.0502 75.8401 21.0996 75.8401 21.1325V23.1075C75.8401 23.7082 76.052 24.2205 76.4758 24.6443C76.8996 25.068 77.4119 25.28 78.0126 25.28H79.9876C80.5883 25.28 81.1006 25.068 81.5244 24.6443C81.9481 24.2205 82.1601 23.7082 82.1601 23.1075V21.1325C82.1601 21.0996 82.1561 21.0502 82.1478 20.9844Z" fill="#1D4365"/>
<path d="M94.8 18.96H88.48V25.28H94.8V18.96Z" fill="#1D4365"/>
<path d="M101.12 18.96H94.8V25.28H98.9475C99.5483 25.28 100.061 25.068 100.484 24.6443C100.908 24.2205 101.12 23.7082 101.12 23.1075V18.96Z" fill="#1D4365"/>
<path d="M63.1999 25.28H56.8799V31.6H63.1999V25.28Z" fill="#1D4365"/>
<path d="M75.84 29.4275C75.84 30.0284 75.628 30.5405 75.2043 30.9643C74.7805 31.388 74.2684 31.6 73.6675 31.6H71.6925C71.0919 31.6 70.5796 31.388 70.1558 30.9643C69.732 30.5405 69.52 30.0284 69.52 29.4275V27.4525C69.52 26.8519 69.7319 26.3396 70.1557 25.9158C70.5796 25.492 71.0919 25.28 71.6925 25.28H73.6675C74.2684 25.28 74.7807 25.4919 75.2043 25.9158C75.628 26.3396 75.84 26.8519 75.84 27.4525V29.4275Z" fill="#1D4365"/>
<path d="M88.4799 27.4525V25.28H84.3324C83.7317 25.28 83.2194 25.4919 82.7956 25.9158C82.3719 26.3396 82.1599 26.8518 82.1599 27.4525V29.4275C82.1599 30.0282 82.3718 30.5405 82.7956 30.9643C83.2195 31.3881 83.7317 31.6 84.3324 31.6H88.4799V27.4525Z" fill="#1D4365"/>
<path d="M94.8 25.28H88.48V31.6H92.6275C93.2282 31.6 93.7405 31.3881 94.1643 30.9643C94.588 30.5405 94.8 30.0282 94.8 29.4275V25.28Z" fill="#1D4365"/>
<path d="M56.8801 33.7725V31.6H52.7326C52.1318 31.6 51.6195 31.8119 51.1958 32.2358C50.772 32.6596 50.5601 33.1718 50.5601 33.7725V37.92H56.8801V33.7725Z" fill="#1D4365"/>
<path d="M63.1999 31.6H56.8799V37.92H63.1999V31.6Z" fill="#1D4365"/>
<path d="M69.52 33.7725C69.52 33.1718 69.308 32.6595 68.8842 32.2358C68.4605 31.812 67.9482 31.6 67.3475 31.6H63.2V37.92H69.52V33.7725Z" fill="#1D4365"/>
<path d="M107.44 33.7725C107.44 33.1718 107.228 32.6595 106.804 32.2358C106.381 31.812 105.868 31.6 105.268 31.6H103.293C102.692 31.6 102.18 31.8119 101.756 32.2358C101.332 32.6596 101.12 33.1718 101.12 33.7725V35.7475C101.12 35.7805 101.124 35.8299 101.132 35.8957H101.12V37.92H107.44V35.8957H107.428C107.436 35.8299 107.44 35.7805 107.44 35.7475V33.7725Z" fill="#1D4365"/>
<path d="M56.8677 39.9444H56.8801V37.92H50.5601V39.9444H50.5724C50.5642 40.0103 50.5601 40.0596 50.5601 40.0925V42.0675C50.5601 42.6683 50.772 43.1806 51.1958 43.6043C51.6196 44.0281 52.1318 44.24 52.7326 44.24H54.7076C55.3083 44.24 55.8206 44.0281 56.2443 43.6043C56.6681 43.1806 56.8801 42.6683 56.8801 42.0675V40.0925C56.8801 40.0596 56.8761 40.0103 56.8677 39.9444Z" fill="#1D4365"/>
<path d="M69.52 37.92H63.2V44.24H69.52V37.92Z" fill="#1D4365"/>
<path d="M82.1601 42.0675C82.1601 42.6684 81.9481 43.1806 81.5244 43.6043C81.1006 44.028 80.5884 44.24 79.9876 44.24H78.0126C77.4119 44.24 76.8996 44.028 76.4759 43.6043C76.0521 43.1806 75.8401 42.6684 75.8401 42.0675V40.0925C75.8401 39.4919 76.052 38.9796 76.4758 38.5558C76.8997 38.132 77.4119 37.92 78.0126 37.92H79.9876C80.5885 37.92 81.1007 38.132 81.5244 38.5558C81.9481 38.9797 82.1601 39.4919 82.1601 40.0925V42.0675Z" fill="#1D4365"/>
<path d="M94.8 40.0925C94.8 39.4918 94.588 38.9795 94.1643 38.5558C93.7405 38.132 93.2282 37.92 92.6275 37.92H90.6525C90.0518 37.92 89.5395 38.132 89.1157 38.5558C88.692 38.9796 88.48 39.4918 88.48 40.0925V42.0675C88.48 42.1005 88.4841 42.1499 88.4923 42.2157H88.48V44.24H94.8V42.2157H94.7877C94.796 42.1499 94.8 42.1005 94.8 42.0675V40.0925Z" fill="#1D4365"/>
<path d="M107.44 37.92H101.12V44.24H107.44V37.92Z" fill="#1D4365"/>
<path d="M69.52 44.2401H63.2V50.5601H69.52V44.2401Z" fill="#1D4365"/>
<path d="M75.84 46.4126C75.84 45.8118 75.628 45.2995 75.2043 44.8758C74.7805 44.452 74.2682 44.2401 73.6675 44.2401H69.52V50.5601H75.84V46.4126Z" fill="#1D4365"/>
<path d="M94.8 44.2401H88.48V50.5601H94.8V44.2401Z" fill="#1D4365"/>
<path d="M101.12 44.2401H94.8V50.5601H101.12V44.2401Z" fill="#1D4365"/>
<path d="M107.44 44.2401H101.12V50.5601H107.44V44.2401Z" fill="#1D4365"/>
<path d="M6.32 54.7076C6.32 55.3084 6.10796 55.8206 5.68427 56.2443C5.26052 56.668 4.74834 56.8801 4.1475 56.8801H2.1725C1.57185 56.8801 1.05955 56.668 0.635792 56.2443C0.211973 55.8206 0 55.3084 0 54.7076V52.7326C0 52.1319 0.21191 51.6196 0.635729 51.1959C1.05961 50.772 1.57185 50.5601 2.1725 50.5601H4.1475C4.74841 50.5601 5.26064 50.772 5.68427 51.1958C6.10803 51.6197 6.32 52.1319 6.32 52.7326V54.7076Z" fill="#1D4365"/>
<path d="M18.9599 54.7076C18.9599 55.3084 18.7479 55.8206 18.3242 56.2443C17.9004 56.668 17.3882 56.8801 16.7874 56.8801H14.8124C14.2117 56.8801 13.6994 56.668 13.2757 56.2443C12.8519 55.8206 12.6399 55.3084 12.6399 54.7076V52.7326C12.6399 52.1319 12.8518 51.6196 13.2756 51.1959C13.6995 50.772 14.2117 50.5601 14.8124 50.5601H16.7874C17.3883 50.5601 17.9005 50.772 18.3242 51.1958C18.7479 51.6197 18.9599 52.1319 18.9599 52.7326V54.7076Z" fill="#1D4365"/>
<path d="M44.2399 52.7326V50.5601H40.0924C39.4917 50.5601 38.9794 50.772 38.5557 51.1958C38.1319 51.6196 37.9199 52.1318 37.9199 52.7326V54.7076C37.9199 55.3083 38.1318 55.8206 38.5557 56.2443C38.9795 56.6681 39.4917 56.8801 40.0924 56.8801H44.2399V52.7326Z" fill="#1D4365"/>
<path d="M48.3875 50.5601H44.24V56.8801H48.3875C48.9882 56.8801 49.5005 56.6681 49.9243 56.2443C50.348 55.8206 50.56 55.3083 50.56 54.7076V52.7326C50.56 52.1318 50.348 51.6195 49.9243 51.1958C49.5005 50.772 48.9882 50.5601 48.3875 50.5601Z" fill="#1D4365"/>
<path d="M63.1999 52.7326V50.5601H59.0524C58.4517 50.5601 57.9394 50.772 57.5156 51.1958C57.0919 51.6196 56.8799 52.1318 56.8799 52.7326V54.7076C56.8799 55.3083 57.0918 55.8206 57.5156 56.2443C57.9394 56.6681 58.4517 56.8801 59.0524 56.8801H63.1999V52.7326Z" fill="#1D4365"/>
<path d="M69.52 50.5601H63.2V56.8801H69.52V50.5601Z" fill="#1D4365"/>
<path d="M75.84 50.5601H69.52V56.8801H75.84V50.5601Z" fill="#1D4365"/>
<path d="M88.4799 52.7326V50.5601H84.3324C83.7317 50.5601 83.2194 50.772 82.7956 51.1958C82.3719 51.6196 82.1599 52.1318 82.1599 52.7326V56.8801H88.4799V52.7326Z" fill="#1D4365"/>
<path d="M94.8 50.5601H88.48V56.8801H94.8V50.5601Z" fill="#1D4365"/>
<path d="M107.44 50.5601H101.12V56.8801H107.44V50.5601Z" fill="#1D4365"/>
<path d="M126.4 52.7326C126.4 52.1318 126.188 51.6195 125.764 51.1958C125.341 50.772 124.828 50.5601 124.228 50.5601H122.253C121.652 50.5601 121.14 50.772 120.716 51.1958C120.292 51.6196 120.08 52.1318 120.08 52.7326V54.7076C120.08 54.7405 120.084 54.7899 120.092 54.8557H120.08V56.8801H126.4V54.8557H126.388C126.396 54.7899 126.4 54.7405 126.4 54.7076V52.7326Z" fill="#1D4365"/>
<path d="M145.36 54.7076C145.36 55.3084 145.148 55.8206 144.724 56.2443C144.301 56.668 143.788 56.8801 143.188 56.8801H141.213C140.612 56.8801 140.1 56.668 139.676 56.2443C139.252 55.8206 139.04 55.3084 139.04 54.7076V52.7326C139.04 52.1319 139.252 51.6196 139.676 51.1959C140.1 50.772 140.612 50.5601 141.213 50.5601H143.188C143.788 50.5601 144.301 50.772 144.724 51.1958C145.148 51.6197 145.36 52.1319 145.36 52.7326V54.7076Z" fill="#1D4365"/>
<path d="M158 52.7326C158 52.1318 157.788 51.6195 157.364 51.1958C156.941 50.772 156.428 50.5601 155.828 50.5601H153.853C153.252 50.5601 152.74 50.772 152.316 51.1958C151.892 51.6196 151.68 52.1318 151.68 52.7326V54.7076C151.68 54.7405 151.684 54.7899 151.692 54.8557H151.68V56.8801H158V54.8557H157.988C157.996 54.7899 158 54.7405 158 54.7076V52.7326Z" fill="#1D4365"/>
<path d="M31.6 59.0526C31.6 58.4519 31.3881 57.9396 30.9643 57.5158C30.5405 57.092 30.0282 56.8801 29.4275 56.8801H27.4525C26.8518 56.8801 26.3395 57.092 25.9158 57.5158C25.492 57.9396 25.28 58.4519 25.28 59.0526V61.0276C25.28 61.0605 25.2841 61.1099 25.2924 61.1757H25.28V63.2001H31.6V61.1757H31.5877C31.596 61.1099 31.6 61.0606 31.6 61.0276V59.0526Z" fill="#1D4365"/>
<path d="M75.84 56.8801H69.52V61.0276C69.52 61.6283 69.7319 62.1406 70.1557 62.5643C70.5796 62.9881 71.0918 63.2001 71.6925 63.2001H75.84V56.8801Z" fill="#1D4365"/>
<path d="M82.1601 56.8801H75.8401V63.2001H82.1601V56.8801Z" fill="#1D4365"/>
<path d="M88.4799 56.8801H82.1599V63.2001H88.4799V56.8801Z" fill="#1D4365"/>
<path d="M94.8 56.8801H88.48V63.2001H94.8V56.8801Z" fill="#1D4365"/>
<path d="M101.12 56.8801H94.8V63.2001H101.12V56.8801Z" fill="#1D4365"/>
<path d="M107.44 56.8801H101.12V63.2001H105.268C105.868 63.2001 106.381 62.9881 106.804 62.5643C107.228 62.1406 107.44 61.6283 107.44 61.0276V56.8801Z" fill="#1D4365"/>
<path d="M120.08 59.0526V56.8801H115.933C115.332 56.8801 114.819 57.092 114.396 57.5158C113.972 57.9396 113.76 58.4519 113.76 59.0526V61.0276C113.76 61.6283 113.972 62.1406 114.396 62.5643C114.82 62.9881 115.332 63.2001 115.933 63.2001H120.08V59.0526Z" fill="#1D4365"/>
<path d="M126.4 56.8801H120.08V63.2001H124.228C124.828 63.2001 125.341 62.9881 125.764 62.5643C126.188 62.1406 126.4 61.6283 126.4 61.0276V56.8801Z" fill="#1D4365"/>
<path d="M139.04 59.0526C139.04 58.4519 138.828 57.9396 138.404 57.5158C137.98 57.092 137.468 56.8801 136.867 56.8801H134.892C134.292 56.8801 133.779 57.092 133.356 57.5158C132.932 57.9396 132.72 58.4519 132.72 59.0526V61.0276C132.72 61.0605 132.724 61.1099 132.732 61.1757H132.72V63.2001H139.04V61.1757H139.028C139.036 61.1099 139.04 61.0606 139.04 61.0276V59.0526Z" fill="#1D4365"/>
<path d="M151.68 59.0526V56.8801H147.532C146.932 56.8801 146.419 57.092 145.996 57.5158C145.572 57.9396 145.36 58.4519 145.36 59.0526V61.0276C145.36 61.6283 145.572 62.1406 145.996 62.5643C146.419 62.9881 146.932 63.2001 147.532 63.2001H151.68V59.0526Z" fill="#1D4365"/>
<path d="M158 56.8801H151.68V63.2001H158V56.8801Z" fill="#1D4365"/>
<path d="M6.32 65.3726V63.2001H2.1725C1.57178 63.2001 1.05948 63.412 0.635729 63.8358C0.211973 64.2596 0 64.7719 0 65.3726V67.3476C0 67.9483 0.21191 68.4606 0.635729 68.8843C1.05955 69.3081 1.57178 69.5201 2.1725 69.5201H6.32V65.3726Z" fill="#1D4365"/>
<path d="M10.4673 63.2001H6.31982V69.5201H10.4673C11.068 69.5201 11.5803 69.3081 12.0041 68.8843C12.4279 68.4606 12.6398 67.9483 12.6398 67.3476V65.3726C12.6398 64.7719 12.4279 64.2596 12.0041 63.8358C11.5803 63.412 11.068 63.2001 10.4673 63.2001Z" fill="#1D4365"/>
<path d="M31.6 63.2001H25.28V69.5201H31.6V63.2001Z" fill="#1D4365"/>
<path d="M44.2399 67.3476C44.2399 67.9484 44.0279 68.4606 43.6042 68.8843C43.1804 69.308 42.6683 69.5201 42.0674 69.5201H40.0924C39.4918 69.5201 38.9795 69.308 38.5557 68.8843C38.1319 68.4606 37.9199 67.9484 37.9199 67.3476V65.3726C37.9199 64.7719 38.1318 64.2596 38.5557 63.8359C38.9795 63.412 39.4918 63.2001 40.0924 63.2001H42.0674C42.6683 63.2001 43.1806 63.412 43.6042 63.8358C44.0279 64.2597 44.2399 64.7719 44.2399 65.3726V67.3476Z" fill="#1D4365"/>
<path d="M56.8801 65.3726V63.2001H52.7326C52.1318 63.2001 51.6195 63.412 51.1958 63.8358C50.772 64.2596 50.5601 64.7719 50.5601 65.3726V69.5201H56.8801V65.3726Z" fill="#1D4365"/>
<path d="M63.1999 63.2001H56.8799V69.5201H63.1999V63.2001Z" fill="#1D4365"/>
<path d="M67.3475 63.2001H63.2V69.5201H67.3475C67.9482 69.5201 68.4605 69.3081 68.8842 68.8843C69.308 68.4606 69.52 67.9483 69.52 67.3476V65.3726C69.52 64.7719 69.308 64.2596 68.8842 63.8358C68.4605 63.412 67.9482 63.2001 67.3475 63.2001Z" fill="#1D4365"/>
<path d="M82.1478 65.2244H82.1601V63.2001H75.8401V65.2244H75.8524C75.8442 65.2903 75.8401 65.3396 75.8401 65.3726V67.3476C75.8401 67.9483 76.052 68.4606 76.4758 68.8843C76.8996 69.3081 77.4119 69.5201 78.0126 69.5201H79.9876C80.5883 69.5201 81.1006 69.3081 81.5244 68.8843C81.9481 68.4606 82.1601 67.9483 82.1601 67.3476V65.3726C82.1601 65.3396 82.1561 65.2903 82.1478 65.2244Z" fill="#1D4365"/>
<path d="M101.12 63.2001H94.8V69.5201H101.12V63.2001Z" fill="#1D4365"/>
<path d="M139.04 63.2001H132.72V69.5201H139.04V63.2001Z" fill="#1D4365"/>
<path d="M143.188 63.2001H139.04V69.5201H143.188C143.788 69.5201 144.301 69.3081 144.724 68.8843C145.148 68.4606 145.36 67.9483 145.36 67.3476V65.3726C145.36 64.7719 145.148 64.2596 144.724 63.8358C144.301 63.412 143.788 63.2001 143.188 63.2001Z" fill="#1D4365"/>
<path d="M157.988 65.2244H158V63.2001H151.68V65.2244H151.692C151.684 65.2903 151.68 65.3396 151.68 65.3726V67.3476C151.68 67.9483 151.892 68.4606 152.316 68.8843C152.74 69.3081 153.252 69.5201 153.853 69.5201H155.828C156.428 69.5201 156.941 69.3081 157.364 68.8843C157.788 68.4606 158 67.9483 158 67.3476V65.3726C158 65.3396 157.996 65.2903 157.988 65.2244Z" fill="#1D4365"/>
<path d="M18.9599 71.6925V69.52H14.8124C14.2117 69.52 13.6994 69.7319 13.2756 70.1557C12.8519 70.5796 12.6399 71.0918 12.6399 71.6925V73.6675C12.6399 74.2682 12.8518 74.7805 13.2756 75.2043C13.6994 75.628 14.2117 75.84 14.8124 75.84H18.9599V71.6925Z" fill="#1D4365"/>
<path d="M25.28 69.52H18.96V75.84H25.28V69.52Z" fill="#1D4365"/>
<path d="M31.6 69.52H25.28V75.84H29.4275C30.0282 75.84 30.5405 75.628 30.9643 75.2043C31.3881 74.7805 31.6 74.2682 31.6 73.6675V69.52Z" fill="#1D4365"/>
<path d="M56.8801 69.52H50.5601V73.6675C50.5601 74.2682 50.772 74.7805 51.1958 75.2043C51.6196 75.628 52.1318 75.84 52.7326 75.84H56.8801V69.52Z" fill="#1D4365"/>
<path d="M63.1999 69.52H56.8799V75.84H61.0274C61.6281 75.84 62.1404 75.628 62.5642 75.2043C62.9879 74.7805 63.1999 74.2682 63.1999 73.6675V69.52Z" fill="#1D4365"/>
<path d="M75.84 73.6675C75.84 74.2684 75.628 74.7805 75.2043 75.2043C74.7805 75.628 74.2684 75.84 73.6675 75.84H71.6925C71.0919 75.84 70.5796 75.628 70.1558 75.2043C69.732 74.7805 69.52 74.2684 69.52 73.6675V71.6925C69.52 71.0919 69.7319 70.5796 70.1557 70.1558C70.5796 69.732 71.0919 69.52 71.6925 69.52H73.6675C74.2684 69.52 74.7807 69.7319 75.2043 70.1557C75.628 70.5796 75.84 71.0919 75.84 71.6925V73.6675Z" fill="#1D4365"/>
<path d="M88.4799 71.6925C88.4799 71.0918 88.2679 70.5795 87.8442 70.1557C87.4204 69.732 86.9081 69.52 86.3074 69.52H84.3324C83.7317 69.52 83.2194 69.7319 82.7956 70.1557C82.3719 70.5796 82.1599 71.0918 82.1599 71.6925V73.6675C82.1599 73.7004 82.164 73.7499 82.1722 73.8157H82.1599V75.84H88.4799V73.8157H88.4676C88.4759 73.7499 88.4799 73.7005 88.4799 73.6675V71.6925Z" fill="#1D4365"/>
<path d="M101.12 69.52H94.8V75.84H101.12V69.52Z" fill="#1D4365"/>
<path d="M113.76 71.6925V69.52H109.612C109.012 69.52 108.499 69.7319 108.076 70.1557C107.652 70.5796 107.44 71.0918 107.44 71.6925V73.6675C107.44 74.2682 107.652 74.7805 108.076 75.2043C108.499 75.628 109.012 75.84 109.612 75.84H113.76V71.6925Z" fill="#1D4365"/>
<path d="M120.08 69.52H113.76V75.84H120.08V69.52Z" fill="#1D4365"/>
<path d="M126.4 69.52H120.08V75.84H126.4V69.52Z" fill="#1D4365"/>
<path d="M132.72 69.52H126.4V75.84H132.72V69.52Z" fill="#1D4365"/>
<path d="M139.04 69.52H132.72V75.84H136.867C137.468 75.84 137.98 75.628 138.404 75.2043C138.828 74.7805 139.04 74.2682 139.04 73.6675V69.52Z" fill="#1D4365"/>
<path d="M6.32 79.9876C6.32 80.5884 6.10796 81.1006 5.68427 81.5244C5.26052 81.9481 4.74834 82.1601 4.1475 82.1601H2.1725C1.57185 82.1601 1.05955 81.9481 0.635792 81.5244C0.211973 81.1006 0 80.5884 0 79.9876V78.0126C0 77.4119 0.21191 76.8996 0.635729 76.4759C1.05961 76.0521 1.57185 75.8401 2.1725 75.8401H4.1475C4.74841 75.8401 5.26064 76.052 5.68427 76.4758C6.10803 76.8997 6.32 77.4119 6.32 78.0126V79.9876Z" fill="#1D4365"/>
<path d="M25.2676 77.8644H25.28V75.8401H18.96V77.8644H18.9723C18.9641 77.9303 18.96 77.9797 18.96 78.0126V79.9876C18.96 80.5883 19.1719 81.1006 19.5957 81.5244C20.0195 81.9481 20.5317 82.1601 21.1325 82.1601H23.1075C23.7082 82.1601 24.2205 81.9481 24.6442 81.5244C25.068 81.1006 25.28 80.5883 25.28 79.9876V78.0126C25.28 77.9797 25.276 77.9303 25.2676 77.8644Z" fill="#1D4365"/>
<path d="M44.2399 78.0126V75.8401H40.0924C39.4917 75.8401 38.9794 76.052 38.5557 76.4758C38.1319 76.8996 37.9199 77.4119 37.9199 78.0126V79.9876C37.9199 80.5883 38.1318 81.1006 38.5557 81.5244C38.9795 81.9481 39.4917 82.1601 40.0924 82.1601H44.2399V78.0126Z" fill="#1D4365"/>
<path d="M48.3875 75.8401H44.24V82.1601H48.3875C48.9882 82.1601 49.5005 81.9481 49.9243 81.5244C50.348 81.1006 50.56 80.5883 50.56 79.9876V78.0126C50.56 77.4119 50.348 76.8996 49.9243 76.4758C49.5005 76.0521 48.9882 75.8401 48.3875 75.8401Z" fill="#1D4365"/>
<path d="M69.52 78.0126C69.52 77.4119 69.308 76.8996 68.8842 76.4758C68.4605 76.0521 67.9482 75.8401 67.3475 75.8401H65.3725C64.7717 75.8401 64.2594 76.052 63.8357 76.4758C63.4119 76.8996 63.2 77.4119 63.2 78.0126V79.9876C63.2 80.0205 63.2041 80.0699 63.2123 80.1357H63.2V82.1601H69.52V80.1357H69.5076C69.516 80.0699 69.52 80.0206 69.52 79.9876V78.0126Z" fill="#1D4365"/>
<path d="M82.1601 78.0126V75.8401H78.0126C77.4119 75.8401 76.8996 76.052 76.4758 76.4758C76.0521 76.8996 75.8401 77.4119 75.8401 78.0126V82.1601H82.1601V78.0126Z" fill="#1D4365"/>
<path d="M88.4799 75.8401H82.1599V82.1601H86.3074C86.9081 82.1601 87.4204 81.9481 87.8442 81.5244C88.2679 81.1006 88.4799 80.5883 88.4799 79.9876V75.8401Z" fill="#1D4365"/>
<path d="M101.12 75.8401H94.8V82.1601H101.12V75.8401Z" fill="#1D4365"/>
<path d="M107.44 78.0126C107.44 77.4119 107.228 76.8996 106.804 76.4758C106.381 76.0521 105.868 75.8401 105.268 75.8401H101.12V82.1601H107.44V78.0126Z" fill="#1D4365"/>
<path d="M120.08 75.8401H113.76V82.1601H120.08V75.8401Z" fill="#1D4365"/>
<path d="M126.4 75.8401H120.08V82.1601H126.4V75.8401Z" fill="#1D4365"/>
<path d="M158 78.0126C158 77.4119 157.788 76.8996 157.364 76.4758C156.941 76.0521 156.428 75.8401 155.828 75.8401H153.853C153.252 75.8401 152.74 76.052 152.316 76.4758C151.892 76.8996 151.68 77.4119 151.68 78.0126V79.9876C151.68 80.0205 151.684 80.0699 151.692 80.1357H151.68V82.1601H158V80.1357H157.988C157.996 80.0699 158 80.0206 158 79.9876V78.0126Z" fill="#1D4365"/>
<path d="M18.9599 84.3324C18.9599 83.7317 18.7479 83.2194 18.3242 82.7956C17.9004 82.3719 17.3881 82.1599 16.7874 82.1599H14.8124C14.2117 82.1599 13.6994 82.3718 13.2756 82.7956C12.8519 83.2195 12.6399 83.7317 12.6399 84.3324V86.3074C12.6399 86.3403 12.644 86.3898 12.6522 86.4556H12.6399V88.4799H18.9599V86.4556H18.9476C18.9559 86.3898 18.9599 86.3404 18.9599 86.3074V84.3324Z" fill="#1D4365"/>
<path d="M69.5076 84.1843H69.52V82.1599H63.2V84.1843H63.2123C63.2041 84.2501 63.2 84.2995 63.2 84.3324V86.3074C63.2 86.9081 63.4119 87.4204 63.8357 87.8442C64.2595 88.2679 64.7717 88.4799 65.3725 88.4799H67.3475C67.9482 88.4799 68.4605 88.2679 68.8842 87.8442C69.308 87.4204 69.52 86.9081 69.52 86.3074V84.3324C69.52 84.2995 69.516 84.2501 69.5076 84.1843Z" fill="#1D4365"/>
<path d="M82.1601 82.1599H75.8401V88.4799H82.1601V82.1599Z" fill="#1D4365"/>
<path d="M101.12 82.1599H94.8V88.4799H101.12V82.1599Z" fill="#1D4365"/>
<path d="M107.44 82.1599H101.12V88.4799H107.44V82.1599Z" fill="#1D4365"/>
<path d="M120.08 82.1599H113.76V88.4799H120.08V82.1599Z" fill="#1D4365"/>
<path d="M126.4 82.1599H120.08V88.4799H124.228C124.828 88.4799 125.341 88.2679 125.764 87.8442C126.188 87.4204 126.4 86.9081 126.4 86.3074V82.1599Z" fill="#1D4365"/>
<path d="M151.68 84.3324V82.1599H147.532C146.932 82.1599 146.419 82.3718 145.996 82.7956C145.572 83.2195 145.36 83.7317 145.36 84.3324V86.3074C145.36 86.9081 145.572 87.4204 145.996 87.8442C146.419 88.2679 146.932 88.4799 147.532 88.4799H151.68V84.3324Z" fill="#1D4365"/>
<path d="M158 82.1599H151.68V88.4799H158V82.1599Z" fill="#1D4365"/>
<path d="M6.32 90.6525V88.48H2.1725C1.57178 88.48 1.05948 88.6919 0.635729 89.1157C0.211973 89.5395 0 90.0518 0 90.6525V92.6275C0 93.2282 0.21191 93.7405 0.635729 94.1643C1.05955 94.588 1.57178 94.8 2.1725 94.8H6.32V90.6525Z" fill="#1D4365"/>
<path d="M12.6398 88.48H6.31982V94.8H12.6398V88.48Z" fill="#1D4365"/>
<path d="M18.9599 88.48H12.6399V94.8H18.9599V88.48Z" fill="#1D4365"/>
<path d="M25.28 88.48H18.96V94.8H25.28V88.48Z" fill="#1D4365"/>
<path d="M31.6 90.6525C31.6 90.0518 31.3881 89.5395 30.9643 89.1157C30.5405 88.692 30.0282 88.48 29.4275 88.48H25.28V94.8H31.6V90.6525Z" fill="#1D4365"/>
<path d="M44.2399 92.6275C44.2399 93.2283 44.0279 93.7405 43.6042 94.1643C43.1804 94.5879 42.6683 94.8 42.0674 94.8H40.0924C39.4918 94.8 38.9795 94.5879 38.5557 94.1643C38.1319 93.7405 37.9199 93.2283 37.9199 92.6275V90.6525C37.9199 90.0518 38.1318 89.5395 38.5557 89.1158C38.9795 88.692 39.4918 88.48 40.0924 88.48H42.0674C42.6683 88.48 43.1806 88.6919 43.6042 89.1157C44.0279 89.5396 44.2399 90.0518 44.2399 90.6525V92.6275Z" fill="#1D4365"/>
<path d="M56.8801 90.6525V88.48H52.7326C52.1318 88.48 51.6195 88.6919 51.1958 89.1157C50.772 89.5395 50.5601 90.0518 50.5601 90.6525V94.8H56.8801V90.6525Z" fill="#1D4365"/>
<path d="M61.0274 88.48H56.8799V94.8H61.0274C61.6281 94.8 62.1404 94.588 62.5642 94.1643C62.9879 93.7405 63.1999 93.2282 63.1999 92.6275V90.6525C63.1999 90.0518 62.9879 89.5395 62.5642 89.1157C62.1404 88.692 61.6281 88.48 61.0274 88.48Z" fill="#1D4365"/>
<path d="M82.1601 88.48H75.8401V94.8H82.1601V88.48Z" fill="#1D4365"/>
<path d="M88.4799 88.48H82.1599V94.8H88.4799V88.48Z" fill="#1D4365"/>
<path d="M94.8 88.48H88.48V94.8H94.8V88.48Z" fill="#1D4365"/>
<path d="M101.12 88.48H94.8V94.8H101.12V88.48Z" fill="#1D4365"/>
<path d="M107.44 88.48H101.12V94.8H107.44V88.48Z" fill="#1D4365"/>
<path d="M120.08 88.48H113.76V94.8H120.08V88.48Z" fill="#1D4365"/>
<path d="M139.04 90.6525V88.48H134.892C134.292 88.48 133.779 88.6919 133.356 89.1157C132.932 89.5395 132.72 90.0518 132.72 90.6525V92.6275C132.72 93.2282 132.932 93.7405 133.356 94.1643C133.78 94.588 134.292 94.8 134.892 94.8H139.04V90.6525Z" fill="#1D4365"/>
<path d="M143.188 88.48H139.04V94.8H143.188C143.788 94.8 144.301 94.588 144.724 94.1643C145.148 93.7405 145.36 93.2282 145.36 92.6275V90.6525C145.36 90.0518 145.148 89.5395 144.724 89.1157C144.301 88.692 143.788 88.48 143.188 88.48Z" fill="#1D4365"/>
<path d="M157.988 90.5043H158V88.48H151.68V90.5043H151.692C151.684 90.5702 151.68 90.6196 151.68 90.6525V92.6275C151.68 93.2282 151.892 93.7405 152.316 94.1643C152.74 94.588 153.252 94.8 153.853 94.8H155.828C156.428 94.8 156.941 94.588 157.364 94.1643C157.788 93.7405 158 93.2282 158 92.6275V90.6525C158 90.6196 157.996 90.5702 157.988 90.5043Z" fill="#1D4365"/>
<path d="M25.28 94.7999H18.96V98.9474C18.96 99.5481 19.1719 100.06 19.5957 100.484C20.0195 100.908 20.5317 101.12 21.1325 101.12H25.28V94.7999Z" fill="#1D4365"/>
<path d="M31.6 94.7999H25.28V101.12H29.4275C30.0282 101.12 30.5405 100.908 30.9643 100.484C31.3881 100.06 31.6 99.5481 31.6 98.9474V94.7999Z" fill="#1D4365"/>
<path d="M50.56 96.9724V94.7999H46.4125C45.8118 94.7999 45.2995 95.0118 44.8757 95.4357C44.452 95.8595 44.24 96.3717 44.24 96.9724V98.9474C44.24 99.5481 44.4519 100.06 44.8757 100.484C45.2995 100.908 45.8118 101.12 46.4125 101.12H50.56V96.9724Z" fill="#1D4365"/>
<path d="M56.8801 94.7999H50.5601V101.12H54.7076C55.3083 101.12 55.8206 100.908 56.2443 100.484C56.6681 100.06 56.8801 99.5481 56.8801 98.9474V94.7999Z" fill="#1D4365"/>
<path d="M75.84 96.9724V94.7999H71.6925C71.0918 94.7999 70.5795 95.0118 70.1557 95.4357C69.732 95.8595 69.52 96.3717 69.52 96.9724V98.9474C69.52 99.5481 69.7319 100.06 70.1557 100.484C70.5796 100.908 71.0918 101.12 71.6925 101.12H75.84V96.9724Z" fill="#1D4365"/>
<path d="M82.1601 94.7999H75.8401V101.12H79.9876C80.5883 101.12 81.1006 100.908 81.5244 100.484C81.9481 100.06 82.1601 99.5481 82.1601 98.9474V94.7999Z" fill="#1D4365"/>
<path d="M94.8 94.7999H88.48V101.12H94.8V94.7999Z" fill="#1D4365"/>
<path d="M101.12 94.7999H94.8V101.12H101.12V94.7999Z" fill="#1D4365"/>
<path d="M107.44 94.7999H101.12V101.12H107.44V94.7999Z" fill="#1D4365"/>
<path d="M113.76 94.7999H107.44V101.12H113.76V94.7999Z" fill="#1D4365"/>
<path d="M120.08 94.7999H113.76V101.12H120.08V94.7999Z" fill="#1D4365"/>
<path d="M126.4 96.9724C126.4 96.3717 126.188 95.8594 125.764 95.4357C125.341 95.0119 124.828 94.7999 124.228 94.7999H120.08V101.12H126.4V96.9724Z" fill="#1D4365"/>
<path d="M6.32 103.292V101.12H2.1725C1.57178 101.12 1.05948 101.332 0.635729 101.756C0.211973 102.179 0 102.692 0 103.292V105.267C0 105.868 0.21191 106.38 0.635729 106.804C1.05955 107.228 1.57178 107.44 2.1725 107.44H6.32V103.292Z" fill="#1D4365"/>
<path d="M12.6398 101.12H6.31982V107.44H12.6398V101.12Z" fill="#1D4365"/>
<path d="M16.7874 101.12H12.6399V107.44H16.7874C17.3881 107.44 17.9004 107.228 18.3242 106.804C18.7479 106.38 18.9599 105.868 18.9599 105.267V103.292C18.9599 102.692 18.7479 102.179 18.3242 101.756C17.9004 101.332 17.3881 101.12 16.7874 101.12Z" fill="#1D4365"/>
<path d="M37.9199 103.292V101.12H33.7724C33.1716 101.12 32.6593 101.332 32.2356 101.756C31.8118 102.179 31.5999 102.692 31.5999 103.292V105.267C31.5999 105.868 31.8118 106.38 32.2356 106.804C32.6594 107.228 33.1716 107.44 33.7724 107.44H37.9199V103.292Z" fill="#1D4365"/>
<path d="M42.0674 101.12H37.9199V107.44H42.0674C42.6681 107.44 43.1804 107.228 43.6042 106.804C44.0279 106.38 44.2399 105.868 44.2399 105.267V103.292C44.2399 102.692 44.0279 102.179 43.6042 101.756C43.1804 101.332 42.6681 101.12 42.0674 101.12Z" fill="#1D4365"/>
<path d="M63.1999 105.267C63.1999 105.868 62.9878 106.38 62.5642 106.804C62.1404 107.228 61.6282 107.44 61.0274 107.44H59.0524C58.4517 107.44 57.9394 107.228 57.5157 106.804C57.0919 106.38 56.8799 105.868 56.8799 105.267V103.292C56.8799 102.692 57.0918 102.179 57.5156 101.756C57.9395 101.332 58.4517 101.12 59.0524 101.12H61.0274C61.6283 101.12 62.1405 101.332 62.5642 101.756C62.9879 102.18 63.1999 102.692 63.1999 103.292V105.267Z" fill="#1D4365"/>
<path d="M88.4799 103.292V101.12H84.3324C83.7317 101.12 83.2194 101.332 82.7956 101.756C82.3719 102.179 82.1599 102.692 82.1599 103.292V107.44H88.4799V103.292Z" fill="#1D4365"/>
<path d="M94.8 101.12H88.48V107.44H94.8V101.12Z" fill="#1D4365"/>
<path d="M107.44 101.12H101.12V107.44H107.44V101.12Z" fill="#1D4365"/>
<path d="M113.76 101.12H107.44V107.44H113.76V101.12Z" fill="#1D4365"/>
<path d="M120.08 101.12H113.76V107.44H120.08V101.12Z" fill="#1D4365"/>
<path d="M126.4 101.12H120.08V107.44H126.4V101.12Z" fill="#1D4365"/>
<path d="M132.72 103.292C132.72 102.692 132.508 102.179 132.084 101.756C131.661 101.332 131.148 101.12 130.548 101.12H126.4V107.44H132.72V103.292Z" fill="#1D4365"/>
<path d="M151.68 105.267C151.68 105.868 151.468 106.38 151.044 106.804C150.62 107.228 150.108 107.44 149.507 107.44H147.532C146.932 107.44 146.419 107.228 145.996 106.804C145.572 106.38 145.36 105.868 145.36 105.267V103.292C145.36 102.692 145.572 102.179 145.996 101.756C146.419 101.332 146.932 101.12 147.532 101.12H149.507C150.108 101.12 150.621 101.332 151.044 101.756C151.468 102.18 151.68 102.692 151.68 103.292V105.267Z" fill="#1D4365"/>
<path d="M56.8801 109.612C56.8801 109.012 56.6681 108.499 56.2443 108.076C55.8206 107.652 55.3083 107.44 54.7076 107.44H52.7326C52.1318 107.44 51.6195 107.652 51.1958 108.076C50.772 108.499 50.5601 109.012 50.5601 109.612V111.587C50.5601 111.62 50.5642 111.67 50.5724 111.736H50.5601V113.76H56.8801V111.736H56.8677C56.8761 111.67 56.8801 111.62 56.8801 111.587V109.612Z" fill="#1D4365"/>
<path d="M69.52 111.587C69.52 112.188 69.3079 112.7 68.8842 113.124C68.4605 113.548 67.9483 113.76 67.3475 113.76H65.3725C64.7718 113.76 64.2595 113.548 63.8357 113.124C63.4119 112.7 63.2 112.188 63.2 111.587V109.612C63.2 109.012 63.4119 108.499 63.8357 108.076C64.2596 107.652 64.7718 107.44 65.3725 107.44H67.3475C67.9484 107.44 68.4606 107.652 68.8842 108.076C69.308 108.5 69.52 109.012 69.52 109.612V111.587Z" fill="#1D4365"/>
<path d="M88.4799 107.44H82.1599V111.587C82.1599 112.188 82.3718 112.7 82.7956 113.124C83.2195 113.548 83.7317 113.76 84.3324 113.76H88.4799V107.44Z" fill="#1D4365"/>
<path d="M94.8 107.44H88.48V113.76H92.6275C93.2282 113.76 93.7405 113.548 94.1643 113.124C94.588 112.7 94.8 112.188 94.8 111.587V107.44Z" fill="#1D4365"/>
<path d="M107.44 107.44H101.12V113.76H107.44V107.44Z" fill="#1D4365"/>
<path d="M132.72 107.44H126.4V113.76H132.72V107.44Z" fill="#1D4365"/>
<path d="M145.36 111.587C145.36 112.188 145.148 112.7 144.724 113.124C144.301 113.548 143.788 113.76 143.188 113.76H141.213C140.612 113.76 140.1 113.548 139.676 113.124C139.252 112.7 139.04 112.188 139.04 111.587V109.612C139.04 109.012 139.252 108.499 139.676 108.076C140.1 107.652 140.612 107.44 141.213 107.44H143.188C143.788 107.44 144.301 107.652 144.724 108.076C145.148 108.5 145.36 109.012 145.36 109.612V111.587Z" fill="#1D4365"/>
<path d="M158 109.612C158 109.012 157.788 108.499 157.364 108.076C156.941 107.652 156.428 107.44 155.828 107.44H153.853C153.252 107.44 152.74 107.652 152.316 108.076C151.892 108.499 151.68 109.012 151.68 109.612V111.587C151.68 111.62 151.684 111.67 151.692 111.736H151.68V113.76H158V111.736H157.988C157.996 111.67 158 111.62 158 111.587V109.612Z" fill="#1D4365"/>
<path d="M56.8677 115.784H56.8801V113.76H50.5601V115.784H50.5724C50.5642 115.85 50.5601 115.9 50.5601 115.932V117.907C50.5601 118.508 50.772 119.02 51.1958 119.444C51.6196 119.868 52.1318 120.08 52.7326 120.08H54.7076C55.3083 120.08 55.8206 119.868 56.2443 119.444C56.6681 119.02 56.8801 118.508 56.8801 117.907V115.932C56.8801 115.9 56.8761 115.85 56.8677 115.784Z" fill="#1D4365"/>
<path d="M75.84 117.907C75.84 118.508 75.628 119.02 75.2043 119.444C74.7805 119.868 74.2684 120.08 73.6675 120.08H71.6925C71.0919 120.08 70.5796 119.868 70.1558 119.444C69.732 119.02 69.52 118.508 69.52 117.907V115.932C69.52 115.332 69.7319 114.819 70.1557 114.396C70.5796 113.972 71.0919 113.76 71.6925 113.76H73.6675C74.2684 113.76 74.7807 113.972 75.2043 114.396C75.628 114.82 75.84 115.332 75.84 115.932V117.907Z" fill="#1D4365"/>
<path d="M107.44 113.76H101.12V120.08H107.44V113.76Z" fill="#1D4365"/>
<path d="M120.08 117.907C120.08 118.508 119.868 119.02 119.444 119.444C119.021 119.868 118.508 120.08 117.908 120.08H115.933C115.332 120.08 114.82 119.868 114.396 119.444C113.972 119.02 113.76 118.508 113.76 117.907V115.932C113.76 115.332 113.972 114.819 114.396 114.396C114.82 113.972 115.332 113.76 115.933 113.76H117.908C118.508 113.76 119.021 113.972 119.444 114.396C119.868 114.82 120.08 115.332 120.08 115.932V117.907Z" fill="#1D4365"/>
<path d="M132.72 113.76H126.4V120.08H132.72V113.76Z" fill="#1D4365"/>
<path d="M136.867 113.76H132.72V120.08H136.867C137.468 120.08 137.98 119.868 138.404 119.444C138.828 119.02 139.04 118.508 139.04 117.907V115.932C139.04 115.332 138.828 114.819 138.404 114.396C137.98 113.972 137.468 113.76 136.867 113.76Z" fill="#1D4365"/>
<path d="M157.988 115.784H158V113.76H151.68V115.784H151.692C151.684 115.85 151.68 115.9 151.68 115.932V117.907C151.68 118.508 151.892 119.02 152.316 119.444C152.74 119.868 153.252 120.08 153.853 120.08H155.828C156.428 120.08 156.941 119.868 157.364 119.444C157.788 119.02 158 118.508 158 117.907V115.932C158 115.9 157.996 115.85 157.988 115.784Z" fill="#1D4365"/>
<path d="M88.4799 122.252C88.4799 121.652 88.2679 121.139 87.8442 120.716C87.4204 120.292 86.9081 120.08 86.3074 120.08H84.3324C83.7317 120.08 83.2194 120.292 82.7956 120.716C82.3719 121.14 82.1599 121.652 82.1599 122.252V124.227C82.1599 124.26 82.164 124.31 82.1722 124.376H82.1599V126.4H88.4799V124.376H88.4676C88.4759 124.31 88.4799 124.26 88.4799 124.227V122.252Z" fill="#1D4365"/>
<path d="M107.44 120.08H101.12V126.4H107.44V120.08Z" fill="#1D4365"/>
<path d="M132.72 120.08H126.4V126.4H132.72V120.08Z" fill="#1D4365"/>
<path d="M151.68 122.252C151.68 121.652 151.468 121.139 151.044 120.716C150.62 120.292 150.108 120.08 149.507 120.08H147.532C146.932 120.08 146.419 120.292 145.996 120.716C145.572 121.14 145.36 121.652 145.36 122.252V124.227C145.36 124.26 145.364 124.31 145.372 124.376H145.36V126.4H151.68V124.376H151.668C151.676 124.31 151.68 124.26 151.68 124.227V122.252Z" fill="#1D4365"/>
<path d="M75.84 128.572V126.4H71.6925C71.0918 126.4 70.5795 126.612 70.1557 127.036C69.732 127.46 69.52 127.972 69.52 128.572V130.547C69.52 131.148 69.7319 131.66 70.1557 132.084C70.5796 132.508 71.0918 132.72 71.6925 132.72H75.84V128.572Z" fill="#1D4365"/>
<path d="M82.1601 126.4H75.8401V132.72H82.1601V126.4Z" fill="#1D4365"/>
<path d="M88.4799 126.4H82.1599V132.72H86.3074C86.9081 132.72 87.4204 132.508 87.8442 132.084C88.2679 131.66 88.4799 131.148 88.4799 130.547V126.4Z" fill="#1D4365"/>
<path d="M101.12 128.572V126.4H96.9725C96.3718 126.4 95.8595 126.612 95.4358 127.036C95.012 127.46 94.8 127.972 94.8 128.572V132.72H101.12V128.572Z" fill="#1D4365"/>
<path d="M107.44 126.4H101.12V132.72H107.44V126.4Z" fill="#1D4365"/>
<path d="M113.76 126.4H107.44V132.72H113.76V126.4Z" fill="#1D4365"/>
<path d="M120.08 126.4H113.76V132.72H120.08V126.4Z" fill="#1D4365"/>
<path d="M126.4 126.4H120.08V132.72H126.4V126.4Z" fill="#1D4365"/>
<path d="M132.72 126.4H126.4V132.72H132.72V126.4Z" fill="#1D4365"/>
<path d="M139.04 128.572C139.04 127.972 138.828 127.459 138.404 127.036C137.98 126.612 137.468 126.4 136.867 126.4H132.72V132.72H139.04V128.572Z" fill="#1D4365"/>
<path d="M151.68 126.4H145.36V132.72H151.68V126.4Z" fill="#1D4365"/>
<path d="M155.828 126.4H151.68V132.72H155.828C156.428 132.72 156.941 132.508 157.364 132.084C157.788 131.66 158 131.148 158 130.547V128.572C158 127.972 157.788 127.459 157.364 127.036C156.941 126.612 156.428 126.4 155.828 126.4Z" fill="#1D4365"/>
<path d="M69.52 136.867C69.52 137.468 69.3079 137.98 68.8842 138.404C68.4605 138.828 67.9483 139.04 67.3475 139.04H65.3725C64.7718 139.04 64.2595 138.828 63.8357 138.404C63.4119 137.98 63.2 137.468 63.2 136.867V134.892C63.2 134.292 63.4119 133.78 63.8357 133.356C64.2596 132.932 64.7718 132.72 65.3725 132.72H67.3475C67.9484 132.72 68.4606 132.932 68.8842 133.356C69.308 133.78 69.52 134.292 69.52 134.892V136.867Z" fill="#1D4365"/>
<path d="M82.1601 132.72H75.8401V139.04H82.1601V132.72Z" fill="#1D4365"/>
<path d="M101.108 134.744H101.12V132.72H94.8V134.744H94.8124C94.8042 134.81 94.8 134.86 94.8 134.892V136.867C94.8 137.468 95.012 137.98 95.4358 138.404C95.8596 138.828 96.3718 139.04 96.9725 139.04H98.9475C99.5483 139.04 100.061 138.828 100.484 138.404C100.908 137.98 101.12 137.468 101.12 136.867V134.892C101.12 134.86 101.116 134.81 101.108 134.744Z" fill="#1D4365"/>
<path d="M113.76 132.72H107.44V139.04H113.76V132.72Z" fill="#1D4365"/>
<path d="M132.72 132.72H126.4V139.04H132.72V132.72Z" fill="#1D4365"/>
<path d="M139.04 132.72H132.72V139.04H139.04V132.72Z" fill="#1D4365"/>
<path d="M145.36 132.72H139.04V139.04H145.36V132.72Z" fill="#1D4365"/>
<path d="M151.68 132.72H145.36V139.04H151.68V132.72Z" fill="#1D4365"/>
<path d="M56.8801 143.187C56.8801 143.788 56.668 144.3 56.2443 144.724C55.8206 145.148 55.3084 145.36 54.7076 145.36H52.7326C52.1319 145.36 51.6196 145.148 51.1959 144.724C50.772 144.3 50.5601 143.788 50.5601 143.187V141.212C50.5601 140.612 50.772 140.1 51.1958 139.676C51.6197 139.252 52.1319 139.04 52.7326 139.04H54.7076C55.3085 139.04 55.8207 139.252 56.2443 139.676C56.6681 140.1 56.8801 140.612 56.8801 141.212V143.187Z" fill="#1D4365"/>
<path d="M82.1601 139.04H75.8401V145.36H82.1601V139.04Z" fill="#1D4365"/>
<path d="M88.4799 139.04H82.1599V145.36H88.4799V139.04Z" fill="#1D4365"/>
<path d="M94.8 141.212C94.8 140.612 94.588 140.099 94.1643 139.676C93.7405 139.252 93.2282 139.04 92.6275 139.04H88.48V145.36H94.8V141.212Z" fill="#1D4365"/>
<path d="M107.44 141.212V139.04H103.293C102.692 139.04 102.18 139.252 101.756 139.676C101.332 140.1 101.12 140.612 101.12 141.212V145.36H107.44V141.212Z" fill="#1D4365"/>
<path d="M113.76 139.04H107.44V145.36H113.76V139.04Z" fill="#1D4365"/>
<path d="M132.72 139.04H126.4V145.36H132.72V139.04Z" fill="#1D4365"/>
<path d="M151.68 139.04H145.36V143.187C145.36 143.788 145.572 144.3 145.996 144.724C146.419 145.148 146.932 145.36 147.532 145.36H151.68V139.04Z" fill="#1D4365"/>
<path d="M155.828 139.04H151.68V145.36H155.828C156.428 145.36 156.941 145.148 157.364 144.724C157.788 144.3 158 143.788 158 143.187V141.212C158 140.612 157.788 140.099 157.364 139.676C156.941 139.252 156.428 139.04 155.828 139.04Z" fill="#1D4365"/>
<path d="M63.1999 147.532V145.36H59.0524C58.4517 145.36 57.9394 145.572 57.5156 145.996C57.0919 146.42 56.8799 146.932 56.8799 147.532V151.68H63.1999V147.532Z" fill="#1D4365"/>
<path d="M69.52 145.36H63.2V151.68H69.52V145.36Z" fill="#1D4365"/>
<path d="M75.84 145.36H69.52V151.68H75.84V145.36Z" fill="#1D4365"/>
<path d="M82.1601 145.36H75.8401V151.68H79.9876C80.5883 151.68 81.1006 151.468 81.5244 151.044C81.9481 150.621 82.1601 150.108 82.1601 149.507V145.36Z" fill="#1D4365"/>
<path d="M94.8 145.36H88.48V151.68H94.8V145.36Z" fill="#1D4365"/>
<path d="M107.44 145.36H101.12V151.68H107.44V145.36Z" fill="#1D4365"/>
<path d="M113.76 145.36H107.44V151.68H113.76V145.36Z" fill="#1D4365"/>
<path d="M120.08 145.36H113.76V151.68H120.08V145.36Z" fill="#1D4365"/>
<path d="M126.4 145.36H120.08V151.68H126.4V145.36Z" fill="#1D4365"/>
<path d="M132.72 145.36H126.4V151.68H130.548C131.148 151.68 131.661 151.468 132.084 151.044C132.508 150.621 132.72 150.108 132.72 149.507V145.36Z" fill="#1D4365"/>
<path d="M56.8801 153.852V151.68H52.7326C52.1318 151.68 51.6195 151.892 51.1958 152.316C50.772 152.74 50.5601 153.252 50.5601 153.852V155.827C50.5601 156.428 50.772 156.941 51.1958 157.364C51.6196 157.788 52.1318 158 52.7326 158H56.8801V153.852Z" fill="#1D4365"/>
<path d="M63.1999 151.68H56.8799V158H61.0274C61.6281 158 62.1404 157.788 62.5642 157.364C62.9879 156.941 63.1999 156.428 63.1999 155.827V151.68Z" fill="#1D4365"/>
<path d="M88.4799 153.852V151.68H84.3324C83.7317 151.68 83.2194 151.892 82.7956 152.316C82.3719 152.74 82.1599 153.252 82.1599 153.852V155.827C82.1599 156.428 82.3718 156.941 82.7956 157.364C83.2195 157.788 83.7317 158 84.3324 158H88.4799V153.852Z" fill="#1D4365"/>
<path d="M94.8 151.68H88.48V158H92.6275C93.2282 158 93.7405 157.788 94.1643 157.364C94.588 156.941 94.8 156.428 94.8 155.827V151.68Z" fill="#1D4365"/>
<path d="M107.44 151.68H101.12V155.827C101.12 156.428 101.332 156.941 101.756 157.364C102.18 157.788 102.692 158 103.293 158H107.44V151.68Z" fill="#1D4365"/>
<path d="M113.76 151.68H107.44V158H113.76V151.68Z" fill="#1D4365"/>
<path d="M120.08 151.68H113.76V158H117.908C118.508 158 119.021 157.788 119.444 157.364C119.868 156.941 120.08 156.428 120.08 155.827V151.68Z" fill="#1D4365"/>
<path d="M139.04 155.827C139.04 156.428 138.828 156.941 138.404 157.364C137.98 157.788 137.468 158 136.867 158H134.892C134.292 158 133.78 157.788 133.356 157.364C132.932 156.941 132.72 156.428 132.72 155.827V153.852C132.72 153.252 132.932 152.74 133.356 152.316C133.78 151.892 134.292 151.68 134.892 151.68H136.867C137.468 151.68 137.981 151.892 138.404 152.316C138.828 152.74 139.04 153.252 139.04 153.852V155.827Z" fill="#1D4365"/>
<path d="M158 155.827C158 156.428 157.788 156.941 157.364 157.364C156.941 157.788 156.429 158 155.828 158H153.853C153.252 158 152.74 157.788 152.316 157.364C151.892 156.941 151.68 156.428 151.68 155.827V153.852C151.68 153.252 151.892 152.74 152.316 152.316C152.74 151.892 153.252 151.68 153.853 151.68H155.828C156.429 151.68 156.941 151.892 157.364 152.316C157.788 152.74 158 153.252 158 153.852V155.827Z" fill="#1D4365"/>
<path d="M29.136 0.00372314H15.104C8.26536 0.00372314 2.47169 4.52195 0.61936 10.6974C0.427801 11.3362 0.27827 11.9928 0.174306 12.6639C0.059724 13.4045 0 14.1627 0 14.9347V29.2999C0 37.5369 6.77757 44.2353 15.104 44.2353L22.12 44.2366L29.136 44.2349C37.462 44.2349 44.24 37.5365 44.24 29.2994V14.9347C44.24 6.70166 37.4624 0.00372314 29.136 0.00372314ZM37.604 29.2999C37.604 33.8761 33.8056 37.5993 29.1343 37.5993L22.12 37.6006L15.1057 37.5989C10.4344 37.5989 6.636 33.8756 6.636 29.2999V14.9347C6.636 13.5053 7.00673 12.1595 7.65927 10.9836C8.28748 9.85243 9.17626 8.87959 10.2464 8.143C11.6223 7.19582 13.2977 6.63972 15.1035 6.63972H29.136C33.8056 6.63972 37.604 10.3607 37.604 14.9347V29.2999Z" fill="#1D4365"/>
<path d="M142.896 0.00360107H128.864C122.025 0.00360107 116.232 4.52183 114.379 10.6973C114.188 11.3361 114.038 11.9926 113.934 12.6638C113.82 13.4043 113.76 14.1626 113.76 14.9346V29.2998C113.76 37.5368 120.538 44.2352 128.864 44.2352L135.88 44.2365L142.896 44.2347C151.222 44.2347 158 37.5364 158 29.2993V14.9346C158 6.70154 151.222 0.00360107 142.896 0.00360107ZM151.364 29.2998C151.364 33.876 147.566 37.5992 142.894 37.5992L135.88 37.6005L128.866 37.5988C124.194 37.5988 120.396 33.8755 120.396 29.2998V14.9346C120.396 13.5052 120.767 12.1594 121.419 10.9835C122.047 9.85231 122.936 8.87947 124.006 8.14288C125.382 7.1957 127.058 6.6396 128.864 6.6396H142.896C147.566 6.6396 151.364 10.3606 151.364 14.9346V29.2998Z" fill="#1D4365"/>
<path d="M29.136 113.764H15.104C8.26536 113.764 2.47169 118.282 0.61936 124.457C0.427801 125.096 0.27827 125.753 0.174306 126.424C0.059724 127.164 0 127.923 0 128.695V143.06C0 151.297 6.77757 157.995 15.104 157.995L22.12 157.996L29.136 157.995C37.462 157.995 44.24 151.296 44.24 143.059V128.695C44.24 120.461 37.4624 113.764 29.136 113.764ZM37.604 143.06C37.604 147.636 33.8056 151.359 29.1343 151.359L22.12 151.36L15.1057 151.359C10.4344 151.359 6.636 147.635 6.636 143.06V128.695C6.636 127.265 7.00673 125.919 7.65927 124.743C8.28748 123.612 9.17626 122.639 10.2464 121.903C11.6223 120.956 13.2977 120.4 15.1035 120.4H29.136C33.8056 120.4 37.604 124.121 37.604 128.695V143.06Z" fill="#1D4365"/>
<path d="M31.5999 12.64H12.6399V31.6H31.5999V12.64Z" fill="#1D4365"/>
<path d="M145.36 12.64H126.4V31.6H145.36V12.64Z" fill="#1D4365"/>
<path d="M31.5999 126.4H12.6399V145.36H31.5999V126.4Z" fill="#1D4365"/>
</svg>
