<svg xmlns="http://www.w3.org/2000/svg" width="100" height="100" fill="none"><path stroke="#292D32" stroke-linecap="round" stroke-linejoin="round" stroke-width="1.5" d="M62.499 91.667c20.833 0 29.166-8.333 29.166-29.166v-25c0-20.834-8.333-29.167-29.166-29.167h-25c-20.834 0-29.167 8.333-29.167 29.167v25c0 20.833 8.333 29.166 29.167 29.166h25Z"/><path stroke="#292D32" stroke-linecap="round" stroke-linejoin="round" stroke-width="1.5" d="M64.582 40.625a6.25 6.25 0 1 1 0-12.5 6.25 6.25 0 0 1 0 12.5ZM35.418 40.625a6.25 6.25 0 1 1 0-12.5 6.25 6.25 0 0 1 0 12.5Z" clip-rule="evenodd"/><path stroke="#292D32" stroke-linecap="round" stroke-linejoin="round" stroke-width="1.5" d="M65 55.416a3.734 3.734 0 0 1 3.75 3.75c0 10.375-8.375 18.75-18.75 18.75s-18.75-8.375-18.75-18.75a3.734 3.734 0 0 1 3.75-3.75h30Z"/></svg>