<svg width="30" height="30" viewBox="0 0 30 30" fill="none" xmlns="http://www.w3.org/2000/svg">
<path d="M27.5 15C27.5 8.125 21.875 2.5 15 2.5C8.125 2.5 2.5 8.125 2.5 15C2.5 21.875 8.125 27.5 15 27.5C21.875 27.5 27.5 21.875 27.5 15Z" fill="#ED0B70"/>
<path d="M13.7046 10.1992H16.3086L15.8746 16.5972H14.1386L13.7046 10.1992ZM15.0066 20.1112C14.6239 20.1112 14.3019 19.9899 14.0406 19.7472C13.7886 19.4952 13.6626 19.1919 13.6626 18.8372C13.6626 18.4826 13.7886 18.1886 14.0406 17.9552C14.2926 17.7126 14.6146 17.5912 15.0066 17.5912C15.3986 17.5912 15.7206 17.7126 15.9726 17.9552C16.2246 18.1886 16.3506 18.4826 16.3506 18.8372C16.3506 19.1919 16.2199 19.4952 15.9586 19.7472C15.7066 19.9899 15.3893 20.1112 15.0066 20.1112Z" fill="white"/>
</svg>
