<svg width="94" height="94" viewBox="0 0 94 94" fill="none" xmlns="http://www.w3.org/2000/svg">
<path d="M45.4458 55.2815L44.6646 27.9395H49.3518L48.5148 55.2815H45.4458ZM47.0082 67.2785C46.1898 67.2785 45.483 66.9995 44.8878 66.4415C44.3298 65.8463 44.0508 65.1581 44.0508 64.3769C44.0508 63.5585 44.3298 62.8889 44.8878 62.3681C45.483 61.8101 46.1898 61.5311 47.0082 61.5311C47.8638 61.5311 48.552 61.8101 49.0728 62.3681C49.6308 62.8889 49.9098 63.5585 49.9098 64.3769C49.9098 65.1581 49.6308 65.8463 49.0728 66.4415C48.552 66.9995 47.8638 67.2785 47.0082 67.2785Z" fill="#ED0B70"/>
</svg>
