<svg xmlns="http://www.w3.org/2000/svg" width="70" height="70" fill="none"><path fill="currentColor" d="M18.82 57.31c2.602.315 5.524 2.023 7.97 2.325 2.458.315 3.22-1.698 3.22-1.698s2.766-.627 5.675-.7c2.912-.082 5.668.615 5.668.615s.534 1.24 1.532 1.783c.998.552 3.146.627 4.523-.844 1.38-1.481 5.06-3.347 7.126-4.513 2.08-1.17 1.698-2.952.393-3.494-1.306-.542-2.375-1.396-2.293-3.035.07-1.625-1.153-2.709-1.153-2.709s1.071-3.576.073-6.54c-.998-2.948-4.288-7.691-6.818-11.257-2.53-3.577-.382-7.706-2.685-12.982-2.304-5.285-8.277-4.973-11.497-2.72-3.22 2.252-2.232 7.839-2.077 10.49.155 2.636.071 4.523-.226 5.201-.298.689-2.375 3.19-3.754 5.285-1.377 2.106-2.375 6.454-3.383 8.247-.988 1.783-.298 3.409-.298 3.409s-.69.24-1.234 1.41c-.535 1.155-1.604 1.707-3.528 2.084-1.911.397-1.911 1.647-1.45 3.045.463 1.396 0 2.178-.535 3.961s2.14 2.325 4.751 2.637Zm27.037-8.133c1.367.606 3.33-.237 3.928-.843.595-.604 1.016-1.5 1.016-1.5s.598.301.537 1.26c-.063.97.41 2.356 1.306 2.837.895.477 2.261 1.145 1.553 1.812-.721.667-4.712 2.295-5.905 3.566-1.182 1.262-2.735 2.295-3.68 1.99-.956-.3-1.79-1.625-1.38-3.562.425-1.93.782-4.047.722-5.256-.063-1.209-.297-2.837 0-3.077.297-.238.771-.123.771-.123s-.237 2.293 1.132 2.896Zm-8.866-32.664c1.316 0 2.377 1.324 2.377 2.952 0 1.156-.535 2.157-1.316 2.637-.198-.082-.403-.176-.63-.272.474-.238.803-.843.803-1.543 0-.915-.555-1.668-1.253-1.668-.679 0-1.245.753-1.245 1.668 0 .334.082.667.216.929a55.44 55.44 0 0 0-1.08-.427 3.641 3.641 0 0 1-.247-1.324c0-1.628 1.058-2.952 2.375-2.952ZM33.73 21.6c.648.115 2.428.897 3.086 1.137.658.23 1.387.657 1.316 1.084-.081.44-.421.44-1.316.993-.885.542-2.817 1.75-3.436 1.834-.616.082-.966-.27-1.624-.7-.658-.438-1.893-1.46-1.582-2.002 0 0 .966-.75 1.387-1.134.421-.398 1.511-1.334 2.17-1.212Zm-2.838-4.617c1.038 0 1.883 1.252 1.883 2.794 0 .28-.032.542-.082.804a2.113 2.113 0 0 0-.763.438c-.121.104-.235.197-.337.301.163-.312.226-.76.152-1.23-.142-.833-.697-1.45-1.242-1.367-.548.094-.874.857-.743 1.7.145.855.69 1.471 1.245 1.378l.093-.032a6.895 6.895 0 0 1-.772.678c-.75-.356-1.305-1.418-1.305-2.67 0-1.553.832-2.794 1.872-2.794Zm-5.778 20.194c1.069-1.708 1.759-5.442 2.827-6.683 1.08-1.239 1.912-3.878 1.533-5.045 0 0 2.303 2.795 3.906 2.336 1.606-.47 5.216-3.19 5.75-2.723.534.47 5.13 10.72 5.594 13.983.464 3.262-.308 5.755-.308 5.755s-1.758-.47-1.985.614c-.226 1.094-.226 5.058-.226 5.058s-2.377 3.336-6.058 3.889c-3.68.542-5.523.146-5.523.146l-2.067-2.4s1.606-.24 1.38-1.875c-.227-1.626-4.907-3.879-5.75-5.902-.842-2.023-.155-5.442.927-7.153Zm-9.1 12.24c.183-.8 2.569-.8 3.485-1.363.916-.564 1.1-2.181 1.84-2.608.729-.438 2.077 1.116 2.632 1.991.545.854 2.633 4.588 3.486 5.517.864.937 1.656 2.178 1.409 3.294-.235 1.115-1.533 1.93-1.533 1.93-1.16.362-4.399-1.055-5.87-1.68-1.472-.627-5.215-.814-5.697-1.366-.495-.563.237-1.804.432-2.981.173-1.19-.372-1.93-.185-2.734Z"/></svg>