<svg width="230" height="48" viewBox="0 0 230 48" fill="none" xmlns="http://www.w3.org/2000/svg">
<path d="M11.8018 37.9992L0.257812 10.6992H10.1638L19.5628 33.7482H13.6738L23.3458 10.6992H32.3938L20.8498 37.9992H11.8018Z" fill="#1D4365"/>
<path d="M33.3097 37.9992V10.6992H46.4527C49.0007 10.6992 51.1977 11.1152 53.0437 11.9472C54.9157 12.7792 56.3587 13.9752 57.3727 15.5352C58.3867 17.0692 58.8937 18.8892 58.8937 20.9952C58.8937 23.1012 58.3867 24.9212 57.3727 26.4552C56.3587 27.9892 54.9157 29.1852 53.0437 30.0432C51.1977 30.8752 49.0007 31.2912 46.4527 31.2912H38.4187L42.5137 27.3522V37.9992H33.3097ZM42.5137 28.3662L38.4187 24.1932H45.8677C47.1417 24.1932 48.0777 23.9072 48.6757 23.3352C49.2997 22.7632 49.6117 21.9832 49.6117 20.9952C49.6117 20.0072 49.2997 19.2272 48.6757 18.6552C48.0777 18.0832 47.1417 17.7972 45.8677 17.7972H38.4187L42.5137 13.6242V28.3662Z" fill="#1D4365"/>
<path d="M61.9122 37.9992V10.6992H69.4782L83.3622 27.3132H79.8522V10.6992H88.8222V37.9992H81.2562L67.3722 21.3852H70.8822V37.9992H61.9122Z" fill="#1D4365"/>
<path d="M96.962 38.3892C95.506 38.3892 94.284 37.9212 93.296 36.9852C92.308 36.0232 91.814 34.8012 91.814 33.3192C91.814 31.8112 92.308 30.6022 93.296 29.6922C94.284 28.7822 95.506 28.3272 96.962 28.3272C98.418 28.3272 99.64 28.7822 100.628 29.6922C101.616 30.6022 102.11 31.8112 102.11 33.3192C102.11 34.8012 101.616 36.0232 100.628 36.9852C99.64 37.9212 98.418 38.3892 96.962 38.3892Z" fill="#1D4365"/>
<path d="M114.999 38.1139C113.986 38.1139 113.049 37.9493 112.187 37.6199C111.339 37.2779 110.598 36.8029 109.964 36.1949C109.344 35.5869 108.856 34.8713 108.501 34.0479C108.159 33.2246 107.988 32.3253 107.988 31.3499C107.988 30.3746 108.159 29.4753 108.501 28.6519C108.856 27.8286 109.35 27.1129 109.983 26.5049C110.617 25.8969 111.358 25.4283 112.206 25.0989C113.068 24.7569 114.005 24.5859 115.018 24.5859C116.032 24.5859 116.956 24.7443 117.792 25.0609C118.641 25.3776 119.363 25.8589 119.958 26.5049L119.084 27.3979C118.527 26.8406 117.913 26.4416 117.241 26.2009C116.57 25.9603 115.848 25.8399 115.075 25.8399C114.252 25.8399 113.492 25.9793 112.795 26.2579C112.111 26.5239 111.51 26.9103 110.99 27.4169C110.484 27.9109 110.085 28.4936 109.793 29.1649C109.515 29.8236 109.375 30.5519 109.375 31.3499C109.375 32.1353 109.515 32.8636 109.793 33.5349C110.085 34.2063 110.484 34.7953 110.99 35.3019C111.51 35.7959 112.111 36.1823 112.795 36.4609C113.492 36.7269 114.246 36.8599 115.056 36.8599C115.816 36.8599 116.532 36.7459 117.203 36.5179C117.887 36.2899 118.514 35.9036 119.084 35.3589L119.882 36.4229C119.249 36.9803 118.508 37.4046 117.659 37.6959C116.811 37.9746 115.924 38.1139 114.999 38.1139ZM118.533 36.2519V31.3499H119.882V36.4229L118.533 36.2519Z" fill="#1D4365"/>
<path d="M125.116 30.6469H132.146V31.8439H125.116V30.6469ZM125.268 36.7839H133.267V37.9999H123.862V24.6999H132.982V25.9159H125.268V36.7839Z" fill="#1D4365"/>
<path d="M136.572 37.9999V24.6999H137.731L146.908 36.2519H146.3V24.6999H147.687V37.9999H146.528L137.37 26.4479H137.978V37.9999H136.572Z" fill="#1D4365"/>
<path d="M153.282 30.6469H160.312V31.8439H153.282V30.6469ZM153.434 36.7839H161.433V37.9999H152.028V24.6999H161.148V25.9159H153.434V36.7839Z" fill="#1D4365"/>
<path d="M164.738 37.9999V24.6999H169.716C170.843 24.6999 171.812 24.8836 172.623 25.2509C173.433 25.6056 174.054 26.1249 174.485 26.8089C174.928 27.4803 175.15 28.2973 175.15 29.2599C175.15 30.1973 174.928 31.0079 174.485 31.6919C174.054 32.3633 173.433 32.8826 172.623 33.2499C171.812 33.6046 170.843 33.7819 169.716 33.7819H165.517L166.144 33.1359V37.9999H164.738ZM173.82 37.9999L170.4 33.1739H171.92L175.359 37.9999H173.82ZM166.144 33.2499L165.517 32.5849H169.678C171.008 32.5849 172.015 32.2936 172.699 31.7109C173.395 31.1283 173.744 30.3113 173.744 29.2599C173.744 28.1959 173.395 27.3726 172.699 26.7899C172.015 26.2073 171.008 25.9159 169.678 25.9159H165.517L166.144 25.2509V33.2499Z" fill="#1D4365"/>
<path d="M176.34 37.9999L182.42 24.6999H183.807L189.887 37.9999H188.405L182.819 25.5169H183.389L177.803 37.9999H176.34ZM178.734 34.4469L179.152 33.3069H186.885L187.303 34.4469H178.734Z" fill="#1D4365"/>
<path d="M194.003 37.9999V25.9159H189.329V24.6999H200.083V25.9159H195.409V37.9999H194.003Z" fill="#1D4365"/>
<path d="M207.958 38.1139C206.957 38.1139 206.026 37.9493 205.165 37.6199C204.316 37.2779 203.575 36.8029 202.942 36.1949C202.321 35.5743 201.833 34.8586 201.479 34.0479C201.137 33.2246 200.966 32.3253 200.966 31.3499C200.966 30.3746 201.137 29.4816 201.479 28.6709C201.833 27.8476 202.321 27.1319 202.942 26.5239C203.575 25.9033 204.316 25.4283 205.165 25.0989C206.013 24.7569 206.944 24.5859 207.958 24.5859C208.958 24.5859 209.883 24.7569 210.732 25.0989C211.58 25.4283 212.315 25.8969 212.936 26.5049C213.569 27.1129 214.057 27.8286 214.399 28.6519C214.753 29.4753 214.931 30.3746 214.931 31.3499C214.931 32.3253 214.753 33.2246 214.399 34.0479C214.057 34.8713 213.569 35.5869 212.936 36.1949C212.315 36.8029 211.58 37.2779 210.732 37.6199C209.883 37.9493 208.958 38.1139 207.958 38.1139ZM207.958 36.8599C208.756 36.8599 209.49 36.7269 210.162 36.4609C210.846 36.1823 211.435 35.7959 211.929 35.3019C212.435 34.7953 212.828 34.2126 213.107 33.5539C213.385 32.8826 213.525 32.1479 213.525 31.3499C213.525 30.5519 213.385 29.8236 213.107 29.1649C212.828 28.4936 212.435 27.9109 211.929 27.4169C211.435 26.9103 210.846 26.5239 210.162 26.2579C209.49 25.9793 208.756 25.8399 207.958 25.8399C207.16 25.8399 206.419 25.9793 205.735 26.2579C205.051 26.5239 204.455 26.9103 203.949 27.4169C203.455 27.9109 203.062 28.4936 202.771 29.1649C202.492 29.8236 202.353 30.5519 202.353 31.3499C202.353 32.1353 202.492 32.8636 202.771 33.5349C203.062 34.2063 203.455 34.7953 203.949 35.3019C204.455 35.7959 205.051 36.1823 205.735 36.4609C206.419 36.7269 207.16 36.8599 207.958 36.8599Z" fill="#1D4365"/>
<path d="M218.082 37.9999V24.6999H223.06C224.188 24.6999 225.157 24.8836 225.967 25.2509C226.778 25.6056 227.399 26.1249 227.829 26.8089C228.273 27.4803 228.494 28.2973 228.494 29.2599C228.494 30.1973 228.273 31.0079 227.829 31.6919C227.399 32.3633 226.778 32.8826 225.967 33.2499C225.157 33.6046 224.188 33.7819 223.06 33.7819H218.861L219.488 33.1359V37.9999H218.082ZM227.164 37.9999L223.744 33.1739H225.264L228.703 37.9999H227.164ZM219.488 33.2499L218.861 32.5849H223.022C224.352 32.5849 225.359 32.2936 226.043 31.7109C226.74 31.1283 227.088 30.3113 227.088 29.2599C227.088 28.1959 226.74 27.3726 226.043 26.7899C225.359 26.2073 224.352 25.9159 223.022 25.9159H218.861L219.488 25.2509V33.2499Z" fill="#1D4365"/>
</svg>
