<svg width="101" height="27" viewBox="0 0 101 27" fill="none" xmlns="http://www.w3.org/2000/svg">
<path d="M0.276 27V0.167999H8.895V27H0.276ZM15.0442 0.167999H38.2492V6.603H23.6632V10.308H36.1432V16.47H23.6632V20.565H38.5222V27H15.0442V0.167999ZM54.8117 0.167999C64.1977 0.167999 68.8907 4.64 68.8907 13.584C68.8907 22.528 64.1977 27 54.8117 27H43.1897V0.167999H54.8117ZM51.8087 20.565H54.6557C58.2697 20.565 60.0767 18.628 60.0767 14.754V12.414C60.0767 8.54 58.2697 6.603 54.6557 6.603H51.8087V20.565ZM92.7322 27L81.4612 13.974V27H73.5442V0.167999H81.0712L92.3422 13.389V0.167999H100.259V27H92.7322Z" fill="#1D4365"/>
</svg>
